<?xml version="1.0" encoding="UTF-8"?>
<svg id="Layer_2" data-name="Layer 2" xmlns="http://www.w3.org/2000/svg" xmlns:xlink="http://www.w3.org/1999/xlink" viewBox="0 0 366.85 272.52">
  <defs>
    <style>
      .cls-1, .cls-2, .cls-3 {
        fill: #91a4d6;
      }

      .cls-2 {
        font-family: AcuminConcept-Medium, 'Acumin Variable Concept';
        font-size: 10px;
        font-variation-settings: 'wght' 500, 'wdth' 100, 'slnt' 0;
      }

      .cls-4 {
        fill: url(#radial-gradient-2);
        stroke: #91a4d6;
        stroke-width: 2px;
      }

      .cls-4, .cls-5 {
        stroke-miterlimit: 10;
      }

      .cls-5 {
        fill: url(#radial-gradient);
        stroke: #000;
      }

      .cls-3, .cls-6 {
        fill-rule: evenodd;
      }

      .cls-6 {
        fill: #fff;
      }
    </style>
    <radialGradient id="radial-gradient" cx="183.42" cy="136.26" fx="183.42" fy="136.26" r="181.64" gradientTransform="translate(-3.43 41.34) rotate(-2) scale(1 .74)" gradientUnits="userSpaceOnUse">
      <stop offset=".7" stop-color="#9cacd0"/>
      <stop offset=".92" stop-color="#3f48a2"/>
      <stop offset="1" stop-color="#212665"/>
    </radialGradient>
    <radialGradient id="radial-gradient-2" cx="183.42" cy="136.27" fx="183.42" fy="136.27" r="137.42" gradientUnits="userSpaceOnUse">
      <stop offset="0" stop-color="#3d50b5"/>
      <stop offset="1" stop-color="#3f48a2"/>
    </radialGradient>
  </defs>
  <g id="Layer_2-2" data-name="Layer 2">
    <ellipse class="cls-5" cx="183.42" cy="136.26" rx="182.92" ry="135.76"/>
    <path class="cls-4" d="M339.48,136.26c0,63.97-69.87,115.83-156.06,115.83S27.36,200.23,27.36,136.26,97.23,20.44,183.42,20.44s156.06,51.85,156.06,115.82Z"/>
    <text class="cls-2" transform="translate(159.85 47.01) rotate(-10.9)"><tspan x="0" y="0">I</tspan></text>
    <text class="cls-2" transform="translate(162.54 46.45) rotate(-8.66)"><tspan x="0" y="0">C</tspan></text>
    <text class="cls-2" transform="translate(169.29 45.46) rotate(-6.46)"><tspan x="0" y="0">I</tspan></text>
    <text class="cls-2" transform="translate(172.08 45.14) rotate(-5.26)"><tspan x="0" y="0"> </tspan></text>
    <text class="cls-2" transform="translate(174.52 44.89) rotate(-3.27)"><tspan x="0" y="0">V</tspan></text>
    <text class="cls-2" transform="translate(180.93 44.52) rotate(-.52)"><tspan x="0" y="0">É</tspan></text>
    <text class="cls-2" transform="translate(186.86 44.46) rotate(2.27)"><tspan x="0" y="0">C</tspan></text>
    <text class="cls-2" transform="translate(193.67 44.72) rotate(5.35)"><tspan x="0" y="0">U</tspan></text>
    <text class="cls-2" transform="translate(200.82 45.41) rotate(8.26)"><tspan x="0" y="0">T</tspan></text>
    <text/>
    <g>
      <path class="cls-1" d="M155.87,220.42c0,.06,.29,.09,.29,.24v2.35h2.03l.18-.68s-.06-.01-.1,.04c-.1,.1-.18,.41-.64,.41h-.97v-1.04h1.09v-.24h-1.09v-.88h1.05c.21,0,.3,.15,.42,.19,.03,0,.06,0,.06,0l-.16-.42h-2.16v.04Z"/>
      <path class="cls-1" d="M154.04,223.01c.28,0,.54-.04,.77-.14,.48-.22,.8-.65,.8-1.19,0-.78-.59-1.3-1.69-1.3h-1.01v.04c0,.06,.29,.09,.29,.24v2.35h.84Zm.58-.34c-.15,.07-.34,.1-.48,.1h-.45v-2.16h.06c1.19,0,1.43,.67,1.43,1.14,0,.44-.24,.76-.56,.92Z"/>
      <path class="cls-1" d="M139.46,219.83c0,.06,.26,.05,.34,.25l1.24,2.94h.37l1.23-3.23h-.71v.04c0,.06,.26,.03,.26,.17,0,.06-.06,.22-.1,.34l-.79,2.1h-.01l-1.08-2.66h-.75v.04Z"/>
      <path class="cls-1" d="M149.04,220.42c0,.06,.29,.09,.29,.24v2.35h2.03l.18-.68s-.06-.01-.1,.04c-.1,.1-.18,.41-.64,.41h-.97v-1.04h1.09v-.24h-1.09v-.88h1.05c.21,0,.3,.15,.42,.19,.03,0,.06,0,.06,0l-.16-.42h-2.16v.04Z"/>
      <path class="cls-1" d="M146.61,220.38v.04c0,.06,.29,.09,.29,.24v2.35h1.9l.18-.68s-.06-.01-.1,.04c-.1,.1-.18,.41-.64,.41h-.84v-2.39h-.79Z"/>
      <path class="cls-1" d="M144.16,220.38v.04c0,.06,.29,.09,.29,.24v2.35h1.9l.18-.68s-.06-.01-.1,.04c-.1,.1-.18,.41-.64,.41h-.84v-2.39h-.79Z"/>
      <path class="cls-1" d="M143.6,223.01v-2.63h-.79v.04c0,.06,.29,.09,.29,.24v2.35h.49Z"/>
    </g>
    <g>
      <path class="cls-1" d="M156.03,225.3c.3-.07,1.38-.66,2.08-1.03h-1.22l-1.09,.98s.09,.09,.23,.05Z"/>
      <path class="cls-1" d="M151.56,225.81v.08c0,.12,.61,.18,.61,.47v2.88c0,.87-.67,1.41-1.52,1.41s-1.52-.57-1.52-1.44v-3.4h-1.52v.08c0,.13,.49,.18,.49,.54v2.66c0,1.27,.87,2.01,2.47,2.01,.6,0,1.19-.24,1.59-.6v.51h1.52v-.08c0-.13-.49-.18-.49-.54v-4.58h-1.64Z"/>
      <path class="cls-1" d="M175.69,227.17c-.05-.41-.09-.82-.1-1.23-.45-.18-.99-.25-1.49-.25-1.63,0-3.46,.86-3.46,2.75s1.76,2.7,3.04,2.7c.84,0,1.65-.21,2.17-.63l.04-.46c-.55,.3-1.21,.53-1.89,.53-1.39,0-2.46-1.15-2.46-2.42,0-1.08,.85-1.97,2.29-1.97,.48,0,1.03,.11,1.39,.43,.19,.16,.29,.54,.39,.54h.08Z"/>
      <path class="cls-1" d="M154.16,225.89c0,.12,.61,.18,.61,.47v4.65h4.22l.37-1.35s-.12-.02-.21,.07c-.2,.21-.38,.81-1.33,.81h-2.02v-2.06h2.26v-.48h-2.26v-1.74h2.19c.44,0,.62,.3,.88,.37,.06,.02,.13,0,.13,0l-.34-.83h-4.49v.08Z"/>
      <path class="cls-1" d="M165.06,225.89c0,.12,.61,.18,.61,.47v4.65h4.22l.37-1.35s-.12-.02-.21,.07c-.2,.21-.38,.81-1.33,.81h-2.02v-2.06h2.26v-.48h-2.26v-1.74h2.19c.44,0,.62,.3,.88,.37,.06,.02,.13,0,.13,0l-.34-.83h-4.49v.08Z"/>
      <path class="cls-1" d="M159.55,225.81v.08c0,.12,.61,.18,.61,.47v4.65h1.98c.47,0,.88-.04,1.23-.13,.98-.25,1.47-.83,1.47-1.41,0-.87-.85-1.2-1.79-1.29v-.02c.71-.18,1.24-.49,1.24-1.14,0-.94-.94-1.21-2.23-1.21h-2.5Zm2.48,.46c.22,0,.43,.01,.62,.06,.43,.1,.73,.35,.73,.8,0,.41-.31,.71-.91,.84-.23,.05-.5,.06-.81,.06h-.48v-1.76h.84Zm.09,2.21c.26,0,.5,0,.71,.04,.67,.13,1.04,.48,1.04,1.04,0,.48-.4,.8-1.1,.93-.28,.05-.6,.05-.96,.05h-.61v-2.06h.93Z"/>
      <path class="cls-1" d="M151.52,232.34c0,.06-.05,.09-.11,.12-.55,.28-1.58,.74-2.9,.74-1.38,0-2.35-.39-3.86-1.33l-1.1-.69c-.14,0-.28,.01-.42,0-2.08-.06-3.68-1.62-3.55-3.48,.12-1.86,1.91-3.33,3.99-3.27,2.08,.06,3.68,1.62,3.55,3.48-.09,1.35-1.05,2.49-2.37,2.99l1.01,.58c1.93,1.06,3.14,1.17,3.76,1.17,.47,0,1.15-.08,1.78-.34,.05-.02,.1-.05,.14-.05,.05,0,.08,.04,.08,.09Zm-8.31-7.2c-1.48,0-2.62,1.19-2.55,2.66,.07,1.47,1.33,2.66,2.81,2.66,1.48,0,2.62-1.19,2.55-2.66-.07-1.47-1.33-2.66-2.81-2.66Z"/>
    </g>
    <g>
      <path class="cls-1" d="M164.73,216.12c-.67-.95-.87-2.23,.63-2.66l2.44-.48c-.57,.54-.75,1.41,0,2.62-1.44-.7-3.19-.6-3.06,.51Z"/>
      <path class="cls-1" d="M172.17,214.81c-.85-1.29-.48-2.32-.02-2.79l-3.23,.69c-1.43,.61-1.07,1.96-.56,2.73-.1-1,1.41-1.51,3.81-.63Z"/>
      <path class="cls-1" d="M169.41,219.98c-2.82-2.37-1.76-3.94-.79-4.43l3.58-.67c-1.61,1.66-1.01,3.58-.21,4.56-1.41-.78-3.36-.85-2.59,.53Z"/>
      <path class="cls-1" d="M166.36,219.11c-.49,.03-.73,.34-.67,.71-1.14-.84-1.85-2.27-.93-3.53l3.07-.57c-.73,.68-1.19,2.28,1.09,4.22-.74-.22-1.55-.9-2.56-.83Z"/>
      <path class="cls-1" d="M174.95,214.52c-1.78,.37-4.82,1.83-2.55,4.78-.39-1.17,.83-1.28,2.57-1.01-1.06-.7-1.8-2.13-.02-3.77Z"/>
      <path class="cls-1" d="M171.17,220.37l.1-.29,.57-.04,.22-.45,1.73-.52,.16-.39,1.51-.5c.26,.59,.08,1.19-.22,1.68-.18,.29-.41,.53-.58,.73-.45,.55-.32,1.47,.17,2.4h-8.34c-.7-.65-.95-1.28-1.27-1.93-.32-.65-.7-.93-1.7-1.6-.23-.16-.11-.39,.15-.23l.73,.44c1.98,.72,4.53,.74,6.78,.67Z"/>
      <path class="cls-1" d="M161.7,217.28h.34c-.53-.35-.97-.67-1.08-.75-.17-.11-.2,.04-.11,.11l.84,.65Z"/>
      <path class="cls-1" d="M163.28,218.14s-.14,.25-.03,.41l.98,.82,1,.27-1.96-1.5Z"/>
      <path class="cls-1" d="M166.17,211.08c0-.15,.07-.17,.08-.02,.01,.14,.16,1.71,.17,1.84,0,.13-.01,.16-.05,.17-.04,.01-.11,.02-.16,.03-.05,0-.07-.01-.07-.09,0-.08,.02-1.65,.04-1.93Z"/>
      <path class="cls-1" d="M170.43,209.77c0-.07,.01-.12,.05-.12,.03,0,.05,.04,.05,.09,0,.11,.15,2.29,.16,2.36,0,.07,0,.09-.06,.1-.06,.02-.08,.02-.14,.03-.05,0-.09-.01-.09-.07s.04-2.28,.04-2.39Z"/>
      <path class="cls-1" d="M173.24,212.35c0-.1,.07-.12,.08-.02,0,.1,.13,2.31,.13,2.43s0,.14-.05,.16c-.04,.02-.07,.04-.12,.06-.06,.02-.08,.02-.08-.05s.03-1.94,.05-2.58Z"/>
      <path class="cls-1" d="M171.98,213.15c-.04-.07,0-.07,.02-.07,.08,.01,.28,.04,.43-.04,.15-.08,.29-.17,.44-.2,.2-.04,.29,0,.2,.1-.14,.17-.16,.42-.03,.63,.04,.07,.04,.1-.03,.09-.42-.05-.59-.15-.93,.04-.07,.04-.09,.01-.07-.03,.08-.11,.16-.19,.27-.27,.06-.04,.04-.05,0-.07-.16-.05-.27-.14-.31-.2Z"/>
      <path class="cls-1" d="M170.25,210.34c-.27,.13-.44,.1-.58,.03-.06-.03-.13-.07-.18-.08-.23-.09-.34-.04-.49,.07-.18,.14-.36,.19-.57,.24-.13,.03-.26,.08-.36,.15-.13,.1-.21,.23-.24,.33-.03,.08-.01,.1,.05,.08,.22-.08,.29-.13,.59-.06,.35,.08,.51,.11,.86-.02,.34-.12,.5-.15,.7-.04,.08,.05,.18,.13,.22,.09,.03-.04-.06-.11-.07-.17-.07-.25,.03-.45,.12-.57,.02-.03,.01-.07-.03-.06Z"/>
      <path class="cls-1" d="M165.98,211.92c-.08-.13-.05-.34,.01-.5,.03-.1-.11-.13-.32-.07-.21,.07-.34,.18-.63,.21-.23,.02-.44-.02-.52-.04-.06-.01-.05,.02,0,.09,.04,.04,.13,.11,.23,.17,.04,.02,.03,.05-.02,.1-.04,.04-.11,.1-.22,.16-.02,.01-.06,.04,.04,.09,.14,.07,.43,.14,.77,.01,.17-.06,.28-.14,.45-.13,.21,0,.25,.02,.19-.09Z"/>
      <path class="cls-1" d="M175.76,216.94c0,.16-.13,.28-.28,.28s-.28-.13-.28-.28,.13-.28,.28-.28,.28,.13,.28,.28Z"/>
      <path class="cls-1" d="M175.86,217.15c-.07,.13-.21,.22-.37,.22s-.3-.09-.37-.22c-.11,.11-.12,.16-.12,.16l.14,.11,.13,.66h.45l.13-.66,.14-.11s-.02-.06-.12-.16Z"/>
      <path class="cls-1" d="M174.74,220.93c-.22,.45-.11,1.17,.3,1.97l.06,.11h.5s.04-.31-.41-.92c-.41-.57-.45-1.04-.45-1.16Z"/>
      <path class="cls-1" d="M163.77,220.06s.03,.05-.01,.03c-.04-.03-.28-.17-.41-.23-1.75,1.58-3.9-1.14-2.25-2.39l2.27-.07c-.73,1.3-.25,2.17,.4,2.67Zm-.47-.24c-.8-.44-1.58-.51-1.72-.11-.2,.55,1.09,.77,1.72,.11Z"/>
    </g>
    <g>
      <g>
        <path class="cls-1" d="M210.87,227.81v-4.03h-.03c-.14,.13-.67,.14-.9,.14h-.39v.03c.45,.28,.39,.68,.39,1.19v1.71c0,.85-.84,1.45-1.51,1.45-.89,0-1.26-.63-1.26-1.65v-2.87h-.03c-.14,.13-.68,.14-.9,.14h-.39v.03c.45,.28,.39,.68,.39,1.19v1.7c0,1.56,.68,2.3,1.88,2.3,.72,0,1.45-.25,1.82-.86v.74h1.32v-.03c-.45-.25-.39-.66-.39-1.17Z"/>
        <path class="cls-1" d="M212.92,225.65c.12-.69,.63-1.13,1.32-1.13,.74,0,1.21,.36,1.32,1.13h-2.64Zm3.71,.64c.04-1.42-.91-2.5-2.3-2.5-1.52,0-2.56,1.11-2.56,2.64s1.2,2.72,2.94,2.72c.48,0,.97-.08,1.41-.27l.51-1.04h-.03c-.47,.4-1.06,.59-1.68,.59-1.16,0-2.03-.79-2.05-2.15h3.75Z"/>
        <path class="cls-1" d="M217.44,221.43c.24,0,.74-.02,.9-.16h.03v6.98c.27,.08,.56,.13,.84,.13,1.12,0,1.76-.78,1.76-1.87s-.5-1.89-1.52-1.89c-.33,0-.58,.09-.85,.24l.55-.94c.23-.09,.48-.12,.72-.12,1.16,0,2.14,1.01,2.14,2.52,0,1.73-1.17,2.85-3.02,2.85-.69,0-1.35-.12-1.86-.2v-.03c.34-.16,.31-.52,.31-.88v-5.07c0-.51,.06-1.22-.38-1.5v-.03h.38Z"/>
        <path class="cls-1" d="M223.82,225.65c.12-.69,.63-1.13,1.32-1.13,.74,0,1.21,.36,1.32,1.13h-2.64Zm3.71,.64c.04-1.42-.91-2.5-2.3-2.5-1.52,0-2.56,1.11-2.56,2.64s1.2,2.72,2.94,2.72c.48,0,.97-.08,1.41-.27l.51-1.04h-.03c-.47,.4-1.06,.59-1.68,.59-1.16,0-2.03-.79-2.05-2.15h3.75Z"/>
        <path class="cls-1" d="M232.11,225.06h-.03c-.3-.37-.79-.54-1.25-.54-.99,0-1.71,.75-1.71,1.81,0,1.27,.99,2.11,2.13,2.11,.52,0,1.09-.22,1.49-.54h.03l-.53,1.05c-.43,.18-.9,.22-1.35,.22-1.57,0-2.81-1.11-2.81-2.55,0-1.9,1.37-2.81,2.92-2.81,.37,0,.75,.04,1.1,.13v1.13Z"/>
        <path class="cls-3" d="M215.35,222.88v-1.11c-.67,.3-1.29,.86-1.71,1.41v.43c1-.67,1.71-.7,1.71-.73Z"/>
        <path class="cls-1" d="M201.65,228.4c-1.54,0-2.62-1.74-2.62-3.22,0-.02,0-.15,0-.17,.02-1.43,.95-2.78,2.57-2.78,1.7,0,2.58,1.61,2.6,3.14v.16c0,1.63-1.01,2.87-2.55,2.87Zm5.3,1.69c-1.14,.19-2.24-.17-3.4-1.51,1.13-.57,1.82-1.97,1.82-3.28,0-.01,0-.15,0-.16-.02-2.24-1.7-3.71-3.7-3.71s-3.78,1.54-3.8,3.79c0,.01,0,.14,0,.15,0,2.19,1.63,3.82,3.62,3.82,.29,0,.56-.04,.84-.11,1.31,1.22,2.47,1.75,3.48,1.62,.48-.06,.98-.25,1.28-.64l-.14,.02Z"/>
      </g>
      <g>
        <rect class="cls-1" x="234.61" y="221.44" width="4.99" height="3.06"/>
        <path class="cls-6" d="M237.1,221.6c-.04,.07-.12,.16-.25,.34-.16,.2-.13,.46-.06,.62,.09,.18,.14,.33,.18,.47,.05,.21,.02,.48,.02,.46h-.14c0-.34-.11-.66-.36-.8-.36-.2-.72,.15-.61,.51,.06,.19,.17,.25,.2,.25,0,0-.05-.21,.1-.31,.14-.1,.32-.04,.4,.08,.08,.11,.09,.27,.09,.27h-.26v.19h.52s-.01,.27-.3,.24c0,0,.04,.21,.3,.1,0,0-.01,.22,.17,.34h0c.18-.11,.17-.34,.17-.34,.27,.11,.3-.1,.3-.1-.29,.03-.3-.25-.3-.25h.52s0-.19,0-.19h-.26s.01-.16,.09-.27c.08-.12,.26-.18,.4-.08,.15,.11,.1,.31,.1,.31,.03,0,.14-.06,.2-.25,.11-.36-.24-.71-.61-.51-.26,.14-.36,.46-.36,.8h-.14s-.03-.25,.02-.46c.04-.14,.09-.29,.18-.47,.08-.16,.1-.42-.06-.62-.14-.17-.22-.27-.26-.34Z"/>
        <rect class="cls-1" x="241.05" y="221.44" width="4.99" height="3.06"/>
        <path class="cls-6" d="M243.55,221.6c-.04,.07-.12,.16-.26,.34-.16,.2-.13,.46-.06,.62,.09,.18,.14,.33,.18,.47,.05,.21,.02,.48,.02,.46h-.14c0-.34-.1-.66-.36-.8-.36-.2-.72,.15-.6,.51,.06,.19,.17,.25,.2,.25,0,0-.05-.21,.1-.31,.14-.1,.32-.04,.4,.08,.08,.11,.09,.27,.09,.27h-.26v.19h.52s-.01,.27-.3,.24c0,0,.04,.21,.3,.1,0,0-.01,.22,.17,.34h0c.18-.11,.17-.34,.17-.34,.27,.11,.3-.1,.3-.1-.29,.03-.3-.25-.3-.25h.52s0-.19,0-.19h-.26s.01-.16,.09-.27c.08-.12,.26-.18,.4-.08,.15,.11,.1,.31,.1,.31,.03,0,.13-.06,.19-.25,.11-.36-.24-.71-.6-.51-.25,.14-.36,.46-.36,.8h-.14s-.03-.25,.02-.46c.04-.14,.09-.29,.18-.47,.08-.16,.1-.42-.06-.62-.14-.17-.22-.27-.25-.34Z"/>
      </g>
      <g>
        <rect class="cls-1" x="234.61" y="225.95" width="4.99" height="3.06"/>
        <path class="cls-6" d="M237.1,226.11c-.04,.07-.12,.16-.25,.34-.16,.2-.13,.46-.06,.62,.09,.18,.14,.33,.18,.47,.05,.21,.02,.48,.02,.46h-.14c0-.34-.11-.66-.36-.8-.36-.2-.72,.15-.61,.51,.06,.19,.17,.25,.2,.25,0,0-.05-.21,.1-.32,.14-.1,.32-.04,.4,.08,.08,.11,.09,.27,.09,.27h-.26v.19h.52s-.01,.27-.3,.25c0,0,.04,.21,.3,.1,0,0-.01,.22,.17,.34h0c.18-.11,.17-.34,.17-.34,.27,.11,.3-.1,.3-.1-.29,.03-.3-.25-.3-.25h.52v-.19h-.26s.01-.16,.09-.27c.08-.12,.26-.18,.4-.08,.15,.11,.1,.32,.1,.32,.03,0,.14-.06,.2-.25,.11-.36-.24-.71-.61-.51-.26,.14-.36,.46-.36,.8h-.14s-.03-.25,.02-.46c.04-.14,.09-.29,.18-.47,.08-.16,.1-.42-.06-.62-.14-.17-.22-.27-.26-.34Z"/>
        <rect class="cls-1" x="241.05" y="225.95" width="4.99" height="3.06"/>
        <path class="cls-6" d="M243.55,226.11c-.04,.07-.12,.16-.26,.34-.16,.2-.13,.46-.06,.62,.09,.18,.14,.33,.18,.47,.05,.21,.02,.48,.02,.46h-.14c0-.34-.1-.66-.36-.8-.36-.2-.72,.15-.6,.51,.06,.19,.17,.25,.2,.25,0,0-.05-.21,.1-.32,.14-.1,.32-.04,.4,.08,.08,.11,.09,.27,.09,.27h-.26v.19h.52s-.01,.27-.3,.25c0,0,.04,.21,.3,.1,0,0-.01,.22,.17,.34h0c.18-.11,.17-.34,.17-.34,.27,.11,.3-.1,.3-.1-.29,.03-.3-.25-.3-.25h.52v-.19h-.26s.01-.16,.09-.27c.08-.12,.26-.18,.4-.08,.15,.11,.1,.32,.1,.32,.03,0,.13-.06,.19-.25,.11-.36-.24-.71-.6-.51-.25,.14-.36,.46-.36,.8h-.14s-.03-.25,.02-.46c.04-.14,.09-.29,.18-.47,.08-.16,.1-.42-.06-.62-.14-.17-.22-.27-.25-.34Z"/>
      </g>
    </g>
    <g>
      <path class="cls-1" d="M147.01,85.84v-.44l.42-.15c.25-.07,.43-.19,.53-.37,.1-.18,.15-.42,.17-.72v-10.56c-.01-.29-.06-.52-.15-.68-.08-.16-.26-.28-.53-.37l-.44-.15v-.44h10l.15,3.36h-.59l-.84-1.89c-.11-.27-.24-.47-.38-.62-.14-.15-.35-.22-.63-.22h-3.57c-.01,.87-.02,1.76-.02,2.68v3.1h2.08c.28,0,.49-.07,.64-.22,.15-.15,.28-.35,.41-.6l.36-.8h.46v3.88h-.46l-.38-.8c-.11-.25-.24-.46-.38-.61-.14-.15-.35-.23-.63-.23h-2.1v2.6c0,.73,0,1.38,.01,1.94,0,.57,.01,1.12,.01,1.67h4.03c.28,0,.5-.07,.65-.22,.15-.15,.28-.35,.38-.62l.78-1.89h.59l-.15,3.36h-10.42Z"/>
      <path class="cls-1" d="M162.9,86.13c-.83,0-1.57-.19-2.23-.56-.66-.37-1.17-.94-1.54-1.72-.37-.78-.56-1.77-.56-2.97s.21-2.21,.63-3.01c.42-.8,.98-1.41,1.68-1.82,.7-.41,1.47-.61,2.31-.61,.5,0,.99,.06,1.45,.18,.46,.12,.87,.3,1.22,.54v-2.73c0-.29-.05-.51-.14-.64-.09-.13-.28-.23-.56-.3l-.42-.08v-.4l3.65-.9,.27,.19-.08,2.96v10.1c0,.27,.05,.49,.15,.66,.1,.17,.27,.3,.52,.37l.23,.06v.4l-3.49,.23-.19-.88c-.38,.29-.81,.53-1.3,.69s-1.03,.25-1.62,.25Zm1.15-.97c.6,0,1.17-.2,1.7-.59v-7.81c-.52-.32-1.08-.48-1.68-.48-.69,0-1.27,.36-1.76,1.08-.49,.72-.74,1.88-.74,3.48s.23,2.72,.69,3.36c.46,.64,1.06,.97,1.78,.97Z"/>
      <path class="cls-1" d="M170.44,85.84v-.42l.46-.13c.22-.07,.37-.17,.44-.3,.07-.13,.11-.31,.13-.54v-5.33c0-.32,0-.7-.02-1.13,0-.24-.04-.42-.1-.56-.07-.13-.22-.23-.46-.28l-.44-.1v-.38l3.4-1.22,.25,.23,.15,1.41c.49-.45,1.04-.83,1.64-1.16,.6-.32,1.22-.48,1.85-.48,.7,0,1.25,.14,1.64,.42,.39,.28,.69,.71,.9,1.28,.53-.53,1.12-.95,1.76-1.25s1.28-.45,1.91-.45c.95,0,1.67,.24,2.14,.71,.48,.48,.71,1.22,.71,2.25v6.07c0,.45,.2,.73,.59,.84l.4,.11v.42h-4.72v-.42l.38-.11c.38-.13,.57-.41,.57-.86v-6.15c0-.6-.11-1.01-.33-1.23-.22-.22-.57-.33-1.06-.33-.38,0-.73,.08-1.07,.23-.34,.15-.71,.39-1.11,.71,.08,.42,.13,.9,.13,1.45v5.33c.01,.24,.06,.42,.14,.56,.08,.13,.23,.23,.45,.28l.36,.11v.42h-4.75v-.42l.44-.13c.22-.07,.38-.17,.45-.3,.08-.13,.12-.31,.12-.54v-6.13c0-.57-.1-.98-.32-1.22-.21-.24-.57-.36-1.07-.36-.64,0-1.34,.31-2.08,.92v6.8c0,.46,.2,.74,.59,.84l.36,.11v.42h-4.81Z"/>
      <path class="cls-1" d="M192.3,86.13c-.55,0-1.04-.1-1.49-.3-.45-.2-.8-.54-1.06-1.01-.26-.47-.38-1.09-.37-1.86l.06-5.27c0-.31-.05-.53-.15-.67-.1-.14-.27-.24-.52-.29l-.25-.08v-.38l3.59-.69,.23,.23-.11,2.96v4.77c0,.48,.13,.82,.39,1.04s.58,.33,.98,.33,.77-.06,1.1-.18,.67-.3,1.02-.54l.06-6.47c0-.32-.04-.55-.14-.67-.09-.13-.26-.22-.51-.29l-.23-.06v-.38l3.51-.73,.23,.23-.06,2.96v5.5c0,.29,.04,.53,.12,.7,.08,.17,.25,.3,.51,.39l.27,.08v.4l-3.55,.21-.19-1.32c-.48,.41-.99,.74-1.55,1.01-.56,.27-1.19,.4-1.89,.4Z"/>
      <path class="cls-1" d="M200.34,85.84v-.4l.34-.08c.46-.14,.69-.48,.69-1.03v-6.2c-.01-.29-.06-.52-.15-.68-.08-.16-.27-.27-.55-.33l-.34-.08v-.38l3.4-1.22,.25,.23,.15,1.3c.5-.45,1.07-.82,1.69-1.1,.62-.29,1.24-.43,1.84-.43,.92,0,1.63,.25,2.13,.76s.75,1.27,.75,2.31v5.84c0,.55,.25,.89,.76,1.03l.23,.06v.4h-4.83v-.4l.32-.08c.46-.15,.69-.5,.69-1.03v-6.24c0-.49-.1-.85-.31-1.07-.21-.22-.56-.34-1.05-.34-.69,0-1.4,.3-2.14,.9v6.76c0,.55,.25,.89,.74,1.03l.21,.06v.4h-4.81Z"/>
      <path class="cls-1" d="M216.81,86.13c-.83,0-1.57-.19-2.23-.56-.66-.37-1.17-.94-1.54-1.72s-.56-1.77-.56-2.97,.21-2.21,.63-3.01c.42-.8,.98-1.41,1.68-1.82,.7-.41,1.47-.61,2.31-.61,.5,0,.99,.06,1.45,.18,.46,.12,.87,.3,1.22,.54v-2.73c0-.29-.04-.51-.14-.64-.09-.13-.28-.23-.56-.3l-.42-.08v-.4l3.65-.9,.27,.19-.08,2.96v10.1c0,.27,.05,.49,.15,.66,.1,.17,.27,.3,.52,.37l.23,.06v.4l-3.49,.23-.19-.88c-.38,.29-.81,.53-1.3,.69s-1.03,.25-1.62,.25Zm1.16-.97c.6,0,1.17-.2,1.7-.59v-7.81c-.52-.32-1.08-.48-1.68-.48-.69,0-1.27,.36-1.76,1.08-.49,.72-.73,1.88-.73,3.48s.23,2.72,.69,3.36c.46,.64,1.06,.97,1.79,.97Z"/>
      <path class="cls-1" d="M117.43,123.84v-.82l1.05-.31c.55-.16,.97-.39,1.27-.7s.54-.74,.72-1.29l7.88-22.78h3.24l7.84,22.93c.21,.57,.44,1.01,.7,1.31,.26,.3,.68,.54,1.25,.72l.58,.16v.78h-9.91v-.78l.66-.19c.57-.18,.92-.47,1.03-.86,.12-.39,.08-.87-.1-1.44l-1.64-5.03h-8.62l-1.68,4.95c-.18,.57-.23,1.04-.16,1.4,.08,.36,.4,.65,.97,.86l.86,.27v.82h-5.97Zm6.36-9.44h7.88l-3.82-11.74-4.06,11.74Z"/>
      <path class="cls-1" d="M143.17,123.84v-.82l.78-.23c.55-.18,.9-.42,1.05-.72,.16-.3,.23-.72,.23-1.27v-19.73c0-.52-.08-.93-.23-1.23-.16-.3-.49-.54-1.01-.72l-.82-.23v-.82h9.67v.82l-.74,.23c-.49,.18-.83,.43-.99,.74-.17,.31-.25,.74-.25,1.29v21.53h5.73c.88,0,1.55-.22,1.99-.66,.44-.44,.86-1.08,1.25-1.91l1.44-3.24h1.09l-.39,6.98h-18.8Z"/>
      <path class="cls-1" d="M163.84,123.84v-.82l.78-.23c.55-.18,.9-.42,1.05-.72,.16-.3,.23-.72,.23-1.27v-19.73c0-.52-.08-.93-.23-1.23-.16-.3-.49-.54-1.01-.72l-.82-.23v-.82h9.67v.82l-.74,.23c-.49,.18-.83,.43-.99,.74-.17,.31-.25,.74-.25,1.29v21.53h5.73c.88,0,1.55-.22,1.99-.66,.44-.44,.86-1.08,1.25-1.91l1.44-3.24h1.09l-.39,6.98h-18.8Z"/>
      <path class="cls-1" d="M184.51,123.84v-.82l.78-.27c.47-.13,.79-.36,.97-.68s.29-.77,.31-1.35v-19.62c-.03-.55-.12-.97-.27-1.27-.16-.3-.48-.53-.97-.68l-.82-.27v-.82h18.56l.27,6.24h-1.09l-1.56-3.51c-.21-.49-.44-.88-.7-1.15-.26-.27-.65-.41-1.17-.41h-6.63c-.03,1.61-.04,3.27-.04,4.97v5.75h3.86c.52,0,.92-.14,1.19-.41,.27-.27,.53-.64,.76-1.11l.66-1.48h.86v7.21h-.86l-.7-1.48c-.21-.47-.44-.84-.7-1.13-.26-.29-.65-.43-1.17-.43h-3.9v4.84c0,1.35,0,2.55,.02,3.61s.02,2.09,.02,3.1h7.49c.52,0,.92-.14,1.21-.41,.29-.27,.52-.66,.7-1.15l1.44-3.51h1.09l-.27,6.24h-19.34Z"/>
      <path class="cls-1" d="M211.23,123.84v-.82l1.13-.27c.52-.13,.88-.35,1.09-.66,.21-.31,.32-.73,.35-1.25v-7.06l-6.28-12.83c-.26-.52-.51-.91-.74-1.17-.23-.26-.57-.47-1.01-.62l-.7-.27v-.82h10.33v.82l-.7,.23c-.57,.18-.88,.47-.94,.88-.05,.4,.06,.92,.35,1.54l4.45,9.83,4.8-10.1c.23-.47,.34-.92,.31-1.37-.03-.44-.3-.73-.82-.86l-.55-.16v-.82h5.11v.82l-.78,.23c-.52,.16-.89,.39-1.11,.7-.22,.31-.45,.73-.68,1.25l-5.42,11.27v8.5c0,1.07,.47,1.7,1.4,1.91l1.17,.27v.82h-10.76Z"/>
      <path class="cls-1" d="M229.05,123.84v-.82l1.13-.31c.49-.13,.84-.38,1.03-.74,.2-.36,.29-.81,.29-1.33v-18.88c-.23-.49-.44-.86-.6-1.11-.17-.25-.34-.46-.53-.64-.18-.18-.43-.39-.74-.62l-.7-.51v-.82h6.67l12.95,17.71v-14.47c0-.52-.08-.97-.25-1.37-.17-.39-.51-.65-1.03-.78l-1.17-.27v-.82h5.81v.82l-.97,.27c-.49,.16-.8,.42-.92,.8-.12,.38-.17,.83-.17,1.35v22.7h-2.18l-14.86-20.44v17.04c0,.55,.08,1,.23,1.37,.16,.36,.48,.61,.98,.74l1.05,.31v.82h-6.01Z"/>
    </g>
    <g>
      <path class="cls-1" d="M41.65,150.06h3c1.54,0,2.59,.85,2.59,2.34s-1.04,2.4-2.67,2.4h-2.25v3.66h-.66v-8.4Zm.66,4.14h2.31c1.35,0,1.92-.72,1.92-1.77,0-1.13-.74-1.76-1.87-1.76h-2.36v3.54Z"/>
      <path class="cls-1" d="M53.87,154.33h-4.28v3.53h4.69l-.1,.6h-5.24v-8.4h5.15v.6h-4.5v3.07h4.28v.6Z"/>
      <path class="cls-1" d="M56.59,150.06v8.4h-.65v-8.4h.65Z"/>
      <path class="cls-1" d="M59.06,158.45v-8.4h.96c1.31,2.01,4.38,6.7,4.91,7.62h.01c-.07-1.21-.06-2.45-.06-3.81v-3.8h.66v8.4h-.89c-1.25-1.94-4.37-6.82-4.97-7.75h-.01c.06,1.1,.05,2.33,.05,3.85v3.9h-.66Z"/>
      <path class="cls-1" d="M69.69,150.66h-2.82v-.6h6.31v.6h-2.83v7.8h-.66v-7.8Z"/>
      <path class="cls-1" d="M75.09,154.53v3.92h-.66v-8.4h3.01c1.66,0,2.53,.89,2.53,2.21,0,1.07-.64,1.76-1.57,1.97,.86,.2,1.44,.77,1.44,2.19v.32c0,.59-.05,1.38,.11,1.7h-.66c-.16-.36-.12-1.03-.12-1.75v-.22c0-1.38-.41-1.96-2.01-1.96h-2.06Zm0-.6h2.03c1.48,0,2.16-.55,2.16-1.66,0-1.03-.67-1.62-1.98-1.62h-2.21v3.27Z"/>
      <path class="cls-1" d="M86.95,154.33h-4.28v3.53h4.69l-.1,.6h-5.24v-8.4h5.15v.6h-4.5v3.07h4.28v.6Z"/>
      <path class="cls-1" d="M97.07,154.33h-4.28v3.53h4.69l-.1,.6h-5.24v-8.4h5.15v.6h-4.5v3.07h4.28v.6Z"/>
      <path class="cls-1" d="M101.25,150.66h-2.82v-.6h6.31v.6h-2.83v7.8h-.66v-7.8Z"/>
      <path class="cls-1" d="M109.97,155.55l-1.07,2.9h-.66l3.08-8.4h.77l3.21,8.4h-.71l-1.09-2.9h-3.54Zm3.32-.6c-.94-2.5-1.42-3.69-1.58-4.26h-.01c-.2,.64-.74,2.12-1.5,4.26h3.09Z"/>
      <path class="cls-1" d="M117.46,154.53v3.92h-.66v-8.4h3.01c1.66,0,2.53,.89,2.53,2.21,0,1.07-.64,1.76-1.57,1.97,.86,.2,1.44,.77,1.44,2.19v.32c0,.59-.05,1.38,.11,1.7h-.66c-.16-.36-.12-1.03-.12-1.75v-.22c0-1.38-.41-1.96-2.01-1.96h-2.06Zm0-.6h2.03c1.48,0,2.16-.55,2.16-1.66,0-1.03-.67-1.62-1.98-1.62h-2.21v3.27Z"/>
      <path class="cls-1" d="M126.15,150.66h-2.82v-.6h6.31v.6h-2.83v7.8h-.66v-7.8Z"/>
      <path class="cls-1" d="M131.54,150.06v8.4h-.65v-8.4h.65Z"/>
      <path class="cls-1" d="M133.95,156.2c.25,1.12,1,1.78,2.37,1.78,1.54,0,2.12-.77,2.12-1.68s-.42-1.54-2.27-1.99c-1.78-.44-2.54-1.02-2.54-2.23,0-1.1,.8-2.13,2.6-2.13s2.63,1.13,2.73,2.15h-.67c-.19-.9-.78-1.55-2.1-1.55-1.21,0-1.87,.56-1.87,1.5s.55,1.28,2.1,1.67c2.36,.59,2.71,1.54,2.71,2.54,0,1.24-.9,2.3-2.84,2.3-2.1,0-2.87-1.22-3.02-2.35h.67Z"/>
      <path class="cls-1" d="M142.65,150.66h-2.82v-.6h6.31v.6h-2.83v7.8h-.66v-7.8Z"/>
      <path class="cls-1" d="M152.32,154.33h-4.28v3.53h4.69l-.1,.6h-5.24v-8.4h5.15v.6h-4.5v3.07h4.28v.6Z"/>
      <path class="cls-1" d="M157.5,150.06h3c1.54,0,2.59,.85,2.59,2.34s-1.04,2.4-2.67,2.4h-2.25v3.66h-.66v-8.4Zm.66,4.14h2.31c1.35,0,1.92-.72,1.92-1.77,0-1.13-.74-1.76-1.87-1.76h-2.36v3.54Z"/>
      <path class="cls-1" d="M171.97,154.19c0,2.29-1.22,4.38-3.81,4.38-2.36,0-3.74-1.91-3.74-4.32s1.33-4.32,3.83-4.32c2.3,0,3.73,1.81,3.73,4.26Zm-6.86,.02c0,1.93,1.07,3.75,3.08,3.75,2.17,0,3.08-1.78,3.08-3.77s-1.03-3.67-3.06-3.67c-2.16,0-3.11,1.79-3.11,3.68Z"/>
      <path class="cls-1" d="M173.82,150.06h.65v7.8h4.51l-.12,.6h-5.04v-8.4Z"/>
      <path class="cls-1" d="M181.01,158.45v-3.15c0-.07-.02-.16-.05-.19l-3-5.05h.76c.84,1.43,2.3,3.91,2.66,4.53,.36-.62,1.83-3.08,2.73-4.53h.72l-3.13,5.1s-.04,.1-.04,.18v3.12h-.66Z"/>
      <path class="cls-1" d="M188.31,158.45l-3.12-8.4h.7l1.63,4.39c.47,1.27,1,2.67,1.17,3.38h.02c.18-.62,.76-2.1,1.22-3.33l1.69-4.44h.68l-3.24,8.4h-.77Z"/>
      <path class="cls-1" d="M193.72,155.55l-1.07,2.9h-.66l3.08-8.4h.77l3.21,8.4h-.71l-1.09-2.9h-3.54Zm3.32-.6c-.94-2.5-1.42-3.69-1.58-4.26h-.01c-.2,.64-.74,2.12-1.5,4.26h3.09Z"/>
      <path class="cls-1" d="M200.55,150.06h.65v7.8h4.51l-.12,.6h-5.04v-8.4Z"/>
      <path class="cls-1" d="M211.93,154.33h-4.28v3.53h4.69l-.1,.6h-5.24v-8.4h5.15v.6h-4.5v3.07h4.28v.6Z"/>
      <path class="cls-1" d="M214,158.45v-8.4h.96c1.31,2.01,4.38,6.7,4.91,7.62h.01c-.07-1.21-.06-2.45-.06-3.81v-3.8h.66v8.4h-.89c-1.25-1.94-4.37-6.82-4.97-7.75h-.01c.06,1.1,.05,2.33,.05,3.85v3.9h-.66Z"/>
      <path class="cls-1" d="M224.63,150.66h-2.82v-.6h6.31v.6h-2.83v7.8h-.66v-7.8Z"/>
      <path class="cls-1" d="M238.82,156.21c-.4,1.33-1.38,2.34-3.15,2.34-2.41,0-3.68-1.92-3.68-4.28s1.25-4.33,3.69-4.33c1.81,0,2.88,1.01,3.15,2.41h-.65c-.38-1.09-1.09-1.81-2.54-1.81-2.09,0-2.96,1.91-2.96,3.72s.86,3.69,3.01,3.69c1.37,0,2.06-.71,2.48-1.74h.65Z"/>
      <path class="cls-1" d="M241.3,154.53v3.92h-.66v-8.4h3.01c1.66,0,2.53,.89,2.53,2.21,0,1.07-.64,1.76-1.57,1.97,.86,.2,1.44,.77,1.44,2.19v.32c0,.59-.05,1.38,.11,1.7h-.66c-.16-.36-.12-1.03-.12-1.75v-.22c0-1.38-.41-1.96-2.01-1.96h-2.06Zm0-.6h2.03c1.47,0,2.16-.55,2.16-1.66,0-1.03-.67-1.62-1.98-1.62h-2.21v3.27Z"/>
      <path class="cls-1" d="M253.16,154.33h-4.28v3.53h4.69l-.1,.6h-5.24v-8.4h5.14v.6h-4.5v3.07h4.28v.6Z"/>
      <path class="cls-1" d="M256.27,155.55l-1.07,2.9h-.66l3.08-8.4h.77l3.21,8.4h-.71l-1.09-2.9h-3.54Zm3.32-.6c-.94-2.5-1.42-3.69-1.58-4.26h-.01c-.2,.64-.74,2.12-1.5,4.26h3.09Z"/>
      <path class="cls-1" d="M263.76,150.66h-2.82v-.6h6.31v.6h-2.83v7.8h-.66v-7.8Z"/>
      <path class="cls-1" d="M273.43,154.33h-4.28v3.53h4.69l-.1,.6h-5.24v-8.4h5.15v.6h-4.5v3.07h4.28v.6Z"/>
      <path class="cls-1" d="M276.07,150.06v5.08c0,2.23,1.26,2.81,2.45,2.81,1.4,0,2.45-.59,2.45-2.81v-5.08h.66v5.05c0,2.63-1.39,3.44-3.13,3.44s-3.09-.9-3.09-3.33v-5.16h.67Z"/>
      <path class="cls-1" d="M284.64,154.53v3.92h-.66v-8.4h3.01c1.66,0,2.53,.89,2.53,2.21,0,1.07-.64,1.76-1.57,1.97,.86,.2,1.44,.77,1.44,2.19v.32c0,.59-.05,1.38,.11,1.7h-.66c-.16-.36-.12-1.03-.12-1.75v-.22c0-1.38-.41-1.96-2.01-1.96h-2.06Zm0-.6h2.03c1.48,0,2.16-.55,2.16-1.66,0-1.03-.67-1.62-1.98-1.62h-2.21v3.27Z"/>
      <path class="cls-1" d="M294.64,150.06h2.78c2.3,0,3.9,1.61,3.9,4.13s-1.56,4.27-3.91,4.27h-2.77v-8.4Zm.65,7.8h2.03c2.22,0,3.31-1.56,3.31-3.63,0-1.85-.98-3.56-3.31-3.56h-2.03v7.2Z"/>
      <path class="cls-1" d="M302.59,152.52c.32-.95,.52-2.28,.54-2.9h.61c-.06,.9-.37,2.28-.62,2.9h-.53Z"/>
      <path class="cls-1" d="M306.09,150.06v5.08c0,2.23,1.26,2.81,2.45,2.81,1.4,0,2.45-.59,2.45-2.81v-5.08h.66v5.05c0,2.63-1.39,3.44-3.13,3.44s-3.09-.9-3.09-3.33v-5.16h.67Z"/>
      <path class="cls-1" d="M313.99,158.45v-8.4h.96c1.31,2.01,4.38,6.7,4.91,7.62h.01c-.07-1.21-.06-2.45-.06-3.81v-3.8h.66v8.4h-.89c-1.25-1.94-4.37-6.82-4.97-7.75h-.01c.06,1.1,.05,2.33,.05,3.85v3.9h-.66Z"/>
      <path class="cls-1" d="M327.87,154.33h-4.28v3.53h4.69l-.1,.6h-5.24v-8.4h5.14v.6h-4.5v3.07h4.28v.6Z"/>
      <path class="cls-1" d="M51.9,166.19c0,2.29-1.22,4.38-3.81,4.38-2.36,0-3.74-1.91-3.74-4.32s1.33-4.32,3.83-4.32c2.3,0,3.73,1.81,3.73,4.26Zm-6.86,.02c0,1.93,1.07,3.75,3.08,3.75,2.17,0,3.08-1.78,3.08-3.77s-1.03-3.67-3.06-3.67c-2.16,0-3.11,1.79-3.11,3.68Z"/>
      <path class="cls-1" d="M58.68,166.33h-4.28v3.53h4.69l-.1,.6h-5.24v-8.4h5.15v.6h-4.5v3.07h4.28v.6Z"/>
      <path class="cls-1" d="M61.33,162.06v5.08c0,2.23,1.26,2.81,2.45,2.81,1.4,0,2.45-.59,2.45-2.81v-5.08h.66v5.05c0,2.63-1.39,3.44-3.13,3.44s-3.09-.9-3.09-3.33v-5.16h.67Z"/>
      <path class="cls-1" d="M71.42,170.45l-3.12-8.4h.7l1.63,4.39c.47,1.27,1,2.67,1.18,3.38h.02c.18-.62,.76-2.1,1.22-3.33l1.69-4.44h.68l-3.24,8.4h-.77Z"/>
      <path class="cls-1" d="M77.51,166.53v3.92h-.66v-8.4h3.01c1.66,0,2.53,.89,2.53,2.21,0,1.07-.64,1.76-1.57,1.97,.86,.2,1.44,.77,1.44,2.19v.32c0,.59-.05,1.38,.11,1.7h-.66c-.16-.36-.12-1.03-.12-1.75v-.22c0-1.38-.41-1.96-2.01-1.96h-2.06Zm0-.6h2.03c1.48,0,2.16-.55,2.16-1.66,0-1.03-.67-1.62-1.98-1.62h-2.21v3.27Z"/>
      <path class="cls-1" d="M89.38,166.33h-4.28v3.53h4.69l-.1,.6h-5.24v-8.4h5.15v.6h-4.5v3.07h4.28v.6Z"/>
      <path class="cls-1" d="M101.62,166.19c0,2.29-1.22,4.38-3.81,4.38-2.36,0-3.74-1.91-3.74-4.32s1.33-4.32,3.83-4.32c2.3,0,3.73,1.81,3.73,4.26Zm-6.86,.02c0,1.93,1.07,3.75,3.08,3.75,2.17,0,3.08-1.78,3.08-3.77s-1.03-3.67-3.06-3.67c-2.16,0-3.11,1.79-3.11,3.68Z"/>
      <path class="cls-1" d="M104.13,166.53v3.92h-.66v-8.4h3.01c1.66,0,2.53,.89,2.53,2.21,0,1.07-.64,1.76-1.57,1.97,.86,.2,1.44,.77,1.44,2.19v.32c0,.59-.05,1.38,.11,1.7h-.66c-.16-.36-.12-1.03-.12-1.75v-.22c0-1.38-.41-1.96-2.01-1.96h-2.06Zm0-.6h2.03c1.48,0,2.16-.55,2.16-1.66,0-1.03-.67-1.62-1.98-1.62h-2.21v3.27Z"/>
      <path class="cls-1" d="M111.71,162.06v8.4h-.65v-8.4h.65Z"/>
      <path class="cls-1" d="M120.54,170.45h-.54c-.05-.1-.07-.53-.08-1.34-.3,.58-.96,1.44-2.71,1.44-2.41,0-3.65-1.83-3.65-4.22,0-2.51,1.32-4.39,3.78-4.39,1.81,0,3.01,.95,3.27,2.5h-.65c-.36-1.19-1.19-1.9-2.65-1.9-2.1,0-3.06,1.63-3.06,3.75,0,1.92,.92,3.66,2.97,3.66s2.69-1.37,2.69-3.23v-.1h-2.71v-.6h3.33v4.43Z"/>
      <path class="cls-1" d="M123.36,162.06v8.4h-.65v-8.4h.65Z"/>
      <path class="cls-1" d="M125.84,170.45v-8.4h.96c1.31,2.01,4.38,6.7,4.91,7.62h.01c-.07-1.21-.06-2.45-.06-3.81v-3.8h.66v8.4h-.89c-1.25-1.94-4.37-6.82-4.97-7.75h-.01c.06,1.1,.05,2.33,.05,3.85v3.9h-.66Z"/>
      <path class="cls-1" d="M135.57,167.55l-1.07,2.9h-.66l3.08-8.4h.77l3.21,8.4h-.71l-1.09-2.9h-3.54Zm3.32-.6c-.94-2.5-1.42-3.69-1.58-4.26h-.01c-.2,.64-.74,2.12-1.5,4.26h3.09Z"/>
      <path class="cls-1" d="M142.4,162.06h.65v7.8h4.51l-.12,.6h-5.04v-8.4Z"/>
      <path class="cls-1" d="M153.78,166.33h-4.28v3.53h4.69l-.1,.6h-5.24v-8.4h5.15v.6h-4.5v3.07h4.28v.6Z"/>
      <path class="cls-1" d="M163.9,166.33h-4.28v3.53h4.69l-.1,.6h-5.24v-8.4h5.15v.6h-4.5v3.07h4.28v.6Z"/>
      <path class="cls-1" d="M168.07,162.66h-2.82v-.6h6.31v.6h-2.83v7.8h-.66v-7.8Z"/>
      <path class="cls-1" d="M180.86,166.33h-4.28v3.53h4.69l-.1,.6h-5.24v-8.4h5.15v.6h-4.5v3.07h4.28v.6Z"/>
      <path class="cls-1" d="M182.93,170.45v-8.4h.96c1.31,2.01,4.38,6.7,4.91,7.62h.01c-.07-1.21-.06-2.45-.06-3.81v-3.8h.66v8.4h-.89c-1.25-1.94-4.37-6.82-4.96-7.75h-.01c.06,1.1,.05,2.33,.05,3.85v3.9h-.66Z"/>
      <path class="cls-1" d="M201.21,168.21c-.4,1.33-1.38,2.34-3.15,2.34-2.41,0-3.68-1.92-3.68-4.28s1.25-4.33,3.69-4.33c1.81,0,2.88,1.01,3.15,2.41h-.65c-.38-1.09-1.09-1.81-2.54-1.81-2.09,0-2.96,1.91-2.96,3.72s.86,3.69,3.01,3.69c1.37,0,2.06-.71,2.48-1.74h.65Z"/>
      <path class="cls-1" d="M210.09,166.19c0,2.29-1.22,4.38-3.81,4.38-2.36,0-3.74-1.91-3.74-4.32s1.33-4.32,3.83-4.32c2.3,0,3.73,1.81,3.73,4.26Zm-6.86,.02c0,1.93,1.07,3.75,3.08,3.75,2.17,0,3.08-1.78,3.08-3.77s-1.03-3.67-3.06-3.67c-2.16,0-3.11,1.79-3.11,3.68Z"/>
      <path class="cls-1" d="M211.95,170.45v-8.4h.96c1.31,2.01,4.38,6.7,4.91,7.62h.01c-.07-1.21-.06-2.45-.06-3.81v-3.8h.66v8.4h-.89c-1.25-1.94-4.37-6.82-4.96-7.75h-.01c.06,1.1,.05,2.33,.05,3.85v3.9h-.66Z"/>
      <path class="cls-1" d="M220.84,168.2c.25,1.12,1,1.78,2.38,1.78,1.54,0,2.12-.77,2.12-1.68s-.42-1.54-2.27-1.99c-1.78-.44-2.54-1.02-2.54-2.23,0-1.1,.8-2.13,2.6-2.13s2.63,1.13,2.73,2.15h-.67c-.19-.9-.78-1.55-2.1-1.55-1.21,0-1.87,.56-1.87,1.5s.55,1.28,2.1,1.67c2.36,.59,2.71,1.54,2.71,2.54,0,1.24-.9,2.3-2.84,2.3-2.1,0-2.87-1.22-3.02-2.35h.67Z"/>
      <path class="cls-1" d="M229.54,162.66h-2.82v-.6h6.31v.6h-2.83v7.8h-.66v-7.8Z"/>
      <path class="cls-1" d="M234.19,167.55l-1.07,2.9h-.66l3.08-8.4h.77l3.21,8.4h-.71l-1.09-2.9h-3.54Zm3.32-.6c-.93-2.5-1.42-3.69-1.58-4.26h-.01c-.2,.64-.74,2.12-1.5,4.26h3.09Z"/>
      <path class="cls-1" d="M241.02,170.45v-8.4h.96c1.31,2.01,4.38,6.7,4.91,7.62h.01c-.07-1.21-.06-2.45-.06-3.81v-3.8h.66v8.4h-.89c-1.25-1.94-4.37-6.82-4.96-7.75h-.01c.06,1.1,.05,2.33,.05,3.85v3.9h-.66Z"/>
      <path class="cls-1" d="M251.65,162.66h-2.82v-.6h6.31v.6h-2.83v7.8h-.66v-7.8Z"/>
      <path class="cls-1" d="M261.32,166.33h-4.28v3.53h4.69l-.1,.6h-5.24v-8.4h5.15v.6h-4.5v3.07h4.28v.6Z"/>
      <path class="cls-1" d="M273.78,166.59c0-1.64,.01-3.21,.05-4.05h-.04c-.34,1.13-2.04,5.27-3.11,7.92h-.64c-.8-2.05-2.57-6.66-2.95-7.93h-.02c.06,.96,.08,2.91,.08,4.35v3.57h-.65v-8.4h.97c1.15,2.88,2.6,6.64,2.91,7.59h.02c.19-.61,1.87-4.8,3.05-7.59h.96v8.4h-.65v-3.86Z"/>
      <path class="cls-1" d="M277.52,162.06v5.08c0,2.23,1.26,2.81,2.45,2.81,1.4,0,2.45-.59,2.45-2.81v-5.08h.66v5.05c0,2.63-1.39,3.44-3.13,3.44s-3.09-.9-3.09-3.33v-5.16h.67Z"/>
      <path class="cls-1" d="M287.2,162.66h-2.82v-.6h6.31v.6h-2.83v7.8h-.66v-7.8Z"/>
      <path class="cls-1" d="M291.85,167.55l-1.07,2.9h-.66l3.08-8.4h.77l3.21,8.4h-.71l-1.09-2.9h-3.54Zm3.32-.6c-.94-2.5-1.42-3.69-1.58-4.26h-.01c-.2,.64-.74,2.12-1.5,4.26h3.09Z"/>
      <path class="cls-1" d="M299.34,162.66h-2.82v-.6h6.31v.6h-2.83v7.8h-.66v-7.8Z"/>
      <path class="cls-1" d="M304.73,162.06v8.4h-.65v-8.4h.65Z"/>
      <path class="cls-1" d="M314.13,166.19c0,2.29-1.22,4.38-3.81,4.38-2.36,0-3.74-1.91-3.74-4.32s1.33-4.32,3.83-4.32c2.3,0,3.73,1.81,3.73,4.26Zm-6.86,.02c0,1.93,1.07,3.75,3.08,3.75,2.17,0,3.08-1.78,3.08-3.77s-1.03-3.67-3.06-3.67c-2.16,0-3.11,1.79-3.11,3.68Z"/>
      <path class="cls-1" d="M315.98,170.45v-8.4h.96c1.31,2.01,4.38,6.7,4.91,7.62h.01c-.07-1.21-.06-2.45-.06-3.81v-3.8h.66v8.4h-.89c-1.25-1.94-4.37-6.82-4.96-7.75h-.01c.06,1.1,.05,2.33,.05,3.85v3.9h-.66Z"/>
      <path class="cls-1" d="M324.24,170.45v-1.55h.6v1.55h-.6Z"/>
    </g>
    <g>
      <path class="cls-1" d="M148.91,144.05c-1.17-.95-2.08-2.04-2.72-3.26-.64-1.22-.96-2.56-.96-4.01s.32-2.79,.96-4.02c.64-1.23,1.55-2.31,2.72-3.25l.32,.29c-.59,.79-1.05,1.55-1.38,2.28s-.57,1.47-.71,2.23c-.14,.76-.21,1.58-.21,2.46s.07,1.7,.21,2.46c.14,.77,.38,1.52,.71,2.25s.8,1.5,1.38,2.3l-.32,.26Z"/>
      <path class="cls-1" d="M150.33,141.24v-.3l.62-.19c.41-.13,.61-.39,.62-.8v-7.62l-1.33,.18v-.37c.6-.11,1.18-.26,1.75-.47s1.11-.46,1.62-.76l.19,.16-.06,2.29v4.54c0,.28,0,.6,0,.97,0,.37,0,.72,0,1.06,0,.42,.2,.69,.61,.82l.66,.19v.3h-4.7Z"/>
      <path class="cls-1" d="M163.33,135.09c0,1.08-.25,2.06-.74,2.94-.49,.89-1.21,1.63-2.16,2.23s-2.12,1.03-3.5,1.29l-.11-.42c.93-.23,1.68-.54,2.26-.93,.58-.38,1.03-.86,1.34-1.42s.52-1.24,.62-2.02c-.25,.16-.53,.29-.86,.38s-.7,.14-1.11,.14c-.59,0-1.12-.12-1.6-.36-.48-.24-.86-.59-1.14-1.05-.28-.46-.42-1.01-.42-1.66,0-.69,.17-1.29,.5-1.79,.33-.5,.78-.89,1.34-1.17,.56-.28,1.17-.42,1.83-.42,1.21,0,2.13,.38,2.78,1.14,.64,.76,.97,1.8,.97,3.12Zm-5.25-1.09c0,.92,.14,1.58,.42,2s.72,.62,1.33,.62c.48,0,.9-.1,1.26-.29,.03-.39,.05-.83,.05-1.3,0-.95-.05-1.7-.15-2.24-.1-.54-.26-.93-.49-1.16-.22-.23-.52-.34-.9-.34-.49,0-.87,.21-1.13,.63-.26,.42-.39,1.11-.39,2.07Z"/>
      <path class="cls-1" d="M167.87,141.46c-.68,0-1.25-.07-1.71-.22-.46-.15-.91-.34-1.34-.58l.16-2.08h.46l.56,1.25c.36,.79,.96,1.18,1.79,1.18,.5,0,.91-.2,1.23-.59,.32-.39,.48-1.05,.48-1.97,0-.82-.14-1.41-.43-1.76-.29-.35-.75-.53-1.38-.53h-.94v-.48h.85c.57,0,.99-.17,1.26-.5s.42-.91,.42-1.72c0-.77-.13-1.32-.38-1.65s-.58-.5-.98-.5-.71,.1-.95,.3c-.24,.2-.43,.47-.58,.82l-.61,1.3-.48-.02,.16-2.34c.34-.16,.72-.29,1.15-.39s.9-.15,1.42-.15c1.1,0,1.94,.24,2.51,.72,.58,.48,.86,1.09,.86,1.82,0,.52-.21,1.02-.63,1.49-.42,.47-1.07,.81-1.96,1.01,1.01,.1,1.75,.39,2.22,.87s.7,1.07,.7,1.75c0,.57-.15,1.07-.46,1.52s-.75,.8-1.33,1.06-1.26,.38-2.06,.38Z"/>
      <path class="cls-1" d="M172.75,141.24v-.3l.62-.19c.41-.13,.61-.39,.62-.8v-7.62l-1.33,.18v-.37c.6-.11,1.18-.26,1.75-.47s1.11-.46,1.62-.76l.19,.16-.06,2.29v4.54c0,.28,0,.6,0,.97,0,.37,0,.72,0,1.06,0,.42,.2,.69,.61,.82l.66,.19v.3h-4.7Z"/>
      <path class="cls-1" d="M178.46,137.53v-.67h4v.67h-4Z"/>
      <path class="cls-1" d="M184.17,133.73l.11-2.26c.32-.18,.72-.33,1.21-.46s1.02-.18,1.61-.18c1.24,0,2.13,.26,2.69,.78,.55,.52,.83,1.18,.83,1.97,0,.74-.33,1.45-.99,2.14-.66,.69-1.61,1.49-2.85,2.4-.23,.17-.5,.38-.81,.62-.3,.24-.6,.48-.89,.73h5.82v1.76h-6.98v-1.3c.79-.77,1.52-1.5,2.19-2.19,.78-.8,1.35-1.51,1.73-2.14,.37-.62,.56-1.28,.56-1.98s-.13-1.27-.4-1.7c-.27-.43-.66-.64-1.17-.64-.34,0-.64,.08-.9,.24-.26,.16-.48,.43-.65,.82l-.62,1.38h-.5Z"/>
      <path class="cls-1" d="M195.53,141.46c-.63,0-1.22-.18-1.78-.54-.55-.36-1-.93-1.34-1.7-.34-.78-.51-1.8-.51-3.06s.17-2.29,.51-3.07c.34-.78,.79-1.35,1.34-1.71,.55-.36,1.15-.54,1.78-.54s1.22,.18,1.78,.54c.55,.36,1,.93,1.34,1.71,.34,.78,.51,1.8,.51,3.07s-.17,2.28-.51,3.06c-.34,.78-.79,1.35-1.34,1.7-.55,.36-1.15,.54-1.78,.54Zm0-.45c.28,0,.51-.07,.7-.21,.19-.14,.35-.38,.47-.73,.12-.35,.21-.84,.27-1.47s.09-1.45,.09-2.44-.03-1.82-.09-2.46c-.06-.63-.15-1.13-.27-1.48-.12-.35-.28-.6-.47-.74-.19-.14-.43-.21-.7-.21s-.5,.07-.7,.2c-.2,.13-.36,.38-.47,.73-.12,.35-.21,.85-.26,1.49s-.09,1.46-.09,2.46,.03,1.81,.09,2.44,.15,1.13,.26,1.48c.12,.35,.27,.59,.47,.73,.2,.13,.43,.2,.7,.2Z"/>
      <path class="cls-1" d="M203.5,141.46c-.63,0-1.22-.18-1.78-.54-.55-.36-1-.93-1.34-1.7-.34-.78-.51-1.8-.51-3.06s.17-2.29,.51-3.07c.34-.78,.79-1.35,1.34-1.71,.55-.36,1.15-.54,1.78-.54s1.22,.18,1.78,.54c.55,.36,1,.93,1.34,1.71,.34,.78,.51,1.8,.51,3.07s-.17,2.28-.51,3.06c-.34,.78-.79,1.35-1.34,1.7-.55,.36-1.15,.54-1.78,.54Zm0-.45c.28,0,.51-.07,.7-.21,.19-.14,.35-.38,.47-.73,.12-.35,.21-.84,.27-1.47s.09-1.45,.09-2.44-.03-1.82-.09-2.46c-.06-.63-.15-1.13-.27-1.48-.12-.35-.28-.6-.47-.74-.19-.14-.43-.21-.7-.21s-.5,.07-.7,.2c-.2,.13-.36,.38-.47,.73-.12,.35-.21,.85-.26,1.49s-.09,1.46-.09,2.46,.03,1.81,.09,2.44,.15,1.13,.26,1.48c.12,.35,.27,.59,.47,.73,.2,.13,.43,.2,.7,.2Z"/>
      <path class="cls-1" d="M212.11,141.24v-2.61h-4.22v-.98l4.69-6.7h1.49v6.45h1.54v1.23h-1.54v2.61h-1.95Zm-3.38-3.84h3.38v-4.83l-3.38,4.83Z"/>
      <path class="cls-1" d="M216.99,129.53c1.17,.95,2.08,2.03,2.72,3.26s.96,2.56,.96,4.01-.32,2.79-.96,4.02-1.55,2.31-2.72,3.25l-.32-.29c.59-.79,1.05-1.55,1.38-2.28s.57-1.47,.71-2.23c.14-.76,.21-1.58,.21-2.46s-.07-1.7-.21-2.46c-.14-.77-.38-1.52-.71-2.25s-.8-1.5-1.38-2.3l.32-.26Z"/>
    </g>
    <g>
      <path class="cls-1" d="M172.02,239.85l.11-2.26c.32-.18,.72-.33,1.21-.46s1.02-.18,1.61-.18c1.24,0,2.13,.26,2.69,.78,.55,.52,.83,1.18,.83,1.97,0,.74-.33,1.45-.99,2.14s-1.61,1.49-2.85,2.4c-.23,.17-.5,.38-.81,.62-.3,.24-.6,.48-.89,.73h5.82v1.76h-6.98v-1.3c.79-.77,1.52-1.5,2.19-2.19,.78-.8,1.35-1.51,1.73-2.14s.56-1.28,.56-1.98-.13-1.27-.4-1.7-.66-.64-1.17-.64c-.34,0-.64,.08-.9,.24s-.48,.43-.65,.82l-.62,1.38h-.5Z"/>
      <path class="cls-1" d="M183.38,247.58c-.63,0-1.22-.18-1.78-.54-.55-.36-1-.93-1.34-1.7-.34-.78-.51-1.8-.51-3.06s.17-2.29,.51-3.07c.34-.78,.79-1.35,1.34-1.71,.55-.36,1.15-.54,1.78-.54s1.22,.18,1.78,.54c.55,.36,1,.93,1.34,1.71,.34,.78,.51,1.8,.51,3.07s-.17,2.28-.51,3.06c-.34,.78-.79,1.35-1.34,1.7-.55,.36-1.15,.54-1.78,.54Zm0-.45c.28,0,.51-.07,.7-.21,.19-.14,.35-.38,.47-.73s.21-.84,.27-1.47c.06-.63,.09-1.45,.09-2.44s-.03-1.82-.09-2.46c-.06-.63-.15-1.13-.27-1.48-.12-.35-.28-.6-.47-.74-.19-.14-.43-.21-.7-.21s-.5,.07-.7,.2c-.2,.13-.35,.38-.47,.73-.12,.35-.21,.85-.26,1.49s-.09,1.46-.09,2.46,.03,1.81,.09,2.44,.15,1.13,.26,1.48c.12,.35,.27,.59,.47,.73s.43,.2,.7,.2Z"/>
      <path class="cls-1" d="M187.83,247.35v-.3l.62-.19c.41-.13,.61-.39,.62-.8v-7.62l-1.33,.18v-.37c.6-.11,1.18-.26,1.75-.47,.57-.21,1.11-.46,1.62-.76l.19,.16-.06,2.29v4.54c0,.28,0,.6,0,.97,0,.37,0,.72,0,1.06,0,.42,.2,.69,.61,.82l.66,.19v.3h-4.7Z"/>
      <path class="cls-1" d="M196.88,247.58c-.63,0-1.22-.18-1.78-.54-.55-.36-1-.93-1.34-1.7-.34-.78-.51-1.8-.51-3.06s.17-2.29,.51-3.07c.34-.78,.79-1.35,1.34-1.71,.55-.36,1.15-.54,1.78-.54s1.22,.18,1.78,.54c.55,.36,1,.93,1.34,1.71,.34,.78,.51,1.8,.51,3.07s-.17,2.28-.51,3.06c-.34,.78-.79,1.35-1.34,1.7-.55,.36-1.15,.54-1.78,.54Zm0-.45c.28,0,.51-.07,.7-.21,.19-.14,.35-.38,.47-.73,.12-.35,.21-.84,.27-1.47s.09-1.45,.09-2.44-.03-1.82-.09-2.46c-.06-.63-.15-1.13-.27-1.48-.12-.35-.28-.6-.47-.74-.19-.14-.43-.21-.7-.21s-.5,.07-.7,.2c-.2,.13-.36,.38-.47,.73-.12,.35-.21,.85-.26,1.49s-.09,1.46-.09,2.46,.03,1.81,.09,2.44,.15,1.13,.26,1.48c.12,.35,.27,.59,.47,.73,.2,.13,.43,.2,.7,.2Z"/>
    </g>
  </g>
</svg>