<svg width="194" height="131" viewBox="0 0 194 131" fill="none" xmlns="http://www.w3.org/2000/svg">
<path opacity="0.6" d="M36.95 123.87C36.95 123.87 40.95 103.48 55.54 95.47C69.81 87.63 92.28 82.87 105.82 89.33C106.39 89.6 106.97 89.84 107.56 90.07C111.44 91.54 154.26 112 171.7 125.1" stroke="#575756" stroke-width="4" stroke-miterlimit="10"/>
<path opacity="0.6" d="M7.93001 123.87C7.93001 123.87 54.8 83.75 49.88 70.54C44.96 57.33 35.47 50.32 35.47 50.32C35.47 50.32 28.17 44.09 28.66 37.54C29.15 30.99 45.99 4.20996 45.99 4.20996" stroke="#575756" stroke-width="6" stroke-miterlimit="10"/>
<path opacity="0.6" d="M51.63 77.8499C51.63 77.8499 75.81 66.2199 76.71 54.1799C77.39 45.1099 84.03 37.8999 87.26 34.8899C88.24 33.9799 89.28 33.2499 90.36 32.7099C94.67 30.5499 107.95 23.5699 109.92 18.6299C112.28 12.7299 113.04 5.81995 113.04 5.81995" stroke="#575756" stroke-width="4" stroke-miterlimit="10"/>
<path opacity="0.6" d="M127.53 3.58997C127.53 3.58997 130.35 26.92 146.18 48.68C153.86 59.24 162.08 67.59 168.45 75.73C175.21 84.37 179.9 92.78 179.68 103.34C179.25 123.86 175.15 127.11 175.15 127.11" stroke="#575756" stroke-width="4" stroke-miterlimit="10"/>
<path opacity="0.6" d="M187.3 16.3101C186.21 27.7801 180.34 56.5301 180.34 56.5301C180.34 56.5301 177.15 72.2401 171.96 77.6201" stroke="#575756" stroke-width="4" stroke-miterlimit="10"/>
<path d="M63.76 9.90002C63.18 9.79002 62.58 9.79002 61.99 9.91002C60.48 10.22 57.75 11.34 57.67 15.37C57.65 16.25 57.86 17.11 58.26 17.9L62.48 26.13C62.69 26.54 63.27 26.54 63.48 26.13L67.86 17.79C68.24 17.06 68.44 16.25 68.41 15.43C68.35 13.59 67.64 10.62 63.76 9.90002ZM62.97 17.97C61.57 17.97 60.44 16.84 60.44 15.44C60.44 14.04 61.57 12.91 62.97 12.91C64.37 12.91 65.5 14.04 65.5 15.44C65.5 16.84 64.37 17.97 62.97 17.97Z" fill="#575756" stroke="#575756" stroke-width="0.75" stroke-miterlimit="10"/>
<path d="M61.3 100.33C60.72 100.22 60.12 100.22 59.53 100.34C58.02 100.65 55.29 101.77 55.21 105.8C55.19 106.68 55.4 107.54 55.8 108.33L60.02 116.56C60.23 116.97 60.81 116.97 61.02 116.56L65.4 108.22C65.78 107.49 65.98 106.68 65.95 105.86C65.89 104.02 65.18 101.05 61.3 100.33ZM60.51 108.4C59.11 108.4 57.98 107.27 57.98 105.87C57.98 104.47 59.11 103.34 60.51 103.34C61.91 103.34 63.04 104.47 63.04 105.87C63.04 107.27 61.91 108.4 60.51 108.4Z" fill="#575756" stroke="#575756" stroke-miterlimit="10"/>
<path d="M139.88 62.05C139.3 61.94 138.7 61.94 138.11 62.06C136.6 62.37 133.87 63.49 133.79 67.52C133.77 68.4 133.98 69.26 134.38 70.05L138.6 78.28C138.81 78.69 139.39 78.69 139.6 78.28L143.98 69.94C144.36 69.21 144.56 68.4 144.53 67.58C144.47 65.74 143.76 62.77 139.88 62.05ZM139.09 70.12C137.69 70.12 136.56 68.99 136.56 67.59C136.56 66.19 137.69 65.06 139.09 65.06C140.49 65.06 141.62 66.19 141.62 67.59C141.62 68.99 140.49 70.12 139.09 70.12Z" fill="#575756" stroke="#575756" stroke-width="0.75" stroke-miterlimit="10"/>
<path d="M152.27 73.84C151.69 73.73 151.09 73.73 150.5 73.85C148.99 74.16 146.26 75.28 146.18 79.31C146.16 80.19 146.37 81.05 146.77 81.84L150.99 90.07C151.2 90.48 151.78 90.48 151.99 90.07L156.37 81.73C156.75 81 156.95 80.19 156.92 79.37C156.86 77.53 156.15 74.56 152.27 73.84ZM151.48 81.91C150.08 81.91 148.95 80.78 148.95 79.38C148.95 77.98 150.08 76.85 151.48 76.85C152.88 76.85 154.01 77.98 154.01 79.38C154.01 80.78 152.88 81.91 151.48 81.91Z" fill="#575756" stroke="#575756" stroke-width="0.75" stroke-miterlimit="10"/>
<path d="M179.78 32.5601C179.2 32.4501 178.6 32.45 178.01 32.57C176.5 32.88 173.77 34 173.69 38.03C173.67 38.91 173.88 39.7701 174.28 40.5601L178.5 48.7901C178.71 49.2001 179.29 49.2001 179.5 48.7901L183.88 40.4501C184.26 39.7201 184.46 38.9101 184.43 38.0901C184.37 36.2501 183.66 33.2801 179.78 32.5601ZM178.99 40.6301C177.59 40.6301 176.46 39.5 176.46 38.1C176.46 36.7 177.59 35.57 178.99 35.57C180.39 35.57 181.52 36.7 181.52 38.1C181.52 39.5 180.39 40.6301 178.99 40.6301Z" fill="#575756" stroke="#575756" stroke-width="0.75" stroke-miterlimit="10"/>
<path d="M2 95.8847H6.63489L6.6349 5.20728H187.577V124.169H6.84649L6.6349 96.2174H2.00002V129H192V1H2.00002L2 95.8847Z" fill="#1D3D23" stroke="#1D3D23" stroke-width="3" stroke-miterlimit="10"/>
</svg>
