<svg width="359" height="131" viewBox="0 0 359 131" fill="none" xmlns="http://www.w3.org/2000/svg">
<g clip-path="url(#clip0_54_1301)">
<path opacity="0.6" d="M201.95 123.87C201.95 123.87 205.95 103.48 220.54 95.47C234.81 87.63 257.28 82.87 270.82 89.33C271.39 89.6 271.97 89.84 272.56 90.07C276.44 91.54 319.26 112 336.7 125.1" stroke="#575756" stroke-width="4" stroke-miterlimit="10"/>
<path opacity="0.6" d="M172.93 123.87C172.93 123.87 219.8 83.75 214.88 70.54C209.96 57.33 200.47 50.32 200.47 50.32C200.47 50.32 193.17 44.09 193.66 37.54C194.15 30.99 210.99 4.20996 210.99 4.20996" stroke="#575756" stroke-width="6" stroke-miterlimit="10"/>
<path opacity="0.6" d="M216.63 77.8499C216.63 77.8499 240.81 66.2199 241.71 54.1799C242.39 45.1099 249.03 37.8999 252.26 34.8899C253.24 33.9799 254.28 33.2499 255.36 32.7099C259.67 30.5499 272.95 23.5699 274.92 18.6299C277.28 12.7299 278.04 5.81995 278.04 5.81995" stroke="#575756" stroke-width="4" stroke-miterlimit="10"/>
<path opacity="0.6" d="M292.53 3.58997C292.53 3.58997 295.35 26.92 311.18 48.68C318.86 59.24 327.08 67.59 333.45 75.73C340.21 84.37 344.9 92.78 344.68 103.34C344.25 123.86 340.15 127.11 340.15 127.11" stroke="#575756" stroke-width="4" stroke-miterlimit="10"/>
<path opacity="0.6" d="M352.3 16.3101C351.21 27.7801 345.34 56.5301 345.34 56.5301C345.34 56.5301 342.15 72.2401 336.96 77.6201" stroke="#575756" stroke-width="4" stroke-miterlimit="10"/>
<path d="M228.76 9.90002C228.18 9.79002 227.58 9.79002 226.99 9.91002C225.48 10.22 222.75 11.34 222.67 15.37C222.65 16.25 222.86 17.11 223.26 17.9L227.48 26.13C227.69 26.54 228.27 26.54 228.48 26.13L232.86 17.79C233.24 17.06 233.44 16.25 233.41 15.43C233.35 13.59 232.64 10.62 228.76 9.90002ZM227.97 17.97C226.57 17.97 225.44 16.84 225.44 15.44C225.44 14.04 226.57 12.91 227.97 12.91C229.37 12.91 230.5 14.04 230.5 15.44C230.5 16.84 229.37 17.97 227.97 17.97Z" fill="#575756" stroke="#575756" stroke-width="0.75" stroke-miterlimit="10"/>
<path d="M226.3 100.33C225.72 100.22 225.12 100.22 224.53 100.34C223.02 100.65 220.29 101.77 220.21 105.8C220.19 106.68 220.4 107.54 220.8 108.33L225.02 116.56C225.23 116.97 225.81 116.97 226.02 116.56L230.4 108.22C230.78 107.49 230.98 106.68 230.95 105.86C230.89 104.02 230.18 101.05 226.3 100.33ZM225.51 108.4C224.11 108.4 222.98 107.27 222.98 105.87C222.98 104.47 224.11 103.34 225.51 103.34C226.91 103.34 228.04 104.47 228.04 105.87C228.04 107.27 226.91 108.4 225.51 108.4Z" fill="#575756" stroke="#575756" stroke-miterlimit="10"/>
<path d="M304.88 62.05C304.3 61.94 303.7 61.94 303.11 62.06C301.6 62.37 298.87 63.49 298.79 67.52C298.77 68.4 298.98 69.26 299.38 70.05L303.6 78.28C303.81 78.69 304.39 78.69 304.6 78.28L308.98 69.94C309.36 69.21 309.56 68.4 309.53 67.58C309.47 65.74 308.76 62.77 304.88 62.05ZM304.09 70.12C302.69 70.12 301.56 68.99 301.56 67.59C301.56 66.19 302.69 65.06 304.09 65.06C305.49 65.06 306.62 66.19 306.62 67.59C306.62 68.99 305.49 70.12 304.09 70.12Z" fill="#575756" stroke="#575756" stroke-width="0.75" stroke-miterlimit="10"/>
<path d="M317.27 73.84C316.69 73.73 316.09 73.73 315.5 73.85C313.99 74.16 311.26 75.28 311.18 79.31C311.16 80.19 311.37 81.05 311.77 81.84L315.99 90.07C316.2 90.48 316.78 90.48 316.99 90.07L321.37 81.73C321.75 81 321.95 80.19 321.92 79.37C321.86 77.53 321.15 74.56 317.27 73.84ZM316.48 81.91C315.08 81.91 313.95 80.78 313.95 79.38C313.95 77.98 315.08 76.85 316.48 76.85C317.88 76.85 319.01 77.98 319.01 79.38C319.01 80.78 317.88 81.91 316.48 81.91Z" fill="#575756" stroke="#575756" stroke-width="0.75" stroke-miterlimit="10"/>
<path d="M344.78 32.5601C344.2 32.4501 343.6 32.45 343.01 32.57C341.5 32.88 338.77 34 338.69 38.03C338.67 38.91 338.88 39.7701 339.28 40.5601L343.5 48.7901C343.71 49.2001 344.29 49.2001 344.5 48.7901L348.88 40.4501C349.26 39.7201 349.46 38.9101 349.43 38.0901C349.37 36.2501 348.66 33.2801 344.78 32.5601ZM343.99 40.6301C342.59 40.6301 341.46 39.5 341.46 38.1C341.46 36.7 342.59 35.57 343.99 35.57C345.39 35.57 346.52 36.7 346.52 38.1C346.52 39.5 345.39 40.6301 343.99 40.6301Z" fill="#575756" stroke="#575756" stroke-width="0.75" stroke-miterlimit="10"/>
<path d="M168.12 33.24H172.72V5.68H352.3V123.87H172.93L172.72 96.1H168.12V128.67H356.69V1.5H168.12V33.24Z" fill="#1D3D23" stroke="#1D3D23" stroke-width="3" stroke-miterlimit="10"/>
<path d="M3.26001 55.95C1.35001 54.16 0.390015 51.3 0.390015 47.36C0.390015 39.85 4.04001 36.09 11.35 36.09C13.12 36.09 14.77 36.3 16.29 36.73C17.81 37.16 18.94 37.63 19.69 38.16V45.15H12.98V43.14C12.98 42.43 12.82 41.91 12.5 41.57C12.18 41.23 11.71 41.07 11.07 41.07C10.43 41.07 9.96001 41.24 9.64001 41.57C9.32001 41.91 9.16001 42.43 9.16001 43.14V51.59C9.16001 52.3 9.32001 52.82 9.64001 53.16C9.96001 53.5 10.43 53.66 11.07 53.66C11.71 53.66 12.18 53.49 12.5 53.16C12.82 52.82 12.98 52.3 12.98 51.59V49.32H19.69V56.56C18.93 57.08 17.79 57.56 16.29 57.99C14.79 58.42 13.16 58.63 11.41 58.63C7.89001 58.63 5.17001 57.73 3.26001 55.94V55.95Z" fill="#1D3D23"/>
<path d="M39.26 53.66V58.25H30.42V53.66H31.59V49.07C31.59 48.45 31.46 48 31.2 47.71C30.94 47.42 30.55 47.28 30.03 47.28C28.91 47.28 28.35 47.88 28.35 49.07V53.66H29.52V58.25H20.68V53.66H21.91V41.08H20.68V36.49H28.34V44.88C29.03 44.02 29.78 43.38 30.58 42.95C31.38 42.52 32.31 42.31 33.38 42.31C34.93 42.31 36.09 42.8 36.86 43.76C37.63 44.73 38.02 46.06 38.02 47.76V53.66H39.25H39.26Z" fill="#1D3D23"/>
<path d="M56.46 53.6599V58.2499H49.08V56.3499C48.67 56.9499 48.1 57.4799 47.36 57.9399C46.62 58.4099 45.72 58.6399 44.66 58.6399C43.26 58.6399 42.16 58.2699 41.36 57.5199C40.56 56.7699 40.16 55.7199 40.16 54.3599C40.16 50.8399 43.15 49.0299 49.14 48.9299C49.08 48.2999 48.84 47.8599 48.41 47.6299C47.98 47.3999 47.25 47.2799 46.23 47.2799C45.39 47.2799 44.49 47.3699 43.53 47.5499C42.57 47.7299 41.69 47.9699 40.89 48.2599V43.1099C41.88 42.8699 42.95 42.6699 44.11 42.5199C45.27 42.3699 46.39 42.2999 47.49 42.2999C50.27 42.2999 52.25 42.7999 53.45 43.8099C54.65 44.8199 55.24 46.3699 55.24 48.4799V53.6499H56.47L56.46 53.6599ZM49.08 51.6999C48.24 51.6999 47.59 51.8099 47.14 52.0399C46.68 52.2599 46.45 52.6399 46.45 53.1599C46.45 53.4799 46.55 53.7299 46.74 53.9299C46.93 54.1299 47.21 54.2199 47.57 54.2199C48.05 54.2199 48.43 54.0199 48.69 53.5999C48.95 53.1899 49.08 52.6099 49.08 51.8699V51.6999Z" fill="#1D3D23"/>
<path d="M57.36 57.5199V53.3799H61.89V53.6599C61.89 54.5599 62.46 54.9999 63.6 54.9999C64.61 54.9999 65.11 54.6599 65.11 53.9699C65.11 53.5999 64.97 53.3199 64.68 53.1299C64.39 52.9399 63.88 52.7899 63.16 52.6499L61.76 52.3999C58.83 51.8799 57.37 50.2199 57.37 47.4199C57.37 45.7999 57.99 44.5399 59.22 43.6399C60.45 42.7399 62.11 42.2999 64.2 42.2999C66.53 42.2999 68.5 42.6899 70.1 43.4699V47.3599H65.85V47.0799C65.85 46.7099 65.72 46.4199 65.47 46.2299C65.22 46.0299 64.85 45.9399 64.37 45.9399C63.44 45.9399 62.97 46.2399 62.97 46.8399C62.97 47.1599 63.1 47.3999 63.36 47.5699C63.62 47.7399 64.1 47.8999 64.79 48.0499L66.38 48.3599C68.04 48.6799 69.22 49.2599 69.93 50.1199C70.64 50.9799 70.99 52.0799 70.99 53.4199C70.99 55.1199 70.4 56.4099 69.21 57.3099C68.03 58.1999 66.34 58.6499 64.16 58.6499C61.81 58.6499 59.55 58.2799 57.36 57.5299V57.5199Z" fill="#1D3D23"/>
<path d="M71.87 57.5199V53.3799H76.4V53.6599C76.4 54.5599 76.97 54.9999 78.11 54.9999C79.12 54.9999 79.62 54.6599 79.62 53.9699C79.62 53.5999 79.48 53.3199 79.19 53.1299C78.9 52.9399 78.39 52.7899 77.67 52.6499L76.27 52.3999C73.34 51.8799 71.88 50.2199 71.88 47.4199C71.88 45.7999 72.5 44.5399 73.73 43.6399C74.96 42.7399 76.62 42.2999 78.71 42.2999C81.04 42.2999 83.01 42.6899 84.61 43.4699V47.3599H80.36V47.0799C80.36 46.7099 80.23 46.4199 79.98 46.2299C79.73 46.0299 79.36 45.9399 78.88 45.9399C77.95 45.9399 77.48 46.2399 77.48 46.8399C77.48 47.1599 77.61 47.3999 77.87 47.5699C78.13 47.7399 78.61 47.8999 79.3 48.0499L80.89 48.3599C82.55 48.6799 83.73 49.2599 84.44 50.1199C85.15 50.9799 85.5 52.0799 85.5 53.4199C85.5 55.1199 84.91 56.4099 83.72 57.3099C82.54 58.1999 80.85 58.6499 78.67 58.6499C76.32 58.6499 74.06 58.2799 71.87 57.5299V57.5199Z" fill="#1D3D23"/>
<path d="M88.51 56.5499C87.02 55.1599 86.27 53.1299 86.27 50.4699C86.27 47.8099 87.02 45.7799 88.51 44.3899C90 42.9999 92.07 42.3099 94.72 42.3099C97.37 42.3099 99.25 42.9999 100.41 44.3699C101.58 45.7399 102.16 47.4399 102.16 49.4699V51.4799H93.1V51.6499C93.1 52.3399 93.31 52.8499 93.72 53.1699C94.13 53.4999 94.81 53.6599 95.76 53.6599C96.9 53.6599 97.98 53.5799 99 53.4099C100.02 53.2399 100.92 53.0299 101.68 52.7699V57.2399C101.03 57.5899 100.07 57.9199 98.81 58.1999C97.55 58.4899 96.19 58.6299 94.71 58.6299C92.06 58.6299 89.99 57.9399 88.5 56.5499H88.51ZM96.34 48.3999V48.0599C96.34 47.4299 96.2 46.9699 95.93 46.6899C95.66 46.4099 95.25 46.2699 94.71 46.2699C94.17 46.2699 93.76 46.4199 93.49 46.6999C93.22 46.9899 93.08 47.4399 93.08 48.0599V48.3999H96.32H96.34Z" fill="#1D3D23"/>
<path d="M127.69 53.6599V58.2499H120.31V56.3499C119.9 56.9499 119.33 57.4799 118.59 57.9399C117.85 58.4099 116.95 58.6399 115.89 58.6399C114.49 58.6399 113.39 58.2699 112.59 57.5199C111.79 56.7699 111.39 55.7199 111.39 54.3599C111.39 50.8399 114.38 49.0299 120.37 48.9299C120.31 48.2999 120.07 47.8599 119.64 47.6299C119.21 47.3999 118.48 47.2799 117.46 47.2799C116.62 47.2799 115.72 47.3699 114.76 47.5499C113.8 47.7299 112.92 47.9699 112.12 48.2599V43.1099C113.11 42.8699 114.18 42.6699 115.34 42.5199C116.5 42.3699 117.62 42.2999 118.72 42.2999C121.5 42.2999 123.48 42.7999 124.68 43.8099C125.88 44.8199 126.47 46.3699 126.47 48.4799V53.6499H127.7L127.69 53.6599ZM120.31 51.6999C119.47 51.6999 118.82 51.8099 118.37 52.0399C117.91 52.2599 117.68 52.6399 117.68 53.1599C117.68 53.4799 117.78 53.7299 117.97 53.9299C118.16 54.1299 118.44 54.2199 118.8 54.2199C119.28 54.2199 119.66 54.0199 119.92 53.5999C120.18 53.1899 120.31 52.6099 120.31 51.8699V51.6999Z" fill="#1D3D23"/>
<path d="M146.99 53.6599V58.2499H139.33V56.0699C137.99 57.7899 136.31 58.6399 134.3 58.6399C132.75 58.6399 131.59 58.1599 130.82 57.1899C130.05 56.2199 129.66 54.8899 129.66 53.1899V47.2899H128.43V42.6999H136.09V51.8699C136.09 52.4899 136.22 52.9399 136.5 53.2299C136.77 53.5199 137.18 53.6599 137.72 53.6599C138.26 53.6599 138.67 53.5199 138.94 53.2299C139.21 52.9399 139.35 52.4899 139.35 51.8699V47.2799H137.84V42.6899H145.78V53.6499H147.01L146.99 53.6599Z" fill="#1D3D23"/>
<path d="M163.82 53.6599H164.71V58.2499H155.98V53.6599H156.76L155.67 52.0099H155.39L154.3 53.6599H155.08V58.2499H147.58V53.6599H148.75L152.13 50.6399L148.58 47.2799H147.68V42.6899H156.41V47.2799H155.63L156.72 48.8999H157L158.09 47.2799H157.31V42.6899H164.58V47.2799H163.41L160.19 50.2399L163.8 53.6499L163.82 53.6599Z" fill="#1D3D23"/>
<path d="M176.07 56.55C174.58 55.16 173.83 53.13 173.83 50.47C173.83 47.81 174.58 45.78 176.07 44.39C177.56 43 179.63 42.31 182.28 42.31C184.93 42.31 186.81 43 187.97 44.37C189.14 45.74 189.72 47.44 189.72 49.47V51.48H180.66V51.65C180.66 52.34 180.87 52.85 181.28 53.17C181.69 53.5 182.37 53.66 183.32 53.66C184.46 53.66 185.54 53.58 186.56 53.41C187.58 53.24 188.48 53.03 189.24 52.77V57.24C188.59 57.59 187.63 57.92 186.37 58.2C185.11 58.49 183.75 58.63 182.27 58.63C179.62 58.63 177.55 57.94 176.06 56.55H176.07ZM179.85 41.01V40.59L182.9 36.34H188.88V37.09L184.32 41.01H179.85ZM183.91 48.39V48.05C183.91 47.42 183.77 46.96 183.5 46.68C183.23 46.4 182.82 46.26 182.28 46.26C181.74 46.26 181.33 46.41 181.06 46.69C180.79 46.98 180.65 47.43 180.65 48.05V48.39H183.89H183.91Z" fill="#1D3D23"/>
<path d="M190.45 59.8699H191.68V47.2899H190.45V42.6999H198.11V44.5999C198.58 43.9999 199.18 43.4699 199.91 43.0099C200.65 42.5399 201.49 42.3099 202.44 42.3099C204.34 42.3099 205.77 43.0199 206.73 44.4399C207.69 45.8599 208.17 47.8699 208.17 50.4799C208.17 53.0899 207.69 55.0999 206.73 56.5199C205.77 57.9399 204.34 58.6499 202.44 58.6499C201.49 58.6499 200.65 58.4199 199.91 57.9499C199.17 57.4799 198.57 56.9499 198.11 56.3599V59.8799H200.04V64.4699H190.45V59.8799V59.8699ZM200.95 53.2299C201.22 52.9399 201.36 52.4899 201.36 51.8699V49.0699C201.36 48.4499 201.22 47.9999 200.95 47.7099C200.68 47.4199 200.27 47.2799 199.73 47.2799C199.19 47.2799 198.78 47.4299 198.51 47.7099C198.24 47.9999 198.1 48.4499 198.1 49.0699V51.8699C198.1 52.4899 198.24 52.9399 198.51 53.2299C198.78 53.5199 199.19 53.6599 199.73 53.6599C200.27 53.6599 200.68 53.5199 200.95 53.2299Z" fill="#1D3D23"/>
<path d="M208.96 58.24V53.65H210.19V47.27H208.96V42.68H216.62V53.64H217.85V58.23H208.96V58.24ZM210.3 41.15V36.48H216.01V41.15H210.3Z" fill="#1D3D23"/>
<path d="M222.98 64.5599C221.76 64.3699 220.81 64.1599 220.14 63.9199V59.3299C222.12 59.6799 223.89 59.8599 225.45 59.8599C226.51 59.8599 227.28 59.6999 227.76 59.3699C228.24 59.0399 228.47 58.4299 228.47 57.5399V56.3399C228 56.9399 227.4 57.4699 226.67 57.9299C225.94 58.3899 225.09 58.6299 224.14 58.6299C222.24 58.6299 220.81 57.9199 219.85 56.4999C218.89 55.0799 218.41 53.0699 218.41 50.4599C218.41 47.8499 218.89 45.8399 219.85 44.4199C220.81 42.9999 222.24 42.2899 224.14 42.2899C225.09 42.2899 225.93 42.5199 226.67 42.9899C227.41 43.4599 228.01 43.9899 228.47 44.5799V42.6799H236.13V47.2699H234.9V57.1099C234.9 59.8099 234.23 61.7799 232.89 62.9999C231.55 64.2199 229.52 64.8299 226.82 64.8299C225.48 64.8299 224.2 64.7399 222.97 64.5499L222.98 64.5599ZM228.07 53.2199C228.34 52.9299 228.48 52.4799 228.48 51.8599V49.0599C228.48 48.4399 228.34 47.9899 228.07 47.6999C227.8 47.4099 227.39 47.2699 226.85 47.2699C226.31 47.2699 225.9 47.4199 225.63 47.6999C225.36 47.9899 225.22 48.4399 225.22 49.0599V51.8599C225.22 52.4799 225.35 52.9299 225.63 53.2199C225.9 53.5099 226.31 53.6499 226.85 53.6499C227.39 53.6499 227.8 53.5099 228.07 53.2199Z" fill="#1D3D23"/>
<path d="M249.93 42.4199C250.27 42.4899 250.55 42.5899 250.77 42.6999V48.0399C250.01 47.7199 249.19 47.5599 248.31 47.5599C247.14 47.5599 246.23 47.8699 245.6 48.4799C244.97 49.0899 244.65 50.0099 244.65 51.2199V53.6499H247.17V58.2399H236.99V53.6499H238.22V47.2699H236.99V42.6799H244.65V44.7199C245.17 43.9399 245.77 43.3399 246.44 42.9199C247.11 42.4999 247.92 42.2899 248.87 42.2899C249.24 42.2899 249.6 42.3299 249.93 42.3999V42.4199Z" fill="#1D3D23"/>
<path d="M267.97 53.6599V58.2499H260.59V56.3499C260.18 56.9499 259.61 57.4799 258.87 57.9399C258.13 58.4099 257.23 58.6399 256.17 58.6399C254.77 58.6399 253.67 58.2699 252.87 57.5199C252.07 56.7699 251.67 55.7199 251.67 54.3599C251.67 50.8399 254.66 49.0299 260.65 48.9299C260.59 48.2999 260.35 47.8599 259.92 47.6299C259.49 47.3999 258.76 47.2799 257.74 47.2799C256.9 47.2799 256 47.3699 255.04 47.5499C254.08 47.7299 253.2 47.9699 252.4 48.2599V43.1099C253.39 42.8699 254.46 42.6699 255.62 42.5199C256.78 42.3699 257.9 42.2999 259 42.2999C261.78 42.2999 263.76 42.7999 264.96 43.8099C266.16 44.8199 266.75 46.3699 266.75 48.4799V53.6499H267.98L267.97 53.6599ZM260.59 51.6999C259.75 51.6999 259.1 51.8099 258.65 52.0399C258.19 52.2599 257.96 52.6399 257.96 53.1599C257.96 53.4799 258.06 53.7299 258.25 53.9299C258.44 54.1299 258.72 54.2199 259.08 54.2199C259.56 54.2199 259.94 54.0199 260.2 53.5999C260.46 53.1899 260.59 52.6099 260.59 51.8699V51.6999Z" fill="#1D3D23"/>
<path d="M268.75 59.8699H269.98V47.2899H268.75V42.6999H276.41V44.5999C276.88 43.9999 277.48 43.4699 278.21 43.0099C278.95 42.5399 279.79 42.3099 280.74 42.3099C282.64 42.3099 284.07 43.0199 285.03 44.4399C285.99 45.8599 286.47 47.8699 286.47 50.4799C286.47 53.0899 285.99 55.0999 285.03 56.5199C284.07 57.9399 282.64 58.6499 280.74 58.6499C279.79 58.6499 278.95 58.4199 278.21 57.9499C277.47 57.4799 276.87 56.9499 276.41 56.3599V59.8799H278.34V64.4699H268.75V59.8799V59.8699ZM279.25 53.2299C279.52 52.9399 279.66 52.4899 279.66 51.8699V49.0699C279.66 48.4499 279.52 47.9999 279.25 47.7099C278.98 47.4199 278.57 47.2799 278.03 47.2799C277.49 47.2799 277.08 47.4299 276.81 47.7099C276.54 47.9999 276.4 48.4499 276.4 49.0699V51.8699C276.4 52.4899 276.54 52.9399 276.81 53.2299C277.08 53.5199 277.49 53.6599 278.03 53.6599C278.57 53.6599 278.98 53.5199 279.25 53.2299Z" fill="#1D3D23"/>
<path d="M305.83 53.66V58.25H296.99V53.66H298.16V49.07C298.16 48.45 298.03 48 297.77 47.71C297.51 47.42 297.12 47.28 296.6 47.28C295.48 47.28 294.92 47.88 294.92 49.07V53.66H296.09V58.25H287.25V53.66H288.48V41.08H287.25V36.49H294.91V44.88C295.6 44.02 296.35 43.38 297.15 42.95C297.95 42.52 298.88 42.31 299.95 42.31C301.5 42.31 302.66 42.8 303.43 43.76C304.2 44.73 304.59 46.06 304.59 47.76V53.66H305.82H305.83Z" fill="#1D3D23"/>
<path d="M308.85 56.5499C307.36 55.1599 306.61 53.1299 306.61 50.4699C306.61 47.8099 307.36 45.7799 308.85 44.3899C310.34 42.9999 312.41 42.3099 315.06 42.3099C317.71 42.3099 319.59 42.9999 320.75 44.3699C321.92 45.7399 322.5 47.4399 322.5 49.4699V51.4799H313.44V51.6499C313.44 52.3399 313.65 52.8499 314.06 53.1699C314.47 53.4999 315.15 53.6599 316.1 53.6599C317.24 53.6599 318.32 53.5799 319.34 53.4099C320.36 53.2399 321.26 53.0299 322.02 52.7699V57.2399C321.37 57.5899 320.41 57.9199 319.15 58.1999C317.89 58.4899 316.53 58.6299 315.05 58.6299C312.4 58.6299 310.33 57.9399 308.84 56.5499H308.85ZM316.68 48.3999V48.0599C316.68 47.4299 316.54 46.9699 316.27 46.6899C316 46.4099 315.59 46.2699 315.05 46.2699C314.51 46.2699 314.1 46.4199 313.83 46.6999C313.56 46.9899 313.42 47.4399 313.42 48.0599V48.3999H316.66H316.68Z" fill="#1D3D23"/>
<path d="M323.34 57.5199V53.3799H327.87V53.6599C327.87 54.5599 328.44 54.9999 329.58 54.9999C330.59 54.9999 331.09 54.6599 331.09 53.9699C331.09 53.5999 330.95 53.3199 330.66 53.1299C330.37 52.9399 329.86 52.7899 329.14 52.6499L327.74 52.3999C324.81 51.8799 323.35 50.2199 323.35 47.4199C323.35 45.7999 323.97 44.5399 325.2 43.6399C326.43 42.7399 328.09 42.2999 330.18 42.2999C332.51 42.2999 334.48 42.6899 336.08 43.4699V47.3599H331.83V47.0799C331.83 46.7099 331.7 46.4199 331.45 46.2299C331.2 46.0299 330.83 45.9399 330.35 45.9399C329.42 45.9399 328.95 46.2399 328.95 46.8399C328.95 47.1599 329.08 47.3999 329.34 47.5699C329.6 47.7399 330.08 47.8999 330.77 48.0499L332.36 48.3599C334.02 48.6799 335.2 49.2599 335.91 50.1199C336.62 50.9799 336.97 52.0799 336.97 53.4199C336.97 55.1199 336.38 56.4099 335.19 57.3099C334.01 58.1999 332.32 58.6499 330.14 58.6499C327.79 58.6499 325.53 58.2799 323.34 57.5299V57.5199Z" fill="#1D3D23"/>
<path d="M53.11 80.8699H53.91V73.6699H53.11V71.0199H59.62C61.41 71.0199 62.83 71.5099 63.88 72.4899C64.93 73.4699 65.46 75.0599 65.46 77.2599C65.46 79.4599 64.93 81.0499 63.88 82.0299C62.83 83.0099 61.41 83.4999 59.62 83.4999H53.11V80.8699ZM59.34 80.8699C59.7 80.8699 59.98 80.7699 60.16 80.5799C60.34 80.3899 60.43 80.0899 60.43 79.6799V74.8299C60.43 74.0399 60.07 73.6399 59.34 73.6399H58.41V80.8599H59.34V80.8699Z" fill="#1D3D23"/>
<path d="M75.33 80.8699V83.4999H71.09V82.4099C70.85 82.7499 70.53 83.0599 70.1 83.3199C69.68 83.5899 69.16 83.7199 68.55 83.7199C67.75 83.7199 67.12 83.5099 66.66 83.0799C66.2 82.6499 65.97 82.0499 65.97 81.2699C65.97 79.2499 67.69 78.2099 71.12 78.1599C71.09 77.7999 70.95 77.5499 70.7 77.4099C70.45 77.2699 70.04 77.2099 69.45 77.2099C68.97 77.2099 68.45 77.2599 67.9 77.3599C67.35 77.4599 66.84 77.5999 66.38 77.7699V74.8199C66.95 74.6799 67.56 74.5699 68.22 74.4799C68.88 74.3899 69.53 74.3499 70.16 74.3499C71.75 74.3499 72.89 74.6399 73.58 75.2199C74.26 75.7999 74.61 76.6899 74.61 77.8999V80.8699H75.32H75.33ZM71.09 79.7499C70.61 79.7499 70.24 79.8099 69.97 79.9399C69.71 80.0699 69.58 80.2799 69.58 80.5799C69.58 80.7599 69.64 80.9099 69.75 81.0199C69.86 81.1299 70.02 81.1899 70.22 81.1899C70.5 81.1899 70.71 81.0699 70.86 80.8399C71.01 80.5999 71.08 80.2699 71.08 79.8399V79.7399L71.09 79.7499Z" fill="#1D3D23"/>
<path d="M86.5 80.8699V83.4999H81.43V80.8699H82.1V78.2399C82.1 77.8899 82.02 77.6299 81.88 77.4599C81.73 77.2899 81.51 77.2099 81.21 77.2099C80.57 77.2099 80.25 77.5499 80.25 78.2399V80.8699H80.92V83.4999H75.85V80.8699H76.56V77.2099H75.85V74.5799H80.25V75.8299C81.02 74.8499 81.98 74.3499 83.14 74.3499C84.03 74.3499 84.69 74.6299 85.14 75.1799C85.58 75.7399 85.81 76.4999 85.81 77.4699V80.8599H86.52L86.5 80.8699Z" fill="#1D3D23"/>
<path d="M87.01 83.0799V80.7099H89.61V80.8699C89.61 81.3799 89.94 81.6399 90.59 81.6399C91.17 81.6399 91.46 81.4399 91.46 81.0499C91.46 80.8399 91.38 80.6799 91.21 80.5699C91.04 80.4599 90.75 80.3699 90.34 80.2999L89.54 80.1599C87.86 79.8599 87.02 78.9099 87.02 77.2999C87.02 76.3699 87.37 75.6499 88.08 75.1299C88.79 74.6199 89.74 74.3599 90.94 74.3599C92.28 74.3599 93.4 74.5799 94.33 75.0299V77.2599H91.89V77.0999C91.89 76.8899 91.82 76.7199 91.67 76.6099C91.53 76.4999 91.31 76.4399 91.04 76.4399C90.5 76.4399 90.24 76.6099 90.24 76.9499C90.24 77.1299 90.31 77.2699 90.46 77.3699C90.61 77.4699 90.88 77.5599 91.28 77.6399L92.19 77.8199C93.14 77.9999 93.82 78.3399 94.23 78.8299C94.64 79.3199 94.84 79.9499 94.84 80.7199C94.84 81.6899 94.5 82.4399 93.82 82.9499C93.14 83.4599 92.18 83.7199 90.92 83.7199C89.57 83.7199 88.27 83.5099 87.02 83.0799H87.01Z" fill="#1D3D23"/>
<path d="M100.15 83.5199V80.8699H100.86V73.6499H100.15V71.0199H104.55V80.8699H105.26V83.5199H100.16H100.15Z" fill="#1D3D23"/>
<path d="M115.12 80.8699V83.4999H110.88V82.4099C110.64 82.7499 110.32 83.0599 109.89 83.3199C109.47 83.5899 108.95 83.7199 108.34 83.7199C107.54 83.7199 106.91 83.5099 106.45 83.0799C105.99 82.6499 105.76 82.0499 105.76 81.2699C105.76 79.2499 107.48 78.2099 110.91 78.1599C110.88 77.7999 110.74 77.5499 110.49 77.4099C110.24 77.2699 109.83 77.2099 109.24 77.2099C108.76 77.2099 108.24 77.2599 107.69 77.3599C107.14 77.4599 106.63 77.5999 106.17 77.7699V74.8199C106.74 74.6799 107.35 74.5699 108.01 74.4799C108.67 74.3899 109.32 74.3499 109.95 74.3499C111.54 74.3499 112.68 74.6399 113.37 75.2199C114.05 75.7999 114.4 76.6899 114.4 77.8999V80.8699H115.11H115.12ZM110.88 79.7499C110.4 79.7499 110.03 79.8099 109.76 79.9399C109.5 80.0699 109.37 80.2799 109.37 80.5799C109.37 80.7599 109.43 80.9099 109.54 81.0199C109.65 81.1299 109.81 81.1899 110.01 81.1899C110.29 81.1899 110.5 81.0699 110.65 80.8399C110.8 80.5999 110.87 80.2699 110.87 79.8399V79.7399L110.88 79.7499Z" fill="#1D3D23"/>
<path d="M123.01 83.5L120.99 77.21H120.32V74.58H125.28V77.21H124.61L125.46 80.39H125.62L126.47 77.21H125.8V74.58H130.45V77.21H129.78L127.81 83.5H123.03H123.01Z" fill="#1D3D23"/>
<path d="M130.89 83.4999V80.8699H131.6V77.2099H130.89V74.5799H135.29V80.8699H136V83.4999H130.9H130.89ZM131.66 73.6999V71.0199H134.93V73.6999H131.66Z" fill="#1D3D23"/>
<path d="M136.44 83.5199V80.8699H137.15V73.6499H136.44V71.0199H140.84V80.8699H141.55V83.5199H136.45H136.44Z" fill="#1D3D23"/>
<path d="M142.06 83.5199V80.8699H142.77V73.6499H142.06V71.0199H146.46V80.8699H147.17V83.5199H142.07H142.06Z" fill="#1D3D23"/>
<path d="M148.89 82.5299C148.03 81.7299 147.61 80.5699 147.61 79.0399C147.61 77.5099 148.04 76.3499 148.89 75.5499C149.75 74.7499 150.93 74.3499 152.45 74.3499C153.97 74.3499 155.05 74.7399 155.71 75.5299C156.37 76.3199 156.71 77.2899 156.71 78.4599V79.6099H151.51V79.7099C151.51 80.1099 151.63 80.3999 151.86 80.5799C152.1 80.7699 152.49 80.8599 153.03 80.8599C153.68 80.8599 154.3 80.8099 154.89 80.7199C155.48 80.6199 155.99 80.4999 156.43 80.3499V82.9199C156.05 83.1199 155.51 83.3099 154.79 83.4699C154.07 83.6399 153.28 83.7199 152.44 83.7199C150.92 83.7199 149.73 83.3199 148.88 82.5199L148.89 82.5299ZM153.38 77.8499V77.6599C153.38 77.2999 153.3 77.0299 153.15 76.8699C152.99 76.7099 152.76 76.6299 152.45 76.6299C152.14 76.6299 151.91 76.7099 151.75 76.8799C151.59 77.0499 151.52 77.3099 151.52 77.6599V77.8499H153.38Z" fill="#1D3D23"/>
<path d="M162.71 82.5099C162.16 81.6999 161.88 80.5399 161.88 79.0399C161.88 77.5399 162.15 76.3899 162.71 75.5699C163.26 74.7599 164.08 74.3499 165.17 74.3499C165.72 74.3499 166.2 74.4799 166.62 74.7499C167.04 75.0199 167.39 75.3199 167.65 75.6599V73.6399H166.7V71.0099H171.34V80.8599H172.05V83.4899H167.65V82.3999C167.38 82.7399 167.04 83.0499 166.62 83.3099C166.2 83.5799 165.71 83.7099 165.17 83.7099C164.08 83.7099 163.26 83.2999 162.71 82.4899V82.5099ZM167.43 80.6199C167.58 80.4499 167.66 80.1899 167.66 79.8399V78.2399C167.66 77.8899 167.58 77.6299 167.43 77.4599C167.27 77.2899 167.04 77.2099 166.73 77.2099C166.42 77.2099 166.19 77.2899 166.03 77.4599C165.87 77.6299 165.8 77.8899 165.8 78.2399V79.8399C165.8 80.1899 165.88 80.4499 166.03 80.6199C166.19 80.7899 166.42 80.8699 166.73 80.8699C167.04 80.8699 167.27 80.7899 167.43 80.6199Z" fill="#1D3D23"/>
<path d="M173.79 82.5299C172.93 81.7299 172.51 80.5699 172.51 79.0399C172.51 77.5099 172.94 76.3499 173.79 75.5499C174.65 74.7499 175.83 74.3499 177.35 74.3499C178.87 74.3499 179.95 74.7399 180.61 75.5299C181.27 76.3199 181.61 77.2899 181.61 78.4599V79.6099H176.41V79.7099C176.41 80.1099 176.53 80.3999 176.76 80.5799C177 80.7699 177.39 80.8599 177.93 80.8599C178.58 80.8599 179.2 80.8099 179.79 80.7199C180.38 80.6199 180.89 80.4999 181.33 80.3499V82.9199C180.95 83.1199 180.41 83.3099 179.69 83.4699C178.97 83.6399 178.18 83.7199 177.34 83.7199C175.82 83.7199 174.63 83.3199 173.78 82.5199L173.79 82.5299ZM178.28 77.8499V77.6599C178.28 77.2999 178.2 77.0299 178.05 76.8699C177.89 76.7099 177.66 76.6299 177.35 76.6299C177.04 76.6299 176.81 76.7099 176.65 76.8799C176.49 77.0499 176.42 77.3099 176.42 77.6599V77.8499H178.28Z" fill="#1D3D23"/>
<path d="M193.92 84.5399C192.56 84.3999 191.38 84.0999 190.4 83.6499C189.42 83.1999 188.59 82.5099 187.93 81.5999C187.21 80.5599 186.86 79.1099 186.86 77.2499C186.86 75.0799 187.4 73.4599 188.47 72.3899C189.55 71.3199 191.05 70.7899 192.99 70.7899C194.93 70.7899 196.42 71.2599 197.5 72.2099C198.58 73.1599 199.12 74.5699 199.12 76.4499C199.12 77.2599 198.99 78.0199 198.73 78.7399C198.47 79.4599 198.02 80.1099 197.37 80.7099L197.45 80.8699H199.38V84.7499C197.11 84.7499 195.3 84.6799 193.93 84.5399H193.92ZM194.07 79.6799V74.8299C194.07 74.0399 193.71 73.6399 192.98 73.6399C192.25 73.6399 191.89 74.0399 191.89 74.8299V79.6799C191.89 80.4699 192.25 80.8699 192.98 80.8699C193.71 80.8699 194.07 80.4699 194.07 79.6799Z" fill="#1D3D23"/>
<path d="M210.47 80.87V83.5H206.07V82.25C205.3 83.23 204.34 83.73 203.18 83.73C202.29 83.73 201.63 83.45 201.18 82.9C200.74 82.34 200.51 81.58 200.51 80.61V77.22H199.8V74.59H204.2V79.85C204.2 80.2 204.28 80.46 204.43 80.63C204.58 80.8 204.82 80.88 205.13 80.88C205.44 80.88 205.67 80.8 205.83 80.63C205.99 80.46 206.06 80.2 206.06 79.85V77.22H205.19V74.59H209.75V80.88H210.46L210.47 80.87Z" fill="#1D3D23"/>
<path d="M212.14 82.5299C211.28 81.7299 210.86 80.5699 210.86 79.0399C210.86 77.5099 211.29 76.3499 212.14 75.5499C213 74.7499 214.18 74.3499 215.7 74.3499C217.22 74.3499 218.3 74.7399 218.96 75.5299C219.62 76.3199 219.96 77.2899 219.96 78.4599V79.6099H214.76V79.7099C214.76 80.1099 214.88 80.3999 215.11 80.5799C215.35 80.7699 215.74 80.8599 216.28 80.8599C216.93 80.8599 217.55 80.8099 218.14 80.7199C218.73 80.6199 219.24 80.4999 219.68 80.3499V82.9199C219.3 83.1199 218.76 83.3099 218.04 83.4699C217.32 83.6399 216.53 83.7199 215.69 83.7199C214.17 83.7199 212.98 83.3199 212.13 82.5199L212.14 82.5299ZM214.31 73.6199V73.3799L216.06 70.9399H219.49V71.3699L216.88 73.6199H214.31ZM216.64 77.8599V77.6699C216.64 77.3099 216.56 77.0399 216.41 76.8799C216.25 76.7199 216.02 76.6399 215.71 76.6399C215.4 76.6399 215.17 76.7199 215.01 76.8899C214.85 77.0599 214.78 77.3199 214.78 77.6699V77.8599H216.64Z" fill="#1D3D23"/>
<path d="M225.88 83.3199C225.46 83.0499 225.11 82.7499 224.84 82.4099V83.4999H220.44V80.8699H221.15V73.6499H220.44V71.0199H224.84V75.6699C225.11 75.3299 225.45 75.0199 225.88 74.7599C226.3 74.4899 226.79 74.3599 227.33 74.3599C228.42 74.3599 229.24 74.7699 229.79 75.5799C230.34 76.3899 230.62 77.5499 230.62 79.0499C230.62 80.5499 230.34 81.6999 229.79 82.5199C229.24 83.3399 228.42 83.7399 227.33 83.7399C226.78 83.7399 226.3 83.6099 225.88 83.3399V83.3199ZM226.47 80.6199C226.63 80.4499 226.7 80.1899 226.7 79.8399V78.2399C226.7 77.8899 226.62 77.6299 226.47 77.4599C226.32 77.2899 226.08 77.2099 225.77 77.2099C225.46 77.2099 225.23 77.2899 225.07 77.4599C224.91 77.6299 224.84 77.8899 224.84 78.2399V79.8399C224.84 80.1899 224.92 80.4499 225.07 80.6199C225.22 80.7899 225.46 80.8699 225.77 80.8699C226.08 80.8699 226.31 80.7899 226.47 80.6199Z" fill="#1D3D23"/>
<path d="M232.29 82.5299C231.43 81.7299 231.01 80.5699 231.01 79.0399C231.01 77.5099 231.44 76.3499 232.29 75.5499C233.15 74.7499 234.33 74.3499 235.85 74.3499C237.37 74.3499 238.45 74.7399 239.11 75.5299C239.77 76.3199 240.11 77.2899 240.11 78.4599V79.6099H234.91V79.7099C234.91 80.1099 235.03 80.3999 235.26 80.5799C235.5 80.7699 235.89 80.8599 236.43 80.8599C237.08 80.8599 237.7 80.8099 238.29 80.7199C238.88 80.6199 239.39 80.4999 239.83 80.3499V82.9199C239.45 83.1199 238.91 83.3099 238.19 83.4699C237.47 83.6399 236.68 83.7199 235.84 83.7199C234.32 83.7199 233.13 83.3199 232.28 82.5199L232.29 82.5299ZM236.78 77.8499V77.6599C236.78 77.2999 236.7 77.0299 236.55 76.8699C236.39 76.7099 236.16 76.6299 235.85 76.6299C235.54 76.6299 235.31 76.7099 235.15 76.8799C234.99 77.0499 234.92 77.3099 234.92 77.6599V77.8499H236.78Z" fill="#1D3D23"/>
<path d="M241.82 82.5299C240.96 81.7299 240.54 80.5699 240.54 79.0399C240.54 77.5099 240.97 76.3499 241.82 75.5499C242.68 74.7499 243.86 74.3499 245.38 74.3499C246.12 74.3499 246.82 74.4499 247.5 74.6499C248.17 74.8499 248.7 75.0799 249.07 75.3399V78.5199H246.31V78.2299C246.31 77.8799 246.23 77.6199 246.09 77.4499C245.94 77.2799 245.7 77.1999 245.38 77.1999C244.76 77.1999 244.45 77.5399 244.45 78.2299V79.6099C244.45 80.4399 244.93 80.8599 245.88 80.8599C246.77 80.8599 247.8 80.7599 248.98 80.5699V83.0899C248.62 83.2499 248.11 83.3899 247.45 83.5199C246.79 83.6499 246.11 83.7099 245.4 83.7099C243.87 83.7099 242.68 83.3099 241.82 82.5099V82.5299Z" fill="#1D3D23"/>
</g>
<defs>
<clipPath id="clip0_54_1301">
<rect width="358.19" height="130.17" fill="white"/>
</clipPath>
</defs>
</svg>
