<?xml version="1.0" encoding="UTF-8"?>
<svg id="Calque_2" data-name="Calque 2" xmlns="http://www.w3.org/2000/svg" xmlns:xlink="http://www.w3.org/1999/xlink" viewBox="0 0 1835.8 1551">
  <defs>
    <style>
      .cls-1, .cls-2 {
        fill: #fff;
      }

      .cls-3 {
        fill: #f6f6f6;
      }

      .cls-2 {
        fill-rule: evenodd;
      }

      .cls-4 {
        fill: #dedddd;
      }

      .cls-5 {
        fill: none;
        stroke: #fff;
        stroke-miterlimit: 10;
        stroke-width: 10px;
      }

      .cls-6 {
        fill: url(#Dégradé_sans_nom_51);
      }
    </style>
    <radialGradient id="Dégradé_sans_nom_51" data-name="Dégradé sans nom 51" cx="917.9" cy="687.8" fx="917.9" fy="687.8" r="1009.8" gradientTransform="translate(.4 237) rotate(0) scale(1 .7)" gradientUnits="userSpaceOnUse">
      <stop offset="0" stop-color="#4e6bb2"/>
      <stop offset=".2" stop-color="#4c68ae"/>
      <stop offset=".4" stop-color="#4760a2"/>
      <stop offset=".5" stop-color="#3e538f"/>
      <stop offset=".7" stop-color="#324074"/>
      <stop offset=".9" stop-color="#232951"/>
      <stop offset=".9" stop-color="#22274f"/>
      <stop offset="1" stop-color="#161d34"/>
    </radialGradient>
  </defs>
  <g id="epigraphe">
    <ellipse class="cls-6" cx="917.9" cy="687.8" rx="917.9" ry="687.8"/>
    <ellipse class="cls-5" cx="917.9" cy="687.8" rx="778.6" ry="562.4"/>
    <g>
      <path class="cls-1" d="m682.3,323.6l-12.2-50.9,6.5-1.6,12.2,50.9-6.5,1.6Z"/>
      <path class="cls-1" d="m734.1,309.6c-4,3.5-8.7,5.9-14.1,7-7.2,1.5-13.2.3-18-3.6-4.9-3.9-8.2-10.1-9.9-18.7-1.8-8.6-1.1-15.6,1.9-21.1,3-5.5,8.1-9,15.4-10.5,4.1-.8,9.1-1.1,14.9-.7l1.4,6.8c-6.8-1.1-11.9-1.4-15.3-.7-5,1-8.5,3.7-10.4,8s-2.2,9.9-.8,16.8c1.3,6.6,3.9,11.4,7.6,14.6,3.7,3.2,8.1,4.2,13.2,3.2,4.3-.9,8.7-3.3,13-7.3l1.3,6.2Z"/>
      <path class="cls-1" d="m743.8,310.8l-8.8-51.6,6.6-1.1,8.8,51.6-6.6,1.1Z"/>
      <path class="cls-1" d="m779,304.2l-.9-7.3c5.6,2.1,10.1,2.9,13.5,2.5,2.6-.3,4.6-1.3,6-3s2-3.8,1.7-6.3c-.2-2-1-3.7-2.2-5-1.2-1.3-3.3-2.7-6.3-4.1l-3.5-1.7c-4.3-2.1-7.4-4.1-9.3-6.1s-3-4.5-3.4-7.5c-.5-4,.4-7.5,2.7-10.4,2.3-2.9,5.5-4.6,9.5-5.1,3.6-.4,7.5-.2,11.6.6l.8,6.7c-5.2-1.6-9-2.2-11.4-1.9-2.3.3-4.1,1.2-5.4,2.7-1.3,1.5-1.9,3.3-1.6,5.4.2,1.7.9,3.2,2.2,4.4,1.3,1.2,3.4,2.6,6.6,4.1l3.6,1.7c4.3,2.1,7.4,4.2,9.3,6.2,1.9,2.1,3,4.7,3.4,7.9.5,4.5-.5,8.3-3.2,11.4-2.7,3.1-6.5,4.9-11.4,5.5-3.2.4-7.3,0-12.3-.8Z"/>
      <path class="cls-1" d="m816.4,301l-4.3-52.2,26.2-2.2.5,5.5-19.5,1.6,1.4,16.8,16.4-1.4.5,5.5-16.4,1.4,1.6,18.9,20.9-1.7.5,5.5-27.5,2.3Z"/>
      <path class="cls-1" d="m882.5,297.1l-1.1-46.8-16.7.4v-5.6c-.1,0,39.9-.9,39.9-.9v5.6c.1,0-16.5.4-16.5.4l1.1,46.8-6.7.2Z"/>
      <path class="cls-1" d="m911.9,296.6l1-52.4,14.2.3c4.5,0,7.9,1.3,10.3,3.5,2.4,2.3,3.5,5.5,3.4,9.7,0,3.3-.9,6.3-2.7,8.8-1.7,2.6-4.1,4.5-7.1,5.9l15.2,24.8h-8.2c0-.1-13-22.5-13-22.5h-6.2c0-.1-.4,22-.4,22h-6.6Zm7.1-27.6h2.2c4.1.1,7.3-.8,9.4-2.6s3.3-4.5,3.4-8.1c0-5.4-3.4-8.2-10.4-8.3h-4.2c0,0-.3,19-.3,19Z"/>
      <path class="cls-1" d="m971.5,300.1c-6.7-.4-11.8-3.3-15.5-8.5-3.7-5.2-5.2-12-4.7-20.4.5-8.3,3-14.9,7.3-19.6s9.8-6.9,16.4-6.4c6.7.4,11.8,3.3,15.5,8.5,3.7,5.2,5.2,12,4.7,20.4-.5,8.3-3,14.9-7.3,19.6-4.3,4.7-9.8,6.9-16.4,6.4Zm.4-5.5c4.7.3,8.4-1.4,11.3-5.1,2.9-3.7,4.5-9,5-15.9.4-6.9-.5-12.3-2.9-16.3-2.4-4-5.9-6.2-10.6-6.5s-8.4,1.4-11.3,5.1-4.5,8.9-5,15.8c-.4,6.9.5,12.4,2.9,16.4,2.4,4,5.9,6.2,10.6,6.5Z"/>
      <path class="cls-1" d="m1007.7,249l6.6.8-3.7,32.8c-.6,5.2-.2,9.1,1.3,11.7,1.5,2.6,4.1,4.1,7.9,4.5,3.7.4,6.4-.4,8.2-2.5,1.8-2.1,3-5.8,3.6-11.1l3.8-33.1,5.8.7-3.8,33c-.5,4.5-1.3,8-2.4,10.3-1.1,2.3-2.8,4.3-5.1,5.9-2.9,2-6.6,2.7-11.1,2.2-5.9-.7-10.1-2.8-12.5-6.5-2.4-3.6-3.2-9-2.4-16.1l3.7-32.8Z"/>
      <path class="cls-1" d="m1059,308.5l-9.2-54.5,6.6,1.1,7.5,44.6,20.7-40.1,5.8.9-25.1,49-6.2-1Z"/>
      <path class="cls-1" d="m1082.3,312.2l28.9-47.5,6.5,1.3,7.3,55-7-1.5-2-15.2-19.5-4.1-8,13.1-6.1-1.3Zm17.1-16.9l15.7,3.3-3.2-23.8-12.5,20.5Z"/>
      <path class="cls-1" d="m1131.1,322.8l12.4-50.9,6.5,1.6-12.4,50.9-6.5-1.6Z"/>
      <path class="cls-1" d="m1159.7,330.1l12.6-45.1-16.1-4.5,1.5-5.4,38.5,10.7-1.5,5.4-16.1-4.5-12.6,45.1-6.4-1.8Z"/>
    </g>
    <g>
      <path class="cls-1" d="m535.3,153.6l-12.2-31.5,4.4-1.7,10.9,28.1,14-5.4,1.3,3.3-18.3,7.1Z"/>
      <path class="cls-1" d="m558,144.9l-11.3-31.8,17.5-6.2,1.2,3.4-13.1,4.7,3.6,10.2,10.9-3.9,1.2,3.3-10.9,3.9,4.1,11.5,14-5,1.2,3.4-18.4,6.6Z"/>
      <path class="cls-1" d="m579.2,136.8l-1.5-4.5c4.1.5,7.3.4,9.6-.4,1.8-.6,3-1.5,3.8-2.8s.9-2.7.4-4.2c-.4-1.3-1.1-2.2-2.1-2.9-1-.7-2.6-1.2-4.9-1.7l-2.6-.6c-3.2-.7-5.6-1.5-7.1-2.5-1.6-1-2.6-2.4-3.2-4.3-.8-2.5-.6-4.8.6-7s3.2-3.7,6-4.6c2.4-.8,5.1-1.2,8.1-1.3l1.4,4.2c-3.8-.2-6.5,0-8.1.4-1.6.5-2.7,1.3-3.4,2.5s-.9,2.4-.5,3.7c.3,1.1,1,1.9,2,2.5,1,.6,2.7,1.1,5,1.6l2.7.6c3.2.7,5.6,1.5,7.2,2.6s2.6,2.6,3.3,4.5c.9,2.8.6,5.4-.8,7.7s-3.9,4.1-7.2,5.2c-2.1.7-5,1.1-8.6,1.3Z"/>
      <path class="cls-1" d="m642.3,117.5c-3.6,2.2-6.8,3.7-9.7,4.5-5.1,1.4-9.4,1-12.9-1.2-3.5-2.2-6.1-6-7.6-11.5-1.5-5.4-1.3-10,.7-13.7,1.9-3.7,5.4-6.3,10.4-7.7,3.2-.9,6.7-1.3,10.5-1.3l1.2,4.3c-4.8-.3-8.4-.1-10.8.5-3.5,1-5.8,2.9-7.1,5.8-1.3,2.9-1.3,6.5,0,10.9,1.2,4.3,3.1,7.3,5.8,9.2,2.7,1.8,5.9,2.2,9.6,1.2,1.5-.4,3.1-1.1,4.7-2.2l-2.9-10.6,4.5-1.3,3.6,13.2Z"/>
      <path class="cls-1" d="m650.3,116.4l-8-32.8,18-4.4.9,3.5-13.5,3.3,2.6,10.5,11.3-2.8.8,3.4-11.3,2.8,2.9,11.9,14.4-3.5.9,3.5-19,4.7Z"/>
      <path class="cls-1" d="m674.3,110.6l-7.1-33,4.5-1,21.8,22-5.5-25.5,4-.8,7.1,33-4.5,1-21.8-21.9,5.5,25.5-4,.8Z"/>
      <path class="cls-1" d="m705.2,103.4l-.9-4.7c4,1.1,7.2,1.4,9.6.9,1.8-.3,3.2-1.1,4.1-2.3s1.3-2.6,1-4.1c-.2-1.3-.8-2.3-1.7-3.1-.9-.8-2.4-1.5-4.6-2.3l-2.5-.9c-3.1-1.1-5.3-2.3-6.7-3.5s-2.3-2.8-2.6-4.6c-.5-2.6,0-4.8,1.6-6.8,1.5-2,3.7-3.2,6.5-3.8,2.5-.5,5.3-.5,8.2-.2l.8,4.3c-3.7-.7-6.4-1-8.1-.6-1.6.3-2.9,1-3.7,2s-1.2,2.2-1,3.6c.2,1.1.8,2,1.7,2.7.9.7,2.5,1.5,4.8,2.3l2.6.9c3.1,1.1,5.4,2.3,6.8,3.5,1.4,1.2,2.3,2.9,2.6,4.9.5,2.9,0,5.4-1.9,7.5-1.8,2.1-4.4,3.5-7.8,4.2-2.2.4-5.1.4-8.7,0Z"/>
      <path class="cls-1" d="m745.8,97l-4.7-33.4,10.9-1.5c3.3-.5,5.9-.5,8.1,0,2.1.5,4,1.5,5.7,3,2.7,2.5,4.4,6,5,10.6.7,5.2,0,9.5-2.3,13.1-1.2,2-2.8,3.5-4.6,4.5s-4.2,1.8-7.1,2.2l-11,1.5Zm4.2-4.2l6-.8c4.3-.6,7.1-2.2,8.6-4.8,1.6-2.8,2.1-6.2,1.5-10.4-.6-3.9-1.9-6.9-4.1-8.9-1.3-1.2-2.8-2-4.5-2.2-1.7-.3-4.1-.2-7.3.2l-3.8.5,3.7,26.3Z"/>
      <path class="cls-1" d="m779.7,92.4l-3.7-33.5,18.5-2.1.4,3.6-13.8,1.5,1.2,10.8,11.5-1.3.4,3.5-11.5,1.3,1.4,12.1,14.7-1.6.4,3.6-19.4,2.2Z"/>
      <path class="cls-1" d="m848.6,93.2c-5.3-1.4-9.8-3.1-13.5-5.2-1.4.2-2.5.4-3.2.5-4.5.3-8.2-1.1-11.2-4.2-3-3.1-4.7-7.2-5.1-12.5-.4-5.4.7-9.7,3.3-13.1,2.6-3.4,6.2-5.3,11-5.6,4.7-.3,8.6,1,11.6,4,3,3,4.7,7.2,5.1,12.6.5,7.7-1.9,13.3-7.4,16.6,3.9,1.4,8,2.4,12.1,2.8l-2.7,4Zm-16.5-8.4c3.3-.2,5.8-1.6,7.5-4.3,1.7-2.6,2.4-6.1,2.1-10.6-.3-4.4-1.5-7.8-3.5-10.2-2-2.4-4.7-3.4-8-3.2-3.3.2-5.8,1.6-7.5,4.2-1.7,2.6-2.4,6.1-2.1,10.5.3,4.4,1.5,7.8,3.5,10.2,2,2.4,4.7,3.4,8,3.2Z"/>
      <path class="cls-1" d="m852.5,52.5l4.7-.2.8,21.3c.1,3.4.8,5.8,2.1,7.3,1.3,1.5,3.3,2.2,6,2.1,2.6,0,4.5-.9,5.5-2.4,1-1.5,1.5-4,1.4-7.4l-.8-21.4,4.2-.2.8,21.4c.1,2.9,0,5.2-.6,6.8-.5,1.6-1.5,3-2.9,4.3-1.8,1.6-4.3,2.4-7.6,2.5-4.2.2-7.3-.8-9.4-2.9-2.1-2.1-3.2-5.4-3.3-10l-.8-21.2Z"/>
      <path class="cls-1" d="m885.7,85.2l-.4-33.7,18.6-.2v3.6s-13.8.2-13.8.2v10.8c.1,0,11.7-.1,11.7-.1v3.5s-11.6.1-11.6.1v12.2c.1,0,15-.2,15-.2v3.6s-19.5.2-19.5.2Zm5.5-36.6l5.3-7.4h5.1c0,0-7.1,7.3-7.1,7.3h-3.3Z"/>
      <path class="cls-1" d="m910.4,85l.4-33.7h8.6c3.3.1,5.9.8,7.6,2.1,1.8,1.3,2.6,3.1,2.6,5.5,0,1.9-.6,3.7-1.8,5.2-1.2,1.5-2.9,2.7-5.1,3.5,5.4,1.8,8.1,4.8,8,9.2,0,2-.6,3.7-1.9,5.2-.9,1.2-2,2-3.3,2.4-1.3.5-3.1.7-5.4.6h-9.8Zm4.7-3.5h1c3.5,0,5.7-.1,6.7-.6,2-.8,2.9-2.3,3-4.6,0-2-.8-3.7-2.6-5-1.7-1.4-3.9-2-6.6-2.1h-1.3s-.2,12.3-.2,12.3Zm.2-15.3h1.5c2.5,0,4.5-.5,5.9-1.5,1.4-1.1,2.1-2.6,2.1-4.6,0-3.3-2.5-5-7.5-5h-1.8s-.1,11.2-.1,11.2Z"/>
      <path class="cls-1" d="m936.7,85.4l1.2-33.7,18.6.7v3.6c-.1,0-14-.5-14-.5l-.4,10.8,11.6.4v3.5c-.1,0-11.7-.4-11.7-.4l-.4,12.2,14.8.5v3.6c-.1,0-19.7-.7-19.7-.7Z"/>
      <path class="cls-1" d="m986.5,86.2c-3.4,1.5-7,2.1-10.9,1.9-5.2-.3-9-2.1-11.7-5.3-2.6-3.2-3.7-7.7-3.4-13.3.4-5.6,2.1-9.9,5.1-12.8,3.1-2.9,7.2-4.2,12.4-3.9,3,.2,6.4.9,10.3,2.1l-.3,4.5c-4.4-1.9-7.9-2.9-10.4-3-3.6-.2-6.5.8-8.6,3.2-2.1,2.3-3.3,5.8-3.6,10.3-.3,4.3.6,7.8,2.5,10.4s4.8,4,8.4,4.2c3.1.2,6.5-.6,10.2-2.3l-.3,4.1Z"/>
      <path class="cls-1" d="m1005.4,88.9l.5-4.7c3.5,2.1,6.5,3.3,8.9,3.6,1.8.2,3.4-.2,4.6-1,1.2-.9,1.9-2.1,2.1-3.7.1-1.3-.1-2.5-.8-3.5-.6-1-1.9-2.2-3.8-3.5l-2.1-1.6c-2.6-1.9-4.5-3.7-5.5-5.2-1-1.6-1.4-3.3-1.2-5.2.3-2.6,1.4-4.6,3.4-6.1,2-1.5,4.5-2.1,7.3-1.8,2.5.3,5.2,1,7.9,2.1l-.4,4.4c-3.3-1.8-5.9-2.7-7.6-2.9-1.6-.2-3,.1-4.2.9-1.1.8-1.8,1.8-1.9,3.1-.1,1.1.2,2.1.9,3.1s2,2.1,3.9,3.5l2.2,1.6c2.7,1.9,4.5,3.7,5.5,5.3s1.4,3.4,1.2,5.5c-.3,2.9-1.6,5.1-3.9,6.7-2.3,1.5-5.2,2.1-8.7,1.8-2.2-.2-5-1-8.4-2.4Z"/>
      <path class="cls-1" d="m1031.8,92.4l4.3-33.5,18.4,2.3-.5,3.5-13.7-1.8-1.4,10.7,11.5,1.5-.4,3.5-11.5-1.5-1.5,12.1,14.7,1.9-.5,3.5-19.4-2.5Z"/>
      <path class="cls-1" d="m1068.7,96.8l.8-4.7c3.4,2.4,6.3,3.7,8.7,4.1,1.8.3,3.4,0,4.6-.7,1.3-.8,2-2,2.3-3.6.2-1.3,0-2.5-.5-3.5-.6-1-1.8-2.3-3.5-3.7l-2-1.7c-2.5-2.1-4.2-3.9-5.1-5.6-.9-1.6-1.2-3.4-.9-5.3.4-2.6,1.7-4.5,3.8-5.9,2.1-1.4,4.6-1.8,7.4-1.3,2.5.4,5.1,1.3,7.8,2.6l-.7,4.3c-3.2-2-5.7-3.1-7.4-3.4-1.6-.3-3,0-4.2.6-1.2.7-1.9,1.7-2.1,3-.2,1.1,0,2.2.7,3.1.6,1,1.9,2.2,3.7,3.8l2.1,1.7c2.6,2.1,4.3,4,5.2,5.6.9,1.6,1.2,3.5.8,5.5-.5,2.9-1.9,5-4.3,6.4-2.4,1.4-5.3,1.8-8.8,1.2-2.2-.4-5-1.3-8.2-2.9Z"/>
      <path class="cls-1" d="m1108,105.3c-4.6-.9-8-3.2-10.2-6.9-2.1-3.7-2.7-8.2-1.7-13.5,1-5.3,3.3-9.2,6.6-11.8,3.4-2.6,7.4-3.5,12-2.5,4.6.9,8,3.2,10.2,6.9,2.1,3.7,2.7,8.2,1.7,13.5-1,5.3-3.3,9.2-6.6,11.8-3.4,2.6-7.4,3.5-12,2.5Zm.7-3.5c3.2.6,6,0,8.3-2.2s3.9-5.3,4.7-9.7c.9-4.3.6-7.9-.7-10.7-1.3-2.8-3.6-4.5-6.9-5.2-3.2-.6-6,0-8.3,2.2-2.3,2.1-3.9,5.3-4.7,9.6-.9,4.4-.6,8,.7,10.8s3.6,4.5,6.9,5.2Z"/>
      <path class="cls-1" d="m1136.9,75.9l4.6,1.1-4.8,20.7c-.8,3.3-.7,5.8.1,7.6s2.6,3,5.2,3.6c2.6.6,4.5.3,5.9-.9,1.4-1.2,2.5-3.4,3.3-6.8l4.8-20.9,4,.9-4.8,20.8c-.7,2.9-1.5,5-2.4,6.4-.9,1.4-2.2,2.5-3.9,3.4-2.1,1-4.8,1.2-8,.4-4.1-1-6.9-2.7-8.3-5.3-1.4-2.5-1.7-6.1-.6-10.5l4.8-20.7Z"/>
      <path class="cls-1" d="m1169.1,118.5l-3.5-35.8,4.5,1.2,2.9,29.3,16.7-24.1,4,1.1-20.3,29.5-4.3-1.1Z"/>
      <path class="cls-1" d="m1189.2,124l9.4-32.4,4.5,1.3-9.4,32.4-4.5-1.3Z"/>
      <path class="cls-1" d="m1201.8,127.6l10-32.2,17.7,5.5-1.1,3.4-13.2-4.1-3.2,10.3,11.1,3.4-1,3.4-11.1-3.4-3.6,11.7,14.2,4.4-1.1,3.4-18.7-5.8Z"/>
      <path class="cls-1" d="m1225.3,135l11-31.9,4.4,1.5,7.3,30.1,8.5-24.6,3.8,1.3-11,31.9-4.4-1.5-7.3-30.1-8.5,24.6-3.8-1.3Z"/>
      <path class="cls-1" d="m1257.1,146.2l12.2-31.5,4.3,1.7,6.2,30.3,9.4-24.3,3.8,1.5-12.2,31.5-4.3-1.7-6.2-30.3-9.4,24.3-3.8-1.5Z"/>
      <path class="cls-1" d="m1288.5,158.5l13.2-31,17.1,7.3-1.4,3.3-12.8-5.4-4.2,10,10.7,4.5-1.4,3.3-10.7-4.5-4.8,11.2,13.6,5.8-1.4,3.3-18-7.6Z"/>
      <path class="cls-1" d="m1311.2,168.3l14.2-30.6,4.2,2,4.2,30.7,11-23.6,3.7,1.7-14.2,30.6-4.2-1.9-4.2-30.7-11,23.6-3.7-1.7Z"/>
      <path class="cls-1" d="m1348.7,186.3l13.7-26.8-10.5-5.4,1.6-3.2,25.2,12.9-1.6,3.2-10.5-5.4-13.7,26.8-4.2-2.1Z"/>
    </g>
    <g id="motif">
      <path class="cls-3" d="m89.9,714.8c3.3,4.7,8.3,7.1,13,9.8,2.1,1.1,4.2,3.3,6.7-.8,1.1-1.8,6.4-1.6,9.3.6,2.6,2,2.1,5.3,1.2,7.8-1.3,3.9-5.5,3.7-7.9,2.6-11.3-5-16.2,3.7-22,9.9-2.6,2.7-4,6.6-5.9,10-2.7-1.8-5.2-3.5-7.6-5.1,5.3-6,11-11.2,17.7-15.6-7.1-.9-12.9,2.7-17.9,6.7-4.8,3.7-8.6,5.3-13.1-.2,7.5-5.7,16.3-8.5,26-9.5-3.1-6.6-10.6-3.8-14.8-7.5.7-1.3,1.3-2.7,2-4,2.9,1.2,5.8,2.5,8.8,3.6,1.4.5,3.1,3.5,4.4.5.9-2-1.6-3-3.1-4.1,0-2.3,1.2-3.7,3.1-4.7Z"/>
      <path class="cls-3" d="m83.7,729.1c-8.4.8-16.6,1.8-24.2,4.5-4.7,1.7-7.1-.6-10-2.8-.8-.6-1.7-1.5-.5-2.7,2.7-2.8,6.4-4.2,9.7-3.3,8.2,2.4,16.6,3.3,25,4.3Z"/>
      <path class="cls-4" d="m89.9,714.8c-1.9,1-3.1,2.4-3.1,4.7-2.5-2.2-5-4.6-7.6-6.7-2.5-2-4-3.5-.6-6.4,3-2.5,4.9-1.8,6.7.8,1.7,2.4,3.1,5,4.7,7.5Z"/>
      <path class="cls-4" d="m76.7,719.6c-.7,1.3-1.3,2.7-2,4-2.3-.8-5-1-6.8-2.5-1.5-1.2-6.7-.3-4-4.1,1.2-1.8,4.5-5.1,8.2-1.9,1.6,1.4,3.9,2.2,4.6,4.5Z"/>
    </g>
    <g id="motif-2" data-name="motif">
      <path class="cls-3" d="m1749,749.7c-3.3-4.7-8.3-7.1-13-9.8-2.1-1.1-4.2-3.3-6.7.8-1.1,1.8-6.4,1.6-9.3-.6-2.6-2-2.1-5.3-1.2-7.8,1.3-3.9,5.5-3.7,7.9-2.6,11.3,5,16.2-3.7,22-9.9,2.6-2.7,4-6.6,5.9-10,2.7,1.8,5.2,3.5,7.6,5.1-5.3,6-11,11.2-17.7,15.6,7.1.9,12.9-2.7,17.9-6.7,4.8-3.7,8.6-5.3,13.1.2-7.5,5.7-16.3,8.5-26,9.5,3.1,6.6,10.6,3.8,14.8,7.5-.7,1.3-1.3,2.7-2,4-2.9-1.2-5.8-2.5-8.8-3.6-1.4-.5-3.1-3.5-4.4-.5-.9,2,1.6,3,3.1,4.1,0,2.3-1.2,3.7-3.1,4.7Z"/>
      <path class="cls-3" d="m1755.2,735.4c8.4-.8,16.6-1.8,24.2-4.5,4.7-1.7,7.1.6,10,2.8.8.6,1.7,1.5.5,2.7-2.7,2.8-6.4,4.2-9.7,3.3-8.2-2.4-16.6-3.3-25-4.3Z"/>
      <path class="cls-4" d="m1749,749.7c1.9-1,3.1-2.4,3.1-4.7,2.5,2.2,5,4.6,7.6,6.7,2.5,2,4,3.5.6,6.4-3,2.5-4.9,1.8-6.7-.8-1.7-2.4-3.1-5-4.7-7.5Z"/>
      <path class="cls-4" d="m1762.2,744.9c.7-1.3,1.3-2.7,2-4,2.3.8,5,1,6.8,2.5,1.5,1.2,6.7.3,4,4.1-1.2,1.8-4.5,5.1-8.2,1.9-1.6-1.4-3.9-2.2-4.6-4.5Z"/>
    </g>
    <g id="motif-3" data-name="motif">
      <path class="cls-3" d="m917.2,1300.2c4.7-3.3,7.1-8.3,9.8-13,1.1-2.1,3.3-4.2-.8-6.7-1.8-1.1-1.6-6.4.6-9.3,2-2.6,5.3-2.1,7.8-1.2,3.9,1.3,3.7,5.5,2.6,7.9-5,11.3,3.7,16.2,9.9,22,2.7,2.6,6.6,4,10,5.9-1.8,2.7-3.5,5.2-5.1,7.6-6-5.3-11.2-11-15.6-17.7-.9,7.1,2.7,12.9,6.7,17.9,3.7,4.8,5.3,8.6-.2,13.1-5.7-7.5-8.5-16.3-9.5-26-6.6,3.1-3.8,10.6-7.5,14.8-1.3-.7-2.7-1.3-4-2,1.2-2.9,2.5-5.8,3.6-8.8.5-1.4,3.5-3.1.5-4.4-2-.9-3,1.6-4.1,3.1-2.3,0-3.7-1.2-4.7-3.1Z"/>
      <path class="cls-3" d="m931.5,1306.4c.8,8.4,1.8,16.6,4.5,24.2,1.7,4.7-.6,7.1-2.8,10-.6.8-1.5,1.7-2.7.5-2.8-2.7-4.2-6.4-3.3-9.7,2.4-8.2,3.3-16.6,4.3-25Z"/>
      <path class="cls-4" d="m917.2,1300.2c1,1.9,2.4,3.1,4.7,3.1-2.2,2.5-4.6,5-6.7,7.6-2,2.5-3.5,4-6.4.6-2.5-3-1.8-4.9.8-6.7,2.4-1.7,5-3.1,7.5-4.7Z"/>
      <path class="cls-4" d="m922,1313.4c1.3.7,2.7,1.3,4,2-.8,2.3-1,5-2.5,6.8-1.2,1.5-.3,6.7-4.1,4-1.8-1.2-5.1-4.5-1.9-8.2,1.4-1.6,2.2-3.9,4.5-4.6Z"/>
    </g>
    <g id="villedeqc">
      <g>
        <path class="cls-1" d="m808.7,1096.8c0,.2,1.2.4,1.2.9v9.4h8.1l.7-2.7s-.2,0-.4.1c-.4.4-.7,1.6-2.6,1.6h-3.9v-4.2h4.3v-1h-4.3v-3.5h4.2c.8,0,1.2.6,1.7.7.1,0,.2,0,.2,0l-.6-1.7h-8.6v.2Z"/>
        <path class="cls-1" d="m801.3,1107.1c1.1,0,2.2-.2,3.1-.6,1.9-.9,3.2-2.6,3.2-4.7,0-3.1-2.3-5.2-6.7-5.2h-4v.2c0,.2,1.2.4,1.2,1v9.4h3.4Zm2.3-1.3c-.6.3-1.3.4-1.9.4h-1.8v-8.6h.2c4.7,0,5.7,2.7,5.7,4.5s-1,3-2.2,3.6Z"/>
        <path class="cls-1" d="m743.3,1094.4c0,.3,1,.2,1.4,1l4.9,11.7h1.5l4.9-12.8h-2.8v.2c0,.3,1,.1,1,.7,0,.2-.2.9-.4,1.4l-3.1,8.4h0l-4.3-10.6h-3v.2Z"/>
        <path class="cls-1" d="m781.5,1096.8c0,.2,1.2.4,1.2.9v9.4h8.1l.7-2.7s-.2,0-.4.1c-.4.4-.7,1.6-2.6,1.6h-3.9v-4.2h4.3v-1h-4.3v-3.5h4.2c.8,0,1.2.6,1.7.7.1,0,.2,0,.2,0l-.6-1.7h-8.6v.2Z"/>
        <path class="cls-1" d="m771.8,1096.6v.2c0,.2,1.2.4,1.2.9v9.4h7.6l.7-2.7s-.2,0-.4.1c-.4.4-.7,1.6-2.6,1.6h-3.4v-9.5h-3.1Z"/>
        <path class="cls-1" d="m762,1096.6v.2c0,.2,1.2.4,1.2.9v9.4h7.6l.7-2.7s-.2,0-.4.1c-.4.4-.7,1.6-2.6,1.6h-3.4v-9.5h-3.1Z"/>
        <path class="cls-1" d="m759.8,1107.1v-10.5h-3.1v.2c0,.2,1.2.4,1.2.9v9.4h2Z"/>
      </g>
      <g>
        <path class="cls-1" d="m809.3,1116.2c1.2-.3,5.5-2.6,8.3-4.1h-4.9l-4.3,3.9s.4.3.9.2Z"/>
        <path class="cls-1" d="m791.5,1118.2v.3c0,.5,2.4.7,2.4,1.9v11.5c0,3.5-2.7,5.6-6,5.6s-6-2.3-6-5.7v-13.5h-6v.3c0,.5,2,.7,2,2.1v10.6c0,5.1,3.4,8,9.8,8s4.7-1,6.3-2.4v2h6v-.3c0-.5-2-.7-2-2.1v-18.2h-6.5Z"/>
        <path class="cls-1" d="m887.5,1123.6c-.2-1.6-.3-3.3-.4-4.9-1.8-.7-4-1-6-1-6.5,0-13.8,3.4-13.8,11s7,10.8,12.1,10.8,6.6-.8,8.7-2.5l.2-1.8c-2.2,1.2-4.8,2.1-7.5,2.1-5.5,0-9.8-4.6-9.8-9.6s3.4-7.9,9.1-7.9,4.1.4,5.5,1.7c.7.6,1.1,2.2,1.5,2.2h.3Z"/>
        <path class="cls-1" d="m801.8,1118.5c0,.5,2.4.7,2.4,1.9v18.5h16.8l1.5-5.4s-.5,0-.9.3c-.8.8-1.5,3.2-5.3,3.2h-8.1v-8.2h9v-1.9h-9v-6.9h8.7c1.7,0,2.5,1.2,3.5,1.5.2,0,.5,0,.5,0l-1.3-3.3h-17.9v.3Z"/>
        <path class="cls-1" d="m845.2,1118.5c0,.5,2.4.7,2.4,1.9v18.5h16.8l1.5-5.4s-.5,0-.9.3c-.8.8-1.5,3.2-5.3,3.2h-8v-8.2h9v-1.9h-9v-6.9h8.7c1.7,0,2.5,1.2,3.5,1.5.2,0,.5,0,.5,0l-1.3-3.3h-17.9v.3Z"/>
        <path class="cls-1" d="m823.3,1118.2v.3c0,.5,2.4.7,2.4,1.9v18.5h7.9c1.9,0,3.5-.1,4.9-.5,3.9-1,5.8-3.3,5.8-5.6,0-3.5-3.4-4.8-7.1-5.1h0c2.8-.8,4.9-2,4.9-4.6,0-3.7-3.8-4.8-8.9-4.8h-9.9Zm9.9,1.8c.9,0,1.7,0,2.5.2,1.7.4,2.9,1.4,2.9,3.2s-1.2,2.8-3.6,3.4c-.9.2-2,.2-3.2.2h-1.9v-7h3.3Zm.4,8.8c1,0,2,0,2.8.2,2.7.5,4.2,1.9,4.2,4.1s-1.6,3.2-4.4,3.7c-1.1.2-2.4.2-3.8.2h-2.4v-8.2h3.7Z"/>
        <path class="cls-1" d="m791.3,1144.2c0,.2-.2.4-.4.5-2.2,1.1-6.3,2.9-11.5,2.9s-9.3-1.6-15.4-5.3l-4.4-2.8c-.6,0-1.1,0-1.7,0-8.3-.2-14.6-6.4-14.1-13.9.5-7.4,7.6-13.2,15.9-13,8.3.2,14.6,6.4,14.1,13.9-.4,5.4-4.2,9.9-9.5,11.9l4,2.3c7.7,4.2,12.5,4.6,15,4.6s4.6-.3,7.1-1.4c.2,0,.4-.2.5-.2s.3.2.3.3Zm-33.1-28.7c-5.9,0-10.4,4.7-10.1,10.6.3,5.9,5.3,10.6,11.2,10.6,5.9,0,10.4-4.7,10.1-10.6-.3-5.9-5.3-10.6-11.2-10.6Z"/>
      </g>
      <g>
        <path class="cls-1" d="m843.9,1079.6c-2.7-3.8-3.4-8.9,2.5-10.6l9.7-1.9c-2.3,2.1-3,5.6,0,10.4-5.7-2.8-12.7-2.4-12.2,2Z"/>
        <path class="cls-1" d="m873.5,1074.4c-3.4-5.1-1.9-9.2,0-11.1l-12.9,2.8c-5.7,2.4-4.3,7.8-2.2,10.9-.4-4,5.6-6,15.1-2.5Z"/>
        <path class="cls-1" d="m862.6,1095c-11.2-9.4-7-15.7-3.1-17.6l14.3-2.7c-6.4,6.6-4,14.3-.8,18.1-5.6-3.1-13.4-3.4-10.3,2.1Z"/>
        <path class="cls-1" d="m850.4,1091.5c-2,.1-2.9,1.4-2.7,2.8-4.5-3.3-7.4-9-3.7-14l12.2-2.3c-2.9,2.7-4.7,9.1,4.3,16.8-3-.9-6.2-3.6-10.2-3.3Z"/>
        <path class="cls-1" d="m884.6,1073.2c-7.1,1.5-19.2,7.3-10.1,19-1.5-4.6,3.3-5.1,10.2-4-4.2-2.8-7.2-8.5,0-15Z"/>
        <path class="cls-1" d="m869.5,1096.5l.4-1.1,2.3-.2.9-1.8,6.9-2.1.6-1.5,6-2c1,2.4.3,4.8-.9,6.7-.7,1.2-1.7,2.1-2.3,2.9-1.8,2.2-1.3,5.8.7,9.6h-33.2c-2.8-2.6-3.8-5.1-5.1-7.7-1.3-2.6-2.8-3.7-6.8-6.4-.9-.6-.4-1.5.6-.9l2.9,1.7c7.9,2.8,18,3,27,2.7Z"/>
        <path class="cls-1" d="m831.9,1084.2h1.4c-2.1-1.4-3.9-2.7-4.3-3-.7-.4-.8.1-.4.4l3.4,2.6Z"/>
        <path class="cls-1" d="m838.2,1087.7s-.5,1,0,1.6l3.9,3.3,4,1.1-7.8-6Z"/>
        <path class="cls-1" d="m849.7,1059.5c0-.6.3-.7.3,0,0,.6.6,6.8.7,7.3,0,.5,0,.6-.2.7-.2,0-.4,0-.6.1-.2,0-.3,0-.3-.4,0-.3,0-6.6.2-7.7Z"/>
        <path class="cls-1" d="m866.6,1054.3c0-.3,0-.5.2-.5.1,0,.2.2.2.4,0,.4.6,9.1.6,9.4,0,.3,0,.4-.2.4-.2,0-.3,0-.6.1-.2,0-.4,0-.4-.3s.2-9.1.2-9.5Z"/>
        <path class="cls-1" d="m877.8,1064.6c0-.4.3-.5.3,0,0,.4.5,9.2.5,9.7s0,.5-.2.6c-.2,0-.3.1-.5.2-.2,0-.3,0-.3-.2s.1-7.7.2-10.3Z"/>
        <path class="cls-1" d="m872.8,1067.8c-.2-.3,0-.3,0-.3.3,0,1.1.2,1.7-.2.6-.3,1.2-.7,1.8-.8.8-.2,1.1,0,.8.4-.6.7-.6,1.7-.1,2.5.2.3.2.4-.1.4-1.7-.2-2.4-.6-3.7.2-.3.2-.4,0-.3-.1.3-.5.6-.8,1.1-1.1.2-.1.2-.2,0-.3-.6-.2-1.1-.6-1.2-.8Z"/>
        <path class="cls-1" d="m865.9,1056.6c-1.1.5-1.8.4-2.3.1-.3-.1-.5-.3-.7-.3-.9-.3-1.4-.2-2,.3-.7.5-1.4.8-2.3,1-.5.1-1,.3-1.4.6-.5.4-.8.9-.9,1.3-.1.3,0,.4.2.3.9-.3,1.1-.5,2.3-.2,1.4.3,2,.4,3.4,0,1.3-.5,2-.6,2.8-.1.3.2.7.5.9.4.1-.2-.2-.4-.3-.7-.3-1,.1-1.8.5-2.3,0-.1,0-.3-.1-.2Z"/>
        <path class="cls-1" d="m848.9,1062.9c-.3-.5-.2-1.3,0-2,.1-.4-.4-.5-1.3-.3-.8.3-1.4.7-2.5.8-.9,0-1.7,0-2.1-.2-.3,0-.2,0,0,.3.1.2.5.5.9.7.2,0,.1.2,0,.4-.2.2-.4.4-.9.6,0,0-.2.1.2.3.6.3,1.7.5,3.1,0,.7-.2,1.1-.5,1.8-.5.8,0,1,0,.7-.4Z"/>
        <path class="cls-1" d="m887.8,1082.9c0,.6-.5,1.1-1.1,1.1s-1.1-.5-1.1-1.1.5-1.1,1.1-1.1,1.1.5,1.1,1.1Z"/>
        <path class="cls-1" d="m888.2,1083.7c-.3.5-.8.9-1.5.9s-1.2-.4-1.5-.9c-.4.4-.5.7-.5.7l.6.4.5,2.6h1.8l.5-2.6.6-.4s0-.2-.5-.7Z"/>
        <path class="cls-1" d="m883.7,1098.8c-.9,1.8-.4,4.6,1.2,7.8l.2.4h2s.1-1.2-1.6-3.7c-1.6-2.3-1.8-4.1-1.8-4.6Z"/>
        <path class="cls-1" d="m840.1,1095.3c.2.1.1.2,0,.1-.2-.1-1.1-.7-1.6-.9-7,6.3-15.5-4.6-9-9.5l9-.3c-2.9,5.2-1,8.7,1.6,10.6Zm-1.9-.9c-3.2-1.8-6.3-2-6.9-.4-.8,2.2,4.4,3.1,6.9.4Z"/>
      </g>
    </g>
    <g id="quebec">
      <g>
        <path class="cls-1" d="m1034.5,1134.3v-24h-.2c-.9.8-4,.8-5.3.8h-2.3v.2c2.7,1.6,2.3,4.1,2.3,7.1v10.2c0,5.1-5,8.6-9,8.6s-7.5-3.8-7.5-9.8v-17.1h-.2c-.9.8-4,.8-5.4.8h-2.3v.2c2.7,1.6,2.3,4.1,2.3,7.1v10.1c0,9.3,4,13.7,11.2,13.7s8.6-1.5,10.8-5.1v4.4h7.8v-.2c-2.7-1.5-2.3-4-2.3-7Z"/>
        <path class="cls-1" d="m1046.7,1121.5c.7-4.1,3.8-6.7,7.9-6.7s7.2,2.2,7.9,6.7h-15.7Zm22.1,3.8c.2-8.5-5.4-14.9-13.7-14.9s-15.2,6.6-15.2,15.7,7.1,16.2,17.5,16.2,5.8-.5,8.4-1.6l3-6.2h-.2c-2.8,2.4-6.3,3.5-10,3.5-6.9,0-12.1-4.7-12.2-12.8h22.4Z"/>
        <path class="cls-1" d="m1073.6,1096.4c1.5,0,4.4,0,5.3-1h.2v41.6c1.6.5,3.3.8,5,.8,6.7,0,10.5-4.7,10.5-11.1s-3-11.3-9.1-11.3-3.4.5-5.1,1.4l3.3-5.6c1.4-.5,2.8-.7,4.3-.7,6.9,0,12.8,6,12.8,15s-7,16.9-18,16.9-8.1-.7-11-1.2v-.2c2-.9,1.8-3.1,1.8-5.3v-30.2c0-3,.4-7.3-2.3-8.9v-.2h2.3Z"/>
        <path class="cls-1" d="m1111.6,1121.5c.7-4.1,3.8-6.7,7.9-6.7s7.2,2.2,7.9,6.7h-15.7Zm22.1,3.8c.2-8.5-5.4-14.9-13.7-14.9s-15.2,6.6-15.2,15.7,7.1,16.2,17.5,16.2,5.8-.5,8.4-1.6l3-6.2h-.2c-2.8,2.4-6.3,3.5-10,3.5-6.9,0-12.1-4.7-12.2-12.8h22.3Z"/>
        <path class="cls-1" d="m1161,1117.9h-.2c-1.8-2.2-4.7-3.2-7.4-3.2-5.9,0-10.2,4.5-10.2,10.7s5.9,12.6,12.7,12.6,6.5-1.3,8.9-3.2h.2l-3.2,6.2c-2.6,1-5.4,1.3-8,1.3-9.4,0-16.7-6.6-16.7-15.2s8.2-16.8,17.4-16.8,4.4.3,6.6.8v6.7Z"/>
        <path class="cls-2" d="m1061.2,1105v-6.6c-4,1.8-7.7,5.1-10.2,8.4v2.6c5.9-4,10.2-4.2,10.2-4.4Z"/>
        <path class="cls-1" d="m979.6,1137.8c-9.2,0-15.6-10.4-15.6-19.2s0-.9,0-1c.1-8.5,5.6-16.5,15.3-16.5s15.4,9.6,15.5,18.7v.9c0,9.7-6,17.1-15.2,17.1Zm31.5,10.1c-6.8,1.1-13.3-1-20.3-9,6.7-3.4,10.8-11.7,10.8-19.5s0-.9,0-1c-.1-13.3-10.1-22.1-22-22.1s-22.5,9.2-22.6,22.6c0,0,0,.8,0,.9,0,13.1,9.7,22.7,21.6,22.7s3.3-.3,5-.7c7.8,7.3,14.7,10.4,20.7,9.7,2.8-.3,5.8-1.5,7.6-3.8h-.8Z"/>
      </g>
      <g>
        <path class="cls-1" d="m1189.5,1112.2c-1.9.6-1.9-1.1-1.9-1.1,1.7.3,1.8-1.1,1.8-1.1h-3.3v-1.6h1.6s-.3-2.1-1.8-2.1-1.6,1.6-1.4,2.2c-.7.1-1.8-1.1-1.8-2.6s1.5-2.8,2.8-2.8c2.1,0,3.6,2.4,3.6,5.2h.6s.1-1.4-.2-2.6c-.4-2-1.4-3.1-1.4-4.4,0-2.3,1.4-2.7,2.5-4.7,1.1,2,2.5,2.4,2.5,4.7,0,1.3-1,2.5-1.4,4.4-.3,1.2-.1,2.6-.1,2.6h.6c0-2.8,1.6-5.2,3.6-5.2s2.8,1,2.8,2.8-1,2.7-1.8,2.6c.3-.7,0-2.2-1.4-2.2s-1.8,2.1-1.8,2.1h1.6v1.6h-3.3s.2,1.4,1.8,1.1c0,0,0,1.7-1.9,1.1,0,0,0,1.5-1.2,2-1.1-.5-1.2-2-1.2-2Zm16-15.8h-29.7v18.2h29.7v-18.2Z"/>
        <path class="cls-1" d="m1227.8,1112.2c-1.9.6-1.9-1.1-1.9-1.1,1.7.3,1.8-1.1,1.8-1.1h-3.3v-1.6h1.6s-.3-2.1-1.8-2.1-1.6,1.6-1.4,2.2c-.7.1-1.8-1.1-1.8-2.6s1.5-2.8,2.8-2.8c2.1,0,3.6,2.4,3.6,5.2h.6s.1-1.4-.1-2.6c-.4-2-1.4-3.1-1.4-4.4,0-2.3,1.4-2.7,2.5-4.7,1.1,2,2.5,2.4,2.5,4.7,0,1.3-1,2.5-1.4,4.4-.3,1.2-.1,2.6-.1,2.6h.6c0-2.8,1.6-5.2,3.6-5.2s2.8,1,2.8,2.8-1,2.7-1.8,2.6c.3-.7,0-2.2-1.4-2.2s-1.8,2.1-1.8,2.1h1.6v1.6h-3.3s.2,1.4,1.8,1.1c0,0,0,1.7-1.9,1.1,0,0,0,1.5-1.2,2-1.1-.5-1.2-2-1.2-2Zm16-15.8h-29.7v18.2h29.7v-18.2Z"/>
        <path class="cls-1" d="m1189.5,1139.1c-1.9.6-1.9-1.1-1.9-1.1,1.7.3,1.8-1.1,1.8-1.1h-3.3v-1.6h1.6s-.3-2.1-1.8-2.1-1.6,1.6-1.4,2.2c-.7.1-1.8-1.1-1.8-2.6s1.5-2.8,2.8-2.8c2.1,0,3.6,2.4,3.6,5.2h.6s.1-1.4-.2-2.6c-.4-2-1.4-3.1-1.4-4.4,0-2.3,1.4-2.7,2.5-4.7,1.1,2,2.5,2.4,2.5,4.7,0,1.3-1,2.5-1.4,4.4-.3,1.2-.1,2.6-.1,2.6h.6c0-2.8,1.6-5.2,3.6-5.2s2.8,1,2.8,2.8-1,2.7-1.8,2.6c.3-.7,0-2.2-1.4-2.2s-1.8,2.1-1.8,2.1h1.6v1.6h-3.3s.2,1.4,1.8,1.1c0,0,0,1.7-1.9,1.1,0,0,0,1.5-1.2,2-1.1-.5-1.2-2-1.2-2Zm16-15.8h-29.7v18.2h29.7v-18.2Z"/>
        <path class="cls-1" d="m1227.8,1139.1c-1.9.6-1.9-1.1-1.9-1.1,1.7.3,1.8-1.1,1.8-1.1h-3.3v-1.6h1.6s-.3-2.1-1.8-2.1-1.6,1.6-1.4,2.2c-.7.1-1.8-1.1-1.8-2.6s1.5-2.8,2.8-2.8c2.1,0,3.6,2.4,3.6,5.2h.6s.1-1.4-.1-2.6c-.4-2-1.4-3.1-1.4-4.4,0-2.3,1.4-2.7,2.5-4.7,1.1,2,2.5,2.4,2.5,4.7,0,1.3-1,2.5-1.4,4.4-.3,1.2-.1,2.6-.1,2.6h.6c0-2.8,1.6-5.2,3.6-5.2s2.8,1,2.8,2.8-1,2.7-1.8,2.6c.3-.7,0-2.2-1.4-2.2s-1.8,2.1-1.8,2.1h1.6v1.6h-3.3s.2,1.4,1.8,1.1c0,0,0,1.7-1.9,1.1,0,0,0,1.5-1.2,2-1.1-.5-1.2-2-1.2-2Zm16-15.8h-29.7v18.2h29.7v-18.2Z"/>
      </g>
    </g>
    <g>
      <path class="cls-1" d="m641.7,671.5v-4l3.6-1.1c2.5-.9,4.3-2.1,5.1-3.5.9-1.5,1.3-3.5,1.3-6v-96.3c0-2.5-.4-4.6-1.2-6.1-.8-1.5-2.5-2.7-5-3.6l-3.8-1.1v-4h47v4l-3.2,1c-2.4.9-4.1,2.1-4.9,3.5-.9,1.5-1.3,3.5-1.3,6v43.8h47.4v-43.8c0-2.5-.4-4.5-1.3-6-.9-1.5-2.6-2.6-5.1-3.5l-3-1v-4h47v4l-3.6,1.1c-2.4.9-4.1,2.1-5,3.5-1,1.5-1.4,3.5-1.4,6v96.5c0,2.5.5,4.5,1.4,6,1,1.5,2.6,2.6,5,3.5l3.6,1.1v4h-47v-4l3-1c2.5-.9,4.2-2.1,5.1-3.5.9-1.5,1.3-3.5,1.3-6v-47.4h-47.4v47.4c0,2.5.5,4.5,1.4,6,1,1.5,2.6,2.6,5,3.5l3,1v4h-47Z"/>
      <path class="cls-1" d="m772.8,671.5v-4l3.8-1.3c2.3-.6,3.9-1.7,4.8-3.3.9-1.6,1.4-3.8,1.5-6.6v-95.8c-.1-2.7-.6-4.7-1.3-6.2-.8-1.5-2.4-2.6-4.8-3.3l-4-1.3v-4h90.6l1.3,30.5h-5.3l-7.6-17.1c-1-2.4-2.2-4.3-3.4-5.6-1.3-1.3-3.2-2-5.7-2h-32.4c-.1,7.9-.2,16-.2,24.3v28.1h18.8c2.5,0,4.5-.7,5.8-2,1.3-1.3,2.6-3.1,3.7-5.4l3.2-7.2h4.2v35.2h-4.2l-3.4-7.2c-1-2.3-2.2-4.1-3.4-5.5-1.3-1.4-3.2-2.1-5.7-2.1h-19v23.6c0,6.6,0,12.5,0,17.6,0,5.1,0,10.2,0,15.1h36.5c2.5,0,4.5-.7,5.9-2,1.4-1.3,2.5-3.2,3.4-5.6l7-17.1h5.3l-1.3,30.5h-94.4Z"/>
      <path class="cls-1" d="m880.6,671.5v-4l5.5-1.5c2.4-.6,4.1-1.8,5-3.6,1-1.8,1.4-3.9,1.4-6.5v-92.1c-1.1-2.4-2.1-4.2-3-5.4-.8-1.2-1.7-2.3-2.6-3.1-.9-.9-2.1-1.9-3.6-3l-3.4-2.5v-4h32.6l63.2,86.4v-70.6c0-2.5-.4-4.8-1.2-6.7-.8-1.9-2.5-3.2-5-3.8l-5.7-1.3v-4h28.4v4l-4.8,1.3c-2.4.8-3.9,2.1-4.5,3.9-.6,1.8-.9,4-.9,6.6v110.8h-10.7l-72.5-99.8v83.2c0,2.7.4,4.9,1.1,6.7.8,1.8,2.3,3,4.8,3.6l5.1,1.5v4h-29.3Z"/>
      <path class="cls-1" d="m1001.3,671.5v-4l4-1.1c2.5-.8,4.2-1.9,4.9-3.3.7-1.5,1-3.5,1-6.2.1-7.4.2-14.7.2-22.1v-52.2c0-7.4,0-14.7-.2-22.1,0-2.7-.3-4.7-1-6.2-.6-1.5-2.2-2.6-4.8-3.3l-4.2-1.3v-4h53.3c14.8,0,26.3,2.8,34.4,8.5,8.1,5.6,12.1,13.5,12.1,23.7s-2.2,11.2-6.6,16.9c-4.4,5.7-11.1,10.1-20.1,13.1l25.9,50.4c2.2,4.2,5.5,7,10.1,8.6l3.6.8v3.8h-33.7l-28.4-59.4h-13.7v24.4c0,7.2,0,14,.2,20.4,0,2.5.4,4.6,1.2,6.1.8,1.5,2.4,2.6,4.9,3.2l4.6,1.3v4h-47.8Zm36.9-64.9h10.3c9,0,15.6-2.3,19.8-6.9,4.2-4.6,6.3-11.5,6.3-20.9s-2-16.3-6-20.8c-4-4.5-10.4-6.8-19.3-6.8h-10.9c0,4.9,0,10,0,15.1,0,5.1,0,10.9,0,17.3v22.9Z"/>
      <path class="cls-1" d="m1138.1,671.5v-4l5.5-1.3c2.5-.6,4.3-1.7,5.3-3.2,1-1.5,1.6-3.6,1.7-6.1v-34.5l-30.6-62.6c-1.3-2.5-2.5-4.4-3.6-5.7-1.1-1.3-2.8-2.3-4.9-3l-3.4-1.3v-4h50.4v4l-3.4,1.1c-2.8.9-4.3,2.3-4.6,4.3-.3,2,.3,4.5,1.7,7.5l21.7,48,23.4-49.3c1.1-2.3,1.6-4.5,1.5-6.7-.1-2.2-1.5-3.6-4-4.2l-2.7-.8v-4h24.9v4l-3.8,1.1c-2.5.8-4.3,1.9-5.4,3.4-1.1,1.5-2.2,3.6-3.3,6.1l-26.5,55v41.5c0,5.2,2.3,8.3,6.9,9.3l5.7,1.3v4h-52.5Z"/>
    </g>
    <g>
      <path class="cls-1" d="m761,373.2v-17.3h2.5v15.5h7.8v1.8h-10.3Z"/>
      <path class="cls-1" d="m771.8,373.2l6.9-17.3h2.4l6.8,17.3h-2.7l-1.9-4.8h-7.4l-1.9,4.8h-2.3Zm4.9-6.6h5.9l-3-7.5-3,7.5Z"/>
      <path class="cls-1" d="m798,373.2v-17.3h3.4l4.8,13.4,4.9-13.4h3.1v17.3h-2.3v-14.1l-4.8,12.9h-2.4l-4.6-13v14.1h-2.1Z"/>
      <path class="cls-1" d="m816.6,373.2l6.9-17.3h2.4l6.8,17.3h-2.7l-1.9-4.8h-7.4l-1.9,4.8h-2.3Zm4.9-6.6h5.9l-3-7.5-3,7.5Z"/>
      <path class="cls-1" d="m835.2,373.2v-17.3h2.5v17.3h-2.5Z"/>
      <path class="cls-1" d="m841.1,372.9v-2.4c2,.9,3.6,1.4,4.8,1.4s1.7-.3,2.3-.8.9-1.2.9-2-.2-1.3-.6-1.7-1.1-1-2.1-1.6l-1.2-.7c-1.5-.8-2.5-1.6-3.1-2.4s-.9-1.6-.9-2.6.5-2.4,1.5-3.3,2.2-1.3,3.7-1.3,2.7.2,4.2.7v2.2c-1.8-.7-3.2-1.1-4.1-1.1s-1.6.2-2.1.7-.8,1-.8,1.7.2,1.1.6,1.5,1.1,1,2.2,1.6l1.2.7c1.5.9,2.5,1.7,3.1,2.4s.9,1.7.9,2.7c0,1.5-.6,2.7-1.7,3.6s-2.6,1.4-4.4,1.4-2.7-.3-4.5-.8Z"/>
      <path class="cls-1" d="m862.1,373.6c-2.5,0-4.4-.8-5.9-2.5s-2.2-3.9-2.2-6.6.7-5,2.2-6.6,3.4-2.5,5.9-2.5,4.4.8,5.9,2.5,2.2,3.9,2.2,6.6-.7,5-2.2,6.6-3.4,2.5-5.9,2.5Zm0-1.8c1.7,0,3.1-.6,4-1.9s1.5-3.1,1.5-5.4-.5-4-1.5-5.3-2.3-1.9-4-1.9-3.1.6-4,1.9-1.5,3.1-1.5,5.3.5,4.1,1.5,5.4,2.3,1.9,4,1.9Z"/>
      <path class="cls-1" d="m873.7,373.2v-17.3h2.4l8.7,13.4v-13.4h2.1v17.3h-2.4l-8.7-13.4v13.4h-2.1Z"/>
      <path class="cls-1" d="m899,373.2v-17.3h5.8c1.7,0,3.1.2,4.2.6s2,1,2.7,1.9c1.2,1.5,1.8,3.4,1.8,5.7s-.7,4.9-2.2,6.5c-.8.9-1.7,1.6-2.7,2s-2.3.6-3.8.6h-5.8Zm2.5-1.8h3.2c2.2,0,3.8-.6,4.8-1.8,1-1.3,1.5-3,1.5-5.2s-.5-3.6-1.5-4.8c-.6-.7-1.3-1.2-2.2-1.5s-2.1-.4-3.8-.4h-2v13.7Z"/>
      <path class="cls-1" d="m917.1,361.3v-.9c.8-.2,1.1-1.1,1.1-2.6v-.2h-1.1v-2.9h2.9v2.5c0,2.6-1,3.9-2.9,4.1Z"/>
      <path class="cls-1" d="m924.6,373.2v-17.3h9.7v1.8h-7.2v5.6h6.1v1.8h-6.1v6.3h7.7v1.8h-10.2Z"/>
      <path class="cls-1" d="m937.6,373.2v-17.3h2.4l8.7,13.4v-13.4h2.1v17.3h-2.4l-8.7-13.4v13.4h-2.1Z"/>
      <path class="cls-1" d="m955.3,373.2v-17.3h9.7v1.8h-7.2v5.8h6.1v1.8h-6.1v7.9h-2.5Z"/>
      <path class="cls-1" d="m966.2,373.2l6.9-17.3h2.4l6.8,17.3h-2.7l-1.9-4.8h-7.4l-1.9,4.8h-2.3Zm4.9-6.6h5.9l-3-7.5-3,7.5Z"/>
      <path class="cls-1" d="m984.8,373.2v-17.3h2.4l8.7,13.4v-13.4h2.1v17.3h-2.4l-8.7-13.4v13.4h-2.1Z"/>
      <path class="cls-1" d="m1015.5,372.3c-1.7.9-3.6,1.3-5.6,1.3s-4.8-.8-6.2-2.4-2.2-3.8-2.2-6.7.7-5.1,2.2-6.7,3.6-2.4,6.3-2.4,3.4.3,5.4.8v2.3c-2.4-.8-4.2-1.2-5.5-1.2-1.9,0-3.3.6-4.4,1.9s-1.5,3.1-1.5,5.4.6,4,1.7,5.2,2.6,1.9,4.5,1.9,3.4-.5,5.3-1.5v2.1Z"/>
      <path class="cls-1" d="m1019.1,373.2v-17.3h9.7v1.8h-7.2v5.6h6.1v1.8h-6.1v6.3h7.7v1.8h-10.2Z"/>
      <path class="cls-1" d="m1039.7,373.2v-17.3h5.8c1.7,0,3.1.2,4.2.6s2,1,2.7,1.9c1.2,1.5,1.8,3.4,1.8,5.7s-.7,4.9-2.2,6.5c-.8.9-1.7,1.6-2.7,2s-2.3.6-3.8.6h-5.8Zm2.5-1.8h3.2c2.2,0,3.8-.6,4.8-1.8,1-1.3,1.5-3,1.5-5.2s-.5-3.6-1.5-4.8c-.6-.7-1.3-1.2-2.2-1.5s-2.1-.4-3.8-.4h-2v13.7Z"/>
      <path class="cls-1" d="m1057.7,373.2v-17.3h9.7v1.8h-7.2v5.6h6.1v1.8h-6.1v6.3h7.7v1.8h-10.2Z"/>
    </g>
    <g>
      <path class="cls-1" d="m771.9,798.2c-5.4-4.3-9.5-9.3-12.4-14.9-2.9-5.6-4.4-11.7-4.4-18.3s1.5-12.7,4.4-18.3c2.9-5.6,7.1-10.5,12.4-14.8l1.5,1.3c-2.7,3.6-4.8,7.1-6.3,10.4-1.5,3.3-2.6,6.7-3.2,10.2-.6,3.5-.9,7.2-.9,11.2s.3,7.7.9,11.2c.6,3.5,1.7,6.9,3.2,10.3,1.5,3.3,3.6,6.8,6.3,10.5l-1.5,1.2Z"/>
      <path class="cls-1" d="m778.4,785.4v-1.4l2.8-.9c1.8-.6,2.8-1.8,2.8-3.7v-34.7l-6.1.8v-1.7c2.7-.5,5.4-1.2,8-2.2,2.6-.9,5.1-2.1,7.4-3.5l.9.7-.3,10.4v20.7c0,1.3,0,2.7,0,4.4,0,1.7,0,3.3,0,4.9s.9,3.1,2.8,3.7l3,.9v1.4h-21.5Z"/>
      <path class="cls-1" d="m837.7,757.3c0,4.9-1.1,9.4-3.4,13.4-2.2,4-5.5,7.4-9.9,10.2-4.3,2.8-9.7,4.7-16,5.9l-.5-1.9c4.2-1.1,7.7-2.5,10.3-4.2,2.7-1.8,4.7-3.9,6.1-6.5,1.4-2.6,2.4-5.6,2.8-9.2-1.1.7-2.4,1.3-3.9,1.7-1.5.4-3.2.6-5.1.6s-5.1-.5-7.3-1.6c-2.2-1.1-3.9-2.7-5.2-4.8-1.3-2.1-1.9-4.6-1.9-7.6s.8-5.9,2.3-8.2c1.5-2.3,3.5-4.1,6.1-5.3,2.6-1.3,5.3-1.9,8.4-1.9,5.5,0,9.7,1.7,12.7,5.2,2.9,3.5,4.4,8.2,4.4,14.2Zm-23.9-5c0,4.2.6,7.2,1.9,9.1,1.3,1.9,3.3,2.8,6.1,2.8s4.1-.4,5.8-1.3c.1-1.8.2-3.8.2-5.9,0-4.3-.2-7.7-.7-10.2-.5-2.5-1.2-4.2-2.2-5.3-1-1-2.4-1.6-4.1-1.6s-4,1-5.1,2.9c-1.2,1.9-1.8,5.1-1.8,9.5Z"/>
      <path class="cls-1" d="m858.4,786.4c-3.1,0-5.7-.3-7.8-1-2.1-.7-4.1-1.6-6.1-2.6l.7-9.5h2.1l2.6,5.7c1.7,3.6,4.4,5.4,8.2,5.4s4.2-.9,5.6-2.7c1.5-1.8,2.2-4.8,2.2-9s-.7-6.4-2-8c-1.3-1.6-3.4-2.4-6.3-2.4h-4.3v-2.2h3.9c2.6,0,4.5-.8,5.8-2.3,1.3-1.5,1.9-4.1,1.9-7.8s-.6-6-1.8-7.5c-1.2-1.5-2.7-2.3-4.5-2.3s-3.2.5-4.3,1.4c-1.1.9-2,2.2-2.7,3.7l-2.8,5.9h-2.2c0,0,.7-10.7.7-10.7,1.6-.7,3.3-1.3,5.3-1.8,1.9-.5,4.1-.7,6.5-.7,5,0,8.8,1.1,11.5,3.3s3.9,5,3.9,8.3-1,4.6-2.9,6.8c-1.9,2.1-4.9,3.7-8.9,4.6,4.6.4,8,1.8,10.1,4,2.1,2.2,3.2,4.9,3.2,8s-.7,4.9-2.1,6.9c-1.4,2-3.4,3.6-6.1,4.8-2.6,1.2-5.8,1.8-9.4,1.8Z"/>
      <path class="cls-1" d="m897,786.4c-3.1,0-5.7-.3-7.8-1-2.1-.7-4.1-1.6-6.1-2.6l.7-9.5h2.1l2.6,5.7c1.7,3.6,4.4,5.4,8.2,5.4s4.2-.9,5.6-2.7c1.5-1.8,2.2-4.8,2.2-9s-.7-6.4-2-8c-1.3-1.6-3.4-2.4-6.3-2.4h-4.3v-2.2h3.9c2.6,0,4.5-.8,5.8-2.3,1.3-1.5,1.9-4.1,1.9-7.8s-.6-6-1.8-7.5c-1.2-1.5-2.7-2.3-4.5-2.3s-3.2.5-4.3,1.4c-1.1.9-2,2.2-2.7,3.7l-2.8,5.9h-2.2c0,0,.7-10.7.7-10.7,1.6-.7,3.3-1.3,5.3-1.8,1.9-.5,4.1-.7,6.5-.7,5,0,8.8,1.1,11.5,3.3s3.9,5,3.9,8.3-1,4.6-2.9,6.8c-1.9,2.1-4.9,3.7-8.9,4.6,4.6.4,8,1.8,10.1,4,2.1,2.2,3.2,4.9,3.2,8s-.7,4.9-2.1,6.9c-1.4,2-3.4,3.6-6.1,4.8-2.6,1.2-5.8,1.8-9.4,1.8Z"/>
      <path class="cls-1" d="m920,768.4v-3.1h18.2v3.1h-18.2Z"/>
      <path class="cls-1" d="m943.3,785.4v-1.4l2.8-.9c1.8-.6,2.8-1.8,2.8-3.7v-34.7l-6.1.8v-1.7c2.7-.5,5.4-1.2,8-2.2,2.6-.9,5.1-2.1,7.4-3.5l.9.7-.3,10.4v20.7c0,1.3,0,2.7,0,4.4,0,1.7,0,3.3,0,4.9s.9,3.1,2.8,3.7l3,.9v1.4h-21.5Z"/>
      <path class="cls-1" d="m1002.6,757.3c0,4.9-1.1,9.4-3.4,13.4-2.2,4-5.5,7.4-9.9,10.2-4.3,2.8-9.7,4.7-16,5.9l-.5-1.9c4.2-1.1,7.7-2.5,10.3-4.2,2.7-1.8,4.7-3.9,6.1-6.5,1.4-2.6,2.4-5.6,2.8-9.2-1.1.7-2.4,1.3-3.9,1.7-1.5.4-3.2.6-5.1.6s-5.1-.5-7.3-1.6c-2.2-1.1-3.9-2.7-5.2-4.8-1.3-2.1-1.9-4.6-1.9-7.6s.8-5.9,2.3-8.2c1.5-2.3,3.5-4.1,6.1-5.3,2.6-1.3,5.3-1.9,8.4-1.9,5.5,0,9.7,1.7,12.7,5.2,2.9,3.5,4.4,8.2,4.4,14.2Zm-23.9-5c0,4.2.6,7.2,1.9,9.1,1.3,1.9,3.3,2.8,6.1,2.8s4.1-.4,5.8-1.3c.1-1.8.2-3.8.2-5.9,0-4.3-.2-7.7-.7-10.2-.5-2.5-1.2-4.2-2.2-5.3-1-1-2.4-1.6-4.1-1.6s-4,1-5.1,2.9c-1.2,1.9-1.8,5.1-1.8,9.5Z"/>
      <path class="cls-1" d="m1041.1,757.3c0,4.9-1.1,9.4-3.4,13.4-2.2,4-5.5,7.4-9.9,10.2-4.3,2.8-9.7,4.7-16,5.9l-.5-1.9c4.2-1.1,7.7-2.5,10.3-4.2,2.7-1.8,4.7-3.9,6.1-6.5,1.4-2.6,2.4-5.6,2.8-9.2-1.1.7-2.4,1.3-3.9,1.7-1.5.4-3.2.6-5.1.6s-5.1-.5-7.3-1.6c-2.2-1.1-3.9-2.7-5.2-4.8-1.3-2.1-1.9-4.6-1.9-7.6s.8-5.9,2.3-8.2c1.5-2.3,3.5-4.1,6.1-5.3,2.6-1.3,5.3-1.9,8.4-1.9,5.5,0,9.7,1.7,12.7,5.2,2.9,3.5,4.4,8.2,4.4,14.2Zm-23.9-5c0,4.2.6,7.2,1.9,9.1,1.3,1.9,3.3,2.8,6.1,2.8s4.1-.4,5.8-1.3c.1-1.8.2-3.8.2-5.9,0-4.3-.2-7.7-.7-10.2-.5-2.5-1.2-4.2-2.2-5.3-1-1-2.4-1.6-4.1-1.6s-4,1-5.1,2.9c-1.2,1.9-1.8,5.1-1.8,9.5Z"/>
      <path class="cls-1" d="m1050.8,785.4l-.7-.7,23.7-38.2h-28.4v-7.5h31.9v4.7l-17.2,41.7h-9.2Z"/>
      <path class="cls-1" d="m1083.3,731.9c5.4,4.3,9.5,9.3,12.4,14.9s4.4,11.7,4.4,18.3-1.5,12.7-4.4,18.3c-2.9,5.6-7.1,10.5-12.4,14.8l-1.5-1.3c2.7-3.6,4.8-7.1,6.3-10.4,1.5-3.3,2.6-6.7,3.2-10.2.6-3.5.9-7.2.9-11.2s-.3-7.7-.9-11.2c-.6-3.5-1.7-6.9-3.2-10.3-1.5-3.3-3.6-6.8-6.3-10.5l1.5-1.2Z"/>
    </g>
    <g>
      <path class="cls-1" d="m503,879.8v-3.3c1.4.4,2.7.7,3.8.7s2.4-.4,2.9-1.2.8-2.2.8-4.2v-22.9h3.7v22.7c0,5.7-2.7,8.5-8,8.5s-1.9-.1-3.2-.4Z"/>
      <path class="cls-1" d="m531.4,875.6c-3.7,0-6.6-1.2-8.9-3.7s-3.3-5.8-3.3-9.9,1.1-7.5,3.3-9.9,5.2-3.7,8.9-3.7,6.6,1.2,8.9,3.7,3.3,5.8,3.3,9.9-1.1,7.5-3.3,9.9-5.2,3.7-8.9,3.7Zm0-2.8c2.6,0,4.6-1,6.1-2.9s2.2-4.6,2.2-8-.7-6.1-2.2-8-3.5-2.9-6.1-2.9-4.6,1-6.1,2.9-2.2,4.6-2.2,8,.7,6.1,2.2,8,3.5,2.9,6.1,2.9Z"/>
      <path class="cls-1" d="m548.5,848.9h3.7v16.4c0,2.6.5,4.5,1.4,5.7,1,1.2,2.5,1.8,4.6,1.8s3.5-.6,4.4-1.7c.9-1.1,1.3-3,1.3-5.7v-16.5h3.3v16.5c0,2.3-.2,4-.7,5.2s-1.2,2.3-2.4,3.2c-1.5,1.1-3.5,1.7-6,1.7s-5.7-.8-7.3-2.5-2.3-4.3-2.3-7.8v-16.4Z"/>
      <path class="cls-1" d="m573.7,875v-26h14.5v2.8h-10.8v8.3h9.1v2.7h-9.1v9.4h11.6v2.8h-15.3Z"/>
      <path class="cls-1" d="m593,848.9h3.7v16.4c0,2.6.5,4.5,1.4,5.7,1,1.2,2.5,1.8,4.6,1.8s3.5-.6,4.4-1.7c.9-1.1,1.3-3,1.3-5.7v-16.5h3.3v16.5c0,2.3-.2,4-.7,5.2s-1.2,2.3-2.4,3.2c-1.5,1.1-3.5,1.7-6,1.7s-5.7-.8-7.3-2.5-2.3-4.3-2.3-7.8v-16.4Z"/>
      <path class="cls-1" d="m618.1,875v-26h7.9c2.5,0,4.4.6,5.7,1.7s2,2.7,2,4.8-.5,3.1-1.4,4.4-2.2,2.3-3.9,3l8.7,12.2h-4.5l-7.4-11h-3.4v11h-3.7Zm3.7-13.8h1.2c2.3,0,4-.5,5.2-1.4s1.8-2.3,1.8-4.1c0-2.7-1.9-4-5.8-4h-2.3v9.5Z"/>
      <path class="cls-1" d="m652.3,875v-26h8.6c2.6,0,4.7.3,6.2.9s3,1.5,4.1,2.9c1.8,2.2,2.8,5.1,2.8,8.6s-1.1,7.3-3.2,9.8c-1.2,1.4-2.5,2.4-4.1,3s-3.5.9-5.8.9h-8.7Zm3.7-2.8h4.7c3.4,0,5.8-.9,7.2-2.7,1.5-1.9,2.3-4.5,2.3-7.8s-.7-5.5-2.2-7.2c-.9-1.1-2-1.8-3.2-2.2s-3.1-.6-5.7-.6h-3v20.5Z"/>
      <path class="cls-1" d="m679.3,875v-26h14.5v2.8h-10.8v8.3h9.1v2.7h-9.1v9.4h11.6v2.8h-15.3Z"/>
      <path class="cls-1" d="m697.2,874.5v-3.7c2.9,1.4,5.3,2,7.2,2s2.6-.4,3.5-1.2,1.3-1.8,1.3-3-.3-1.9-.9-2.6-1.6-1.5-3.2-2.4l-1.8-1c-2.2-1.3-3.8-2.5-4.7-3.6s-1.4-2.4-1.4-3.9.7-3.7,2.2-5,3.3-1.9,5.6-1.9,4.1.3,6.3,1v3.4c-2.7-1.1-4.8-1.6-6.1-1.6s-2.3.3-3.2,1-1.2,1.5-1.2,2.6.3,1.6.9,2.3,1.7,1.5,3.3,2.4l1.9,1.1c2.2,1.3,3.8,2.5,4.7,3.6s1.3,2.5,1.3,4.1c0,2.3-.8,4.1-2.5,5.4s-3.9,2.1-6.6,2.1-4-.4-6.7-1.1Z"/>
      <path class="cls-1" d="m729.6,875v-26h7.9c2.5,0,4.4.6,5.7,1.7s2,2.7,2,4.8-.5,3.1-1.4,4.4-2.2,2.3-3.9,3l8.7,12.2h-4.5l-7.4-11h-3.4v11h-3.7Zm3.7-13.8h1.2c2.3,0,4-.5,5.2-1.4s1.8-2.3,1.8-4.1c0-2.7-1.9-4-5.8-4h-2.3v9.5Z"/>
      <path class="cls-1" d="m749.3,875l10.3-26h3.7l10.2,26h-4l-2.8-7.2h-11l-2.9,7.2h-3.4Zm7.3-9.9h8.9l-4.4-11.2-4.5,11.2Z"/>
      <path class="cls-1" d="m777.2,875v-26h3.6l13.1,20.1v-20.1h3.2v26h-3.6l-13.1-20.1v20.1h-3.2Z"/>
      <path class="cls-1" d="m823.3,874.3c-3.2.9-5.9,1.4-8.2,1.4-4.1,0-7.3-1.2-9.5-3.5s-3.3-5.7-3.3-10.1,1.1-7.7,3.4-10.1,5.4-3.6,9.5-3.6,5.3.4,8.2,1.2v3.4c-3.6-1.2-6.3-1.8-8.2-1.8-2.8,0-5,1-6.5,2.9s-2.3,4.6-2.3,8.1.8,6.1,2.5,8,4,2.9,7,2.9,2.6-.2,4-.7v-8.5h3.7v10.5Z"/>
      <path class="cls-1" d="m829.8,875v-26h14.5v2.8h-10.8v8.3h9.1v2.7h-9.1v9.4h11.6v2.8h-15.3Z"/>
      <path class="cls-1" d="m849.3,875v-26h7.9c2.5,0,4.4.6,5.7,1.7s2,2.7,2,4.8-.5,3.1-1.4,4.4-2.2,2.3-3.9,3l8.7,12.2h-4.5l-7.4-11h-3.4v11h-3.7Zm3.7-13.8h1.2c2.3,0,4-.5,5.2-1.4s1.8-2.3,1.8-4.1c0-2.7-1.9-4-5.8-4h-2.3v9.5Z"/>
      <path class="cls-1" d="m870.4,874.5v-3.7c2.9,1.4,5.3,2,7.2,2s2.6-.4,3.5-1.2,1.3-1.8,1.3-3-.3-1.9-.9-2.6-1.6-1.5-3.2-2.4l-1.8-1c-2.2-1.3-3.8-2.5-4.7-3.6s-1.4-2.4-1.4-3.9.7-3.7,2.2-5,3.3-1.9,5.6-1.9,4.1.3,6.3,1v3.4c-2.7-1.1-4.8-1.6-6.1-1.6s-2.3.3-3.2,1-1.2,1.5-1.2,2.6.3,1.6.9,2.3,1.7,1.5,3.3,2.4l1.9,1.1c2.2,1.3,3.8,2.5,4.7,3.6s1.3,2.5,1.3,4.1c0,2.3-.8,4.1-2.5,5.4s-3.9,2.1-6.6,2.1-4-.4-6.7-1.1Z"/>
      <path class="cls-1" d="m902.8,875v-26h8.6c2.6,0,4.7.3,6.2.9s3,1.5,4.1,2.9c1.8,2.2,2.8,5.1,2.8,8.6s-1.1,7.3-3.2,9.8c-1.2,1.4-2.5,2.4-4.1,3s-3.5.9-5.8.9h-8.7Zm3.7-2.8h4.7c3.4,0,5.8-.9,7.2-2.7,1.5-1.9,2.3-4.5,2.3-7.8s-.7-5.5-2.2-7.2c-.9-1.1-2-1.8-3.2-2.2s-3.1-.6-5.7-.6h-3v20.5Z"/>
      <path class="cls-1" d="m929.8,875v-26h14.5v2.8h-10.8v8.3h9.1v2.7h-9.1v9.4h11.6v2.8h-15.3Z"/>
      <path class="cls-1" d="m960.7,875v-26h3.6l13.1,20.1v-20.1h3.2v26h-3.6l-13.1-20.1v20.1h-3.2Z"/>
      <path class="cls-1" d="m987.3,875v-26h14.5v2.8h-10.8v8.3h9.1v2.7h-9.1v9.4h11.6v2.8h-15.3Z"/>
      <path class="cls-1" d="m1010.2,875l-6.7-26h3.6l5.3,20.5,4.9-20.5h3.6l4.6,20.3,5.7-20.3h3l-7.3,26h-3.7l-4.6-20-4.8,20h-3.7Z"/>
      <path class="cls-1" d="m1054.6,875v-10.9l-8.7-15.2h4.2l6.8,11.8,7.3-11.8h3.4l-9.3,15.1v10.9h-3.7Z"/>
      <path class="cls-1" d="m1082,875.6c-3.7,0-6.6-1.2-8.9-3.7s-3.3-5.8-3.3-9.9,1.1-7.5,3.3-9.9,5.2-3.7,8.9-3.7,6.6,1.2,8.9,3.7,3.3,5.8,3.3,9.9-1.1,7.5-3.3,9.9-5.2,3.7-8.9,3.7Zm0-2.8c2.6,0,4.6-1,6.1-2.9s2.2-4.6,2.2-8-.7-6.1-2.2-8-3.5-2.9-6.1-2.9-4.6,1-6.1,2.9-2.2,4.6-2.2,8,.7,6.1,2.2,8,3.5,2.9,6.1,2.9Z"/>
      <path class="cls-1" d="m1099.4,875v-26h7.9c2.5,0,4.4.6,5.7,1.7s2,2.7,2,4.8-.5,3.1-1.4,4.4-2.2,2.3-3.9,3l8.7,12.2h-4.5l-7.4-11h-3.4v11h-3.7Zm3.7-13.8h1.2c2.3,0,4-.5,5.2-1.4s1.8-2.3,1.8-4.1c0-2.7-1.9-4-5.8-4h-2.3v9.5Z"/>
      <path class="cls-1" d="m1122.1,875v-26h3.5v12.8l10.5-12.8h3.7l-10.2,12.4,12,13.6h-4.7l-11.4-13.2v13.2h-3.5Z"/>
      <path class="cls-1" d="m1157,875v-26h8.6c2.6,0,4.7.3,6.2.9s3,1.5,4.1,2.9c1.8,2.2,2.8,5.1,2.8,8.6s-1.1,7.3-3.2,9.8c-1.2,1.4-2.5,2.4-4.1,3s-3.5.9-5.8.9h-8.7Zm3.7-2.8h4.7c3.4,0,5.8-.9,7.2-2.7,1.5-1.9,2.3-4.5,2.3-7.8s-.7-5.5-2.2-7.2c-.9-1.1-2-1.8-3.2-2.2s-3.1-.6-5.7-.6h-3v20.5Z"/>
      <path class="cls-1" d="m1184,875v-26h14.5v2.8h-10.8v8.3h9.1v2.7h-9.1v9.4h11.6v2.8h-15.3Z"/>
      <path class="cls-1" d="m1214.9,875v-26h3.7v23.3h11.7v2.8h-15.4Z"/>
      <path class="cls-1" d="m1231,875l10.3-26h3.7l10.2,26h-4l-2.8-7.2h-11l-2.9,7.2h-3.4Zm7.3-9.9h8.9l-4.4-11.2-4.5,11.2Z"/>
      <path class="cls-1" d="m1270.3,875v-26h3.7v23.3h11.7v2.8h-15.4Z"/>
      <path class="cls-1" d="m1289.5,875v-26h3.7v26h-3.7Z"/>
      <path class="cls-1" d="m1319.4,874.3c-3.2.9-5.9,1.4-8.2,1.4-4.1,0-7.3-1.2-9.5-3.5s-3.3-5.7-3.3-10.1,1.1-7.7,3.4-10.1,5.4-3.6,9.5-3.6,5.3.4,8.2,1.2v3.4c-3.6-1.2-6.3-1.8-8.2-1.8-2.8,0-5,1-6.5,2.9s-2.3,4.6-2.3,8.1.8,6.1,2.5,8,4,2.9,7,2.9,2.6-.2,4-.7v-8.5h3.7v10.5Z"/>
      <path class="cls-1" d="m1325.7,848.9h3.7v16.4c0,2.6.5,4.5,1.4,5.7,1,1.2,2.5,1.8,4.6,1.8s3.5-.6,4.4-1.7c.9-1.1,1.3-3,1.3-5.7v-16.5h3.3v16.5c0,2.3-.2,4-.7,5.2s-1.2,2.3-2.4,3.2c-1.5,1.1-3.5,1.7-6,1.7s-5.7-.8-7.3-2.5-2.3-4.3-2.3-7.8v-16.4Z"/>
      <path class="cls-1" d="m1350.9,875v-26h14.5v2.8h-10.8v8.3h9.1v2.7h-9.1v9.4h11.6v2.8h-15.3Z"/>
      <path class="cls-1" d="m432.3,918.2v-26h3.6l13.1,20.1v-20.1h3.2v26h-3.6l-13.1-20.1v20.1h-3.2Z"/>
      <path class="cls-1" d="m455.9,918.2l10.3-26h3.7l10.2,26h-4l-2.8-7.2h-11l-2.9,7.2h-3.4Zm7.3-9.9h8.9l-4.4-11.2-4.5,11.2Z"/>
      <path class="cls-1" d="m490,918.2v-23.3h-9.2v-2.8h22.1v2.8h-9.2v23.3h-3.7Z"/>
      <path class="cls-1" d="m506.5,918.2v-26h3.7v26h-3.7Z"/>
      <path class="cls-1" d="m527.5,918.8c-3.7,0-6.6-1.2-8.9-3.7s-3.3-5.8-3.3-9.9,1.1-7.5,3.3-9.9,5.2-3.7,8.9-3.7,6.6,1.2,8.9,3.7,3.3,5.8,3.3,9.9-1.1,7.5-3.3,9.9-5.2,3.7-8.9,3.7Zm0-2.8c2.6,0,4.6-1,6.1-2.9s2.2-4.6,2.2-8-.7-6.1-2.2-8-3.5-2.9-6.1-2.9-4.6,1-6.1,2.9-2.2,4.6-2.2,8,.7,6.1,2.2,8,3.5,2.9,6.1,2.9Z"/>
      <path class="cls-1" d="m544.9,918.2v-26h3.6l13.1,20.1v-20.1h3.2v26h-3.6l-13.1-20.1v20.1h-3.2Z"/>
      <path class="cls-1" d="m568.4,918.2l10.3-26h3.7l10.2,26h-4l-2.8-7.2h-11l-2.9,7.2h-3.4Zm7.3-9.9h8.9l-4.4-11.2-4.5,11.2Z"/>
      <path class="cls-1" d="m596.3,918.2v-26h3.7v23.3h11.7v2.8h-15.4Z"/>
      <path class="cls-1" d="m615.5,918.2v-26h14.5v2.8h-10.8v8.3h9.1v2.7h-9.1v9.4h11.6v2.8h-15.3Z"/>
      <path class="cls-1" d="m646.4,918.2v-26h8.6c2.6,0,4.7.3,6.2.9s3,1.5,4.1,2.9c1.8,2.2,2.8,5.1,2.8,8.6s-1.1,7.3-3.2,9.8c-1.2,1.4-2.5,2.4-4.1,3s-3.5.9-5.8.9h-8.7Zm3.7-2.8h4.7c3.4,0,5.8-.9,7.2-2.7,1.5-1.9,2.3-4.5,2.3-7.8s-.7-5.5-2.2-7.2c-.9-1.1-2-1.8-3.2-2.2s-3.1-.6-5.7-.6h-3v20.5Z"/>
      <path class="cls-1" d="m673.4,918.2v-26h14.5v2.8h-10.8v8.3h9.1v2.7h-9.1v9.4h11.6v2.8h-15.3Z"/>
      <path class="cls-1" d="m704.3,918.2v-26h3.7v11h12.4v-11h3.7v26h-3.7v-12.3h-12.4v12.3h-3.7Z"/>
      <path class="cls-1" d="m741.4,918.8c-3.7,0-6.6-1.2-8.9-3.7s-3.3-5.8-3.3-9.9,1.1-7.5,3.3-9.9,5.2-3.7,8.9-3.7,6.6,1.2,8.9,3.7,3.3,5.8,3.3,9.9-1.1,7.5-3.3,9.9-5.2,3.7-8.9,3.7Zm0-2.8c2.6,0,4.6-1,6.1-2.9s2.2-4.6,2.2-8-.7-6.1-2.2-8-3.5-2.9-6.1-2.9-4.6,1-6.1,2.9-2.2,4.6-2.2,8,.7,6.1,2.2,8,3.5,2.9,6.1,2.9Z"/>
      <path class="cls-1" d="m778.2,916.8c-2.6,1.3-5.4,2-8.4,2s-7.2-1.2-9.4-3.6-3.3-5.7-3.3-10.1,1.1-7.7,3.4-10.1,5.4-3.6,9.5-3.6,5,.4,8.2,1.1v3.5c-3.6-1.2-6.3-1.8-8.2-1.8-2.8,0-5,1-6.6,2.9s-2.3,4.6-2.3,8.1.8,5.9,2.5,7.9,3.9,2.9,6.8,2.9,5.1-.8,7.9-2.3v3.2Z"/>
      <path class="cls-1" d="m783.6,918.2v-26h3.5v12.8l10.5-12.8h3.7l-10.2,12.4,12,13.6h-4.7l-11.4-13.2v13.2h-3.5Z"/>
      <path class="cls-1" d="m807.1,918.2v-26h14.5v2.8h-10.8v8.3h9.1v2.7h-9.1v9.4h11.6v2.8h-15.3Z"/>
      <path class="cls-1" d="m832.2,918.2v-10.9l-8.7-15.2h4.2l6.8,11.8,7.3-11.8h3.4l-9.3,15.1v10.9h-3.7Z"/>
      <path class="cls-1" d="m849.2,923.8v-1.3c1.1-.3,1.7-1.6,1.7-4v-.4h-1.7v-4.3h4.3v3.8c0,3.9-1.4,5.9-4.3,6.2Z"/>
      <path class="cls-1" d="m894.9,923.4c-4.1-1.3-7.5-2.9-10.3-4.7-1.1.1-2,.2-2.5.2-3.5,0-6.3-1.3-8.5-3.8s-3.3-5.8-3.3-9.9,1.1-7.5,3.3-9.9,5.2-3.7,8.9-3.7,6.7,1.2,8.9,3.7,3.3,5.8,3.3,10c0,6-2.2,10.1-6.7,12.4,3,1.3,6.1,2.2,9.3,2.8l-2.3,3Zm-12.5-7.3c2.6,0,4.6-1,6.1-2.9s2.2-4.6,2.2-8-.7-6.1-2.2-8-3.5-2.9-6.1-2.9-4.6,1-6.1,2.9-2.2,4.6-2.2,8,.7,6.1,2.2,8,3.5,2.9,6.1,2.9Z"/>
      <path class="cls-1" d="m899.6,892.1h3.7v16.4c0,2.6.5,4.5,1.4,5.7,1,1.2,2.5,1.8,4.6,1.8s3.5-.6,4.4-1.7c.9-1.1,1.3-3,1.3-5.7v-16.5h3.3v16.5c0,2.3-.2,4-.7,5.2s-1.2,2.3-2.4,3.2c-1.5,1.1-3.5,1.7-6,1.7s-5.7-.8-7.3-2.5-2.3-4.3-2.3-7.8v-16.4Z"/>
      <path class="cls-1" d="m924.7,918.2v-26h3.7v26h-3.7Z"/>
      <path class="cls-1" d="m957.1,918.8c-3.7,0-6.6-1.2-8.9-3.7s-3.3-5.8-3.3-9.9,1.1-7.5,3.3-9.9,5.2-3.7,8.9-3.7,6.6,1.2,8.9,3.7,3.3,5.8,3.3,9.9-1.1,7.5-3.3,9.9-5.2,3.7-8.9,3.7Zm0-2.8c2.6,0,4.6-1,6.1-2.9s2.2-4.6,2.2-8-.7-6.1-2.2-8-3.5-2.9-6.1-2.9-4.6,1-6.1,2.9-2.2,4.6-2.2,8,.7,6.1,2.2,8,3.5,2.9,6.1,2.9Z"/>
      <path class="cls-1" d="m974.5,918.2v-26h6.8c2.6,0,4.6.5,6,1.5s2.1,2.4,2.1,4.3-.5,2.8-1.4,4-2.2,2.1-4,2.7c4.3,1.3,6.4,3.7,6.4,7s-.5,2.9-1.4,4.1c-.7.9-1.6,1.5-2.6,1.9s-2.4.5-4.2.5h-7.7Zm3.7-14.6h1.2c2,0,3.5-.4,4.6-1.3s1.6-2,1.6-3.6c0-2.5-2-3.8-5.9-3.8h-1.4v8.7Zm0,11.8h.8c2.7,0,4.4-.2,5.2-.5,1.5-.6,2.3-1.8,2.3-3.6s-.7-2.8-2.1-3.9-3.1-1.5-5.2-1.5h-1v9.5Z"/>
      <path class="cls-1" d="m1001.4,918.2v-23.3h-9.2v-2.8h22.1v2.8h-9.2v23.3h-3.7Z"/>
      <path class="cls-1" d="m1017.9,918.2v-26h3.7v26h-3.7Z"/>
      <path class="cls-1" d="m1028.3,918.2v-26h3.6l13.1,20.1v-20.1h3.2v26h-3.6l-13.1-20.1v20.1h-3.2Z"/>
      <path class="cls-1" d="m1061.1,918.2v-23.3h-9.2v-2.8h22.1v2.8h-9.2v23.3h-3.7Z"/>
      <path class="cls-1" d="m1089.1,918.2v-26h3.7v23.3h11.7v2.8h-15.4Z"/>
      <path class="cls-1" d="m1108.3,918.2v-26h14.5v2.8h-10.8v8.3h9.1v2.7h-9.1v9.4h11.6v2.8h-15.3Z"/>
      <path class="cls-1" d="m1145.3,918.2v-23.3h-9.2v-2.8h22.1v2.8h-9.2v23.3h-3.7Z"/>
      <path class="cls-1" d="m1161.9,918.2v-26h7.9c2.5,0,4.4.6,5.7,1.7s2,2.7,2,4.8-.5,3.1-1.4,4.4-2.2,2.3-3.9,3l8.7,12.2h-4.5l-7.4-11h-3.4v11h-3.7Zm3.7-13.8h1.2c2.3,0,4-.5,5.2-1.4s1.8-2.3,1.8-4.1c0-2.7-1.9-4-5.8-4h-2.3v9.5Z"/>
      <path class="cls-1" d="m1195.3,918.8c-3.7,0-6.6-1.2-8.9-3.7s-3.3-5.8-3.3-9.9,1.1-7.5,3.3-9.9,5.2-3.7,8.9-3.7,6.6,1.2,8.9,3.7,3.3,5.8,3.3,9.9-1.1,7.5-3.3,9.9-5.2,3.7-8.9,3.7Zm0-2.8c2.6,0,4.6-1,6.1-2.9s2.2-4.6,2.2-8-.7-6.1-2.2-8-3.5-2.9-6.1-2.9-4.6,1-6.1,2.9-2.2,4.6-2.2,8,.7,6.1,2.2,8,3.5,2.9,6.1,2.9Z"/>
      <path class="cls-1" d="m1212.7,918.2v-26h7.1c2,0,3.6.2,4.7.5s2,.9,2.7,1.8c.9,1.1,1.4,2.6,1.4,4.6,0,2.8-.9,4.9-2.8,6.5s-4.5,2.4-7.8,2.4h-1.6v10.3h-3.7Zm3.7-13.1h1.5c2.2,0,3.9-.5,5.1-1.5s1.8-2.4,1.8-4.3-.5-2.7-1.4-3.3-2.5-1-4.7-1h-2.3v10.1Z"/>
      <path class="cls-1" d="m1232.6,918.2v-26h3.7v11h12.4v-11h3.7v26h-3.7v-12.3h-12.4v12.3h-3.7Z"/>
      <path class="cls-1" d="m1259,918.2v-26h14.5v2.8h-10.8v8.3h9.1v2.7h-9.1v9.4h11.6v2.8h-15.3Zm4.6-28.2l4.2-5.6h4l-5.6,5.6h-2.6Z"/>
      <path class="cls-1" d="m1278.5,918.2v-26h14.5v2.8h-10.8v8.3h9.1v2.7h-9.1v9.4h11.6v2.8h-15.3Z"/>
      <path class="cls-1" d="m1329,916.8c-2.6,1.3-5.4,2-8.4,2s-7.2-1.2-9.4-3.6-3.3-5.7-3.3-10.1,1.1-7.7,3.4-10.1,5.4-3.6,9.5-3.6,5,.4,8.2,1.1v3.5c-3.6-1.2-6.3-1.8-8.2-1.8-2.8,0-5,1-6.6,2.9s-2.3,4.6-2.3,8.1.8,5.9,2.5,7.9,3.9,2.9,6.8,2.9,5.1-.8,7.9-2.3v3.2Z"/>
      <path class="cls-1" d="m1331.3,918.2l10.3-26h3.7l10.2,26h-4l-2.8-7.2h-11l-2.9,7.2h-3.4Zm7.3-9.9h8.9l-4.4-11.2-4.5,11.2Z"/>
      <path class="cls-1" d="m1359.2,918.2v-26h3.7v23.3h11.7v2.8h-15.4Z"/>
      <path class="cls-1" d="m1378.4,918.2v-26h8.6c2.6,0,4.7.3,6.2.9s3,1.5,4.1,2.9c1.8,2.2,2.8,5.1,2.8,8.6s-1.1,7.3-3.2,9.8c-1.2,1.4-2.5,2.4-4.1,3s-3.5.9-5.8.9h-8.7Zm3.7-2.8h4.7c3.4,0,5.8-.9,7.2-2.7,1.5-1.9,2.3-4.5,2.3-7.8s-.7-5.5-2.2-7.2c-.9-1.1-2-1.8-3.2-2.2s-3.1-.6-5.7-.6h-3v20.5Z"/>
      <path class="cls-1" d="m1405.3,918.2v-26h14.5v2.8h-10.8v8.3h9.1v2.7h-9.1v9.4h11.6v2.8h-15.3Z"/>
      <path class="cls-1" d="m1424.8,918.2v-26h7.9c2.5,0,4.4.6,5.7,1.7s2,2.7,2,4.8-.5,3.1-1.4,4.4-2.2,2.3-3.9,3l8.7,12.2h-4.5l-7.4-11h-3.4v11h-3.7Zm3.7-13.8h1.2c2.3,0,4-.5,5.2-1.4s1.8-2.3,1.8-4.1c0-2.7-1.9-4-5.8-4h-2.3v9.5Z"/>
      <path class="cls-1" d="m462.4,960c-2.6,1.3-5.4,2-8.4,2s-7.2-1.2-9.4-3.6-3.3-5.7-3.3-10.1,1.1-7.7,3.4-10.1,5.4-3.6,9.5-3.6,5,.4,8.2,1.1v3.5c-3.6-1.2-6.3-1.8-8.2-1.8-2.8,0-5,1-6.6,2.9s-2.3,4.6-2.3,8.1.8,5.9,2.5,7.9,3.9,2.9,6.8,2.9,5.1-.8,7.9-2.3v3.2Z"/>
      <path class="cls-1" d="m478.4,962c-3.7,0-6.6-1.2-8.9-3.7s-3.3-5.8-3.3-9.9,1.1-7.5,3.3-9.9,5.2-3.7,8.9-3.7,6.6,1.2,8.9,3.7,3.3,5.8,3.3,9.9-1.1,7.5-3.3,9.9-5.2,3.7-8.9,3.7Zm0-2.8c2.6,0,4.6-1,6.1-2.9s2.2-4.6,2.2-8-.7-6.1-2.2-8-3.5-2.9-6.1-2.9-4.6,1-6.1,2.9-2.2,4.6-2.2,8,.7,6.1,2.2,8,3.5,2.9,6.1,2.9Z"/>
      <path class="cls-1" d="m495.7,961.4v-26h5.1l7.2,20.1,7.4-20.1h4.6v26h-3.5v-21.1l-7.2,19.4h-3.6l-7-19.4v21.2h-3.2Z"/>
      <path class="cls-1" d="m526.7,961.4v-26h5.1l7.2,20.1,7.4-20.1h4.6v26h-3.5v-21.1l-7.2,19.4h-3.6l-7-19.4v21.2h-3.2Z"/>
      <path class="cls-1" d="m557.7,961.4v-26h14.5v2.8h-10.8v8.3h9.1v2.7h-9.1v9.4h11.6v2.8h-15.3Z"/>
      <path class="cls-1" d="m588.6,961.4v-26h5.1l7.2,20.1,7.4-20.1h4.6v26h-3.5v-21.1l-7.2,19.4h-3.6l-7-19.4v21.2h-3.2Z"/>
      <path class="cls-1" d="m619.6,961.4v-26h14.5v2.8h-10.8v8.3h9.1v2.7h-9.1v9.4h11.6v2.8h-15.3Z"/>
      <path class="cls-1" d="m639.1,961.4v-26h3.7v26h-3.7Z"/>
      <path class="cls-1" d="m649.5,961.4v-26h3.7v23.3h11.7v2.8h-15.4Z"/>
      <path class="cls-1" d="m668.7,961.4v-26h3.7v23.3h11.7v2.8h-15.4Z"/>
      <path class="cls-1" d="m687.9,961.4v-26h14.5v2.8h-10.8v8.3h9.1v2.7h-9.1v9.4h11.6v2.8h-15.3Z"/>
      <path class="cls-1" d="m707.2,935.3h3.7v16.4c0,2.6.5,4.5,1.4,5.7,1,1.2,2.5,1.8,4.6,1.8s3.5-.6,4.4-1.7c.9-1.1,1.3-3,1.3-5.7v-16.5h3.3v16.5c0,2.3-.2,4-.7,5.2s-1.2,2.3-2.4,3.2c-1.5,1.1-3.5,1.7-6,1.7s-5.7-.8-7.3-2.5-2.3-4.3-2.3-7.8v-16.4Z"/>
      <path class="cls-1" d="m732.4,961.4v-26h7.9c2.5,0,4.4.6,5.7,1.7s2,2.7,2,4.8-.5,3.1-1.4,4.4-2.2,2.3-3.9,3l8.7,12.2h-4.5l-7.4-11h-3.4v11h-3.7Zm3.7-13.8h1.2c2.3,0,4-.5,5.2-1.4s1.8-2.3,1.8-4.1c0-2.7-1.9-4-5.8-4h-2.3v9.5Z"/>
      <path class="cls-1" d="m755.1,961.4v-26h14.5v2.8h-10.8v8.3h9.1v2.7h-9.1v9.4h11.6v2.8h-15.3Z"/>
      <path class="cls-1" d="m786,961.4v-26h7.9c2.5,0,4.4.6,5.7,1.7s2,2.7,2,4.8-.5,3.1-1.4,4.4-2.2,2.3-3.9,3l8.7,12.2h-4.5l-7.4-11h-3.4v11h-3.7Zm3.7-13.8h1.2c2.3,0,4-.5,5.2-1.4s1.8-2.3,1.8-4.1c0-2.7-1.9-4-5.8-4h-2.3v9.5Z"/>
      <path class="cls-1" d="m808.8,961.4v-26h14.5v2.8h-10.8v8.3h9.1v2.7h-9.1v9.4h11.6v2.8h-15.3Z"/>
      <path class="cls-1" d="m847.9,960c-2.6,1.3-5.4,2-8.4,2s-7.2-1.2-9.4-3.6-3.3-5.7-3.3-10.1,1.1-7.7,3.4-10.1,5.4-3.6,9.5-3.6,5,.4,8.2,1.1v3.5c-3.6-1.2-6.3-1.8-8.2-1.8-2.8,0-5,1-6.6,2.9s-2.3,4.6-2.3,8.1.8,5.9,2.5,7.9,3.9,2.9,6.8,2.9,5.1-.8,7.9-2.3v3.2Z"/>
      <path class="cls-1" d="m853.2,961.4v-26h7.9c2.5,0,4.4.6,5.7,1.7s2,2.7,2,4.8-.5,3.1-1.4,4.4-2.2,2.3-3.9,3l8.7,12.2h-4.5l-7.4-11h-3.4v11h-3.7Zm3.7-13.8h1.2c2.3,0,4-.5,5.2-1.4s1.8-2.3,1.8-4.1c0-2.7-1.9-4-5.8-4h-2.3v9.5Z"/>
      <path class="cls-1" d="m875.8,935.3h3.7v16.4c0,2.6.5,4.5,1.4,5.7,1,1.2,2.5,1.8,4.6,1.8s3.5-.6,4.4-1.7c.9-1.1,1.3-3,1.3-5.7v-16.5h3.3v16.5c0,2.3-.2,4-.7,5.2s-1.2,2.3-2.4,3.2c-1.5,1.1-3.5,1.7-6,1.7s-5.7-.8-7.3-2.5-2.3-4.3-2.3-7.8v-16.4Z"/>
      <path class="cls-1" d="m900.9,961.4v-26h14.5v2.8h-10.8v8.3h9.1v2.7h-9.1v9.4h11.6v2.8h-15.3Z"/>
      <path class="cls-1" d="m931.8,961.4v-26h7.1c2,0,3.6.2,4.7.5s2,.9,2.7,1.8c.9,1.1,1.4,2.6,1.4,4.6,0,2.8-.9,4.9-2.8,6.5s-4.5,2.4-7.8,2.4h-1.6v10.3h-3.7Zm3.7-13.1h1.5c2.2,0,3.9-.5,5.1-1.5s1.8-2.4,1.8-4.3-.5-2.7-1.4-3.3-2.5-1-4.7-1h-2.3v10.1Z"/>
      <path class="cls-1" d="m962.4,962c-3.7,0-6.6-1.2-8.9-3.7s-3.3-5.8-3.3-9.9,1.1-7.5,3.3-9.9,5.2-3.7,8.9-3.7,6.6,1.2,8.9,3.7,3.3,5.8,3.3,9.9-1.1,7.5-3.3,9.9-5.2,3.7-8.9,3.7Zm0-2.8c2.6,0,4.6-1,6.1-2.9s2.2-4.6,2.2-8-.7-6.1-2.2-8-3.5-2.9-6.1-2.9-4.6,1-6.1,2.9-2.2,4.6-2.2,8,.7,6.1,2.2,8,3.5,2.9,6.1,2.9Z"/>
      <path class="cls-1" d="m979.5,935.3h3.7v16.4c0,2.6.5,4.5,1.4,5.7,1,1.2,2.5,1.8,4.6,1.8s3.5-.6,4.4-1.7c.9-1.1,1.3-3,1.3-5.7v-16.5h3.3v16.5c0,2.3-.2,4-.7,5.2s-1.2,2.3-2.4,3.2c-1.5,1.1-3.5,1.7-6,1.7s-5.7-.8-7.3-2.5-2.3-4.3-2.3-7.8v-16.4Z"/>
      <path class="cls-1" d="m1004.6,961.4v-26h7.9c2.5,0,4.4.6,5.7,1.7s2,2.7,2,4.8-.5,3.1-1.4,4.4-2.2,2.3-3.9,3l8.7,12.2h-4.5l-7.4-11h-3.4v11h-3.7Zm3.7-13.8h1.2c2.3,0,4-.5,5.2-1.4s1.8-2.3,1.8-4.1c0-2.7-1.9-4-5.8-4h-2.3v9.5Z"/>
      <path class="cls-1" d="m1038.8,961.4v-26h3.7v23.3h11.7v2.8h-15.4Z"/>
      <path class="cls-1" d="m1054.9,961.4l10.3-26h3.7l10.2,26h-4l-2.8-7.2h-11l-2.9,7.2h-3.4Zm7.3-9.9h8.9l-4.4-11.2-4.5,11.2Z"/>
      <path class="cls-1" d="m1092.6,960.9v-3.7c2.9,1.4,5.3,2,7.2,2s2.6-.4,3.5-1.2,1.3-1.8,1.3-3-.3-1.9-.9-2.6-1.6-1.5-3.2-2.4l-1.8-1c-2.2-1.3-3.8-2.5-4.7-3.6s-1.4-2.4-1.4-3.9.7-3.7,2.2-5,3.3-1.9,5.6-1.9,4.1.3,6.3,1v3.4c-2.7-1.1-4.8-1.6-6.1-1.6s-2.3.3-3.2,1-1.2,1.5-1.2,2.6.3,1.6.9,2.3,1.7,1.5,3.3,2.4l1.9,1.1c2.2,1.3,3.8,2.5,4.7,3.6s1.3,2.5,1.3,4.1c0,2.3-.8,4.1-2.5,5.4s-3.9,2.1-6.6,2.1-4-.4-6.7-1.1Z"/>
      <path class="cls-1" d="m1110.6,961.4l10.3-26h3.7l10.2,26h-4l-2.8-7.2h-11l-2.9,7.2h-3.4Zm7.3-9.9h8.9l-4.4-11.2-4.5,11.2Z"/>
      <path class="cls-1" d="m1138.4,961.4v-26h3.7v26h-3.7Z"/>
      <path class="cls-1" d="m1147.2,960.9v-3.7c2.9,1.4,5.3,2,7.2,2s2.6-.4,3.5-1.2,1.3-1.8,1.3-3-.3-1.9-.9-2.6-1.6-1.5-3.2-2.4l-1.8-1c-2.2-1.3-3.8-2.5-4.7-3.6s-1.4-2.4-1.4-3.9.7-3.7,2.2-5,3.3-1.9,5.6-1.9,4.1.3,6.3,1v3.4c-2.7-1.1-4.8-1.6-6.1-1.6s-2.3.3-3.2,1-1.2,1.5-1.2,2.6.3,1.6.9,2.3,1.7,1.5,3.3,2.4l1.9,1.1c2.2,1.3,3.8,2.5,4.7,3.6s1.3,2.5,1.3,4.1c0,2.3-.8,4.1-2.5,5.4s-3.9,2.1-6.6,2.1-4-.4-6.7-1.1Z"/>
      <path class="cls-1" d="m1178.8,962c-3.7,0-6.6-1.2-8.9-3.7s-3.3-5.8-3.3-9.9,1.1-7.5,3.3-9.9,5.2-3.7,8.9-3.7,6.6,1.2,8.9,3.7,3.3,5.8,3.3,9.9-1.1,7.5-3.3,9.9-5.2,3.7-8.9,3.7Zm0-2.8c2.6,0,4.6-1,6.1-2.9s2.2-4.6,2.2-8-.7-6.1-2.2-8-3.5-2.9-6.1-2.9-4.6,1-6.1,2.9-2.2,4.6-2.2,8,.7,6.1,2.2,8,3.5,2.9,6.1,2.9Z"/>
      <path class="cls-1" d="m1196.2,961.4v-26h3.6l13.1,20.1v-20.1h3.2v26h-3.6l-13.1-20.1v20.1h-3.2Z"/>
      <path class="cls-1" d="m1240.2,961.4v-23.4h-4.1v-2.2l7.6-.7v26.2h-3.5Z"/>
      <path class="cls-1" d="m1257.7,961.2v-3c2.2.8,4.1,1.2,5.6,1.2s3.8-.9,5.1-2.8,1.8-4.4,1.8-7.7c-1.8,2.2-3.8,3.3-6,3.3s-4-.8-5.6-2.4-2.3-3.6-2.3-5.9.8-4.9,2.4-6.6,3.7-2.6,6.1-2.6,5.1,1.1,6.7,3.4,2.4,5.4,2.4,9.3-.4,4.9-1.2,7.1-1.8,3.9-3.2,5.2c-1.7,1.6-3.9,2.4-6.7,2.4s-3.1-.3-5.3-.8Zm2.1-17.9c0,2,.5,3.5,1.4,4.7.9,1.1,2.1,1.7,3.7,1.7s2.7-.5,3.8-1.5c1-1,1.6-2.2,1.6-3.6,0-2.2-.5-4-1.5-5.3s-2.3-2-3.9-2-2.7.5-3.6,1.6c-.9,1.1-1.3,2.6-1.3,4.4Z"/>
      <path class="cls-1" d="m1280.7,961.5v-3.1c1.7.7,3.4,1,4.9,1s3.1-.5,4-1.5,1.5-2.4,1.5-4.2-.7-3.3-2.1-4.4-3.4-1.5-6-1.5-1.2,0-1.9.1v-12.7h13.2v3h-10.1v6.8c3.3,0,5.9.8,7.8,2.3s2.8,3.7,2.8,6.4-.9,4.5-2.6,6-4.1,2.2-7.1,2.2-2.8-.2-4.5-.5Z"/>
      <path class="cls-1" d="m1302.8,961.2v-3.3c2.5,1,4.4,1.5,5.8,1.5s3-.5,4.1-1.4c1-1,1.6-2.2,1.6-3.8,0-3.7-2.6-5.5-7.7-5.5h-1.4v-2.3h1.2c4.8,0,7.2-1.7,7.2-5.1s-1.6-4-4.8-4-3.6.5-5.7,1.5v-3c2.1-.7,4-1,5.9-1s4.6.5,6,1.5c1.4,1,2.1,2.5,2.1,4.5,0,3.1-1.8,5.2-5.4,6.5,4.2,1,6.3,3.3,6.3,6.9s-.8,4.4-2.4,5.8-3.8,2.1-6.7,2.1-3.6-.3-6.1-.8Z"/>
      <path class="cls-1" d="m1324.5,951.8v-2.1h15.6v2.1h-15.6Z"/>
      <path class="cls-1" d="m1352.1,961.4v-23.4h-4.1v-2.2l7.6-.7v26.2h-3.5Z"/>
      <path class="cls-1" d="m1369.5,961.2v-3c2.2.8,4.1,1.2,5.6,1.2s3.8-.9,5.1-2.8,1.8-4.4,1.8-7.7c-1.8,2.2-3.8,3.3-6,3.3s-4-.8-5.6-2.4-2.3-3.6-2.3-5.9.8-4.9,2.4-6.6,3.7-2.6,6.1-2.6,5.1,1.1,6.7,3.4,2.4,5.4,2.4,9.3-.4,4.9-1.2,7.1-1.8,3.9-3.2,5.2c-1.7,1.6-3.9,2.4-6.7,2.4s-3.1-.3-5.3-.8Zm2.1-17.9c0,2,.5,3.5,1.4,4.7.9,1.1,2.1,1.7,3.7,1.7s2.7-.5,3.8-1.5c1-1,1.6-2.2,1.6-3.6,0-2.2-.5-4-1.5-5.3s-2.3-2-3.9-2-2.7.5-3.6,1.6c-.9,1.1-1.3,2.6-1.3,4.4Z"/>
      <path class="cls-1" d="m1392.6,961.5v-3.1c1.7.7,3.4,1,4.9,1s3.1-.5,4-1.5,1.5-2.4,1.5-4.2-.7-3.3-2.1-4.4-3.4-1.5-6-1.5-1.2,0-1.9.1v-12.7h13.2v3h-10.1v6.8c3.3,0,5.9.8,7.8,2.3s2.8,3.7,2.8,6.4-.9,4.5-2.6,6-4.1,2.2-7.1,2.2-2.8-.2-4.5-.5Z"/>
      <path class="cls-1" d="m1424.5,961.4v-7.4h-11.7v-2.6l11.7-16h3.3v15.8h3.5v2.8h-3.5v7.4h-3.3Zm-8.3-10.2h8.5v-11.6l-8.5,11.6Z"/>
    </g>
    <g>
      <path class="cls-1" d="m907.9,1206.3v-2.1c.7-1.6,2.1-3.4,4.2-5.3l1.4-1.2c1.8-1.6,2.7-3.2,2.7-4.8s-.3-1.8-.9-2.4-1.4-.9-2.5-.9-2.7.5-4.4,1.4v-2.1c1.6-.8,3.2-1.1,4.8-1.1s3,.5,4.1,1.4c1,.9,1.5,2.1,1.5,3.6s-.3,2-.8,2.9c-.5.8-1.5,1.9-2.9,3.1l-.9.8c-1.9,1.6-3,3.2-3.3,4.7h7.8v2.1h-10.8Z"/>
      <path class="cls-1" d="m929.5,1206.8c-1.9,0-3.4-.9-4.6-2.6-1.2-1.7-1.7-4-1.7-6.9s.6-5.1,1.7-6.9c1.2-1.7,2.7-2.6,4.6-2.6s3.4.9,4.6,2.6c1.2,1.7,1.7,4,1.7,6.9s-.6,5.1-1.7,6.9c-1.2,1.7-2.7,2.6-4.6,2.6Zm0-1.8c2.5,0,3.8-2.6,3.8-7.7s-1.3-7.7-3.8-7.7-3.8,2.6-3.8,7.7,1.3,7.7,3.8,7.7Z"/>
      <path class="cls-1" d="m945.3,1206.8c-1.9,0-3.4-.9-4.6-2.6-1.2-1.7-1.7-4-1.7-6.9s.6-5.1,1.7-6.9c1.2-1.7,2.7-2.6,4.6-2.6s3.4.9,4.6,2.6c1.2,1.7,1.7,4,1.7,6.9s-.6,5.1-1.7,6.9c-1.2,1.7-2.7,2.6-4.6,2.6Zm0-1.8c2.5,0,3.8-2.6,3.8-7.7s-1.3-7.7-3.8-7.7-3.8,2.6-3.8,7.7,1.3,7.7,3.8,7.7Z"/>
      <path class="cls-1" d="m961.1,1206.8c-1.9,0-3.4-.9-4.6-2.6-1.2-1.7-1.7-4-1.7-6.9s.6-5.1,1.7-6.9c1.2-1.7,2.7-2.6,4.6-2.6s3.4.9,4.6,2.6c1.2,1.7,1.7,4,1.7,6.9s-.6,5.1-1.7,6.9c-1.2,1.7-2.7,2.6-4.6,2.6Zm0-1.8c2.5,0,3.8-2.6,3.8-7.7s-1.3-7.7-3.8-7.7-3.8,2.6-3.8,7.7,1.3,7.7,3.8,7.7Z"/>
    </g>
    <g>
      <path class="cls-1" d="m804.3,509.9c-6.4,0-12.1-1.3-17.2-3.9-5.1-2.6-9.2-6.5-12.2-11.6-3-5.1-4.5-11.4-4.5-18.7s.9-10.4,2.7-14.7c1.8-4.3,4.3-7.9,7.5-10.8,3.2-2.9,6.8-5.1,11-6.6,4.1-1.5,8.5-2.2,13.2-2.2s7,.4,10.1,1.2c3.2.8,6.2,2,9.1,3.6l.4,12.9h-2.7l-4.1-7.8c-.7-1.3-1.4-2.5-2.1-3.5-.8-1-1.7-1.8-2.9-2.3-1.6-.8-3.6-1.2-5.8-1.2-3.9,0-7.4,1-10.6,3-3.2,2-5.7,5.2-7.6,9.8-1.9,4.6-2.9,10.8-2.9,18.7s.9,14,2.7,18.6c1.8,4.6,4.3,7.9,7.3,9.8,3.1,1.9,6.6,2.9,10.4,2.9s3.2-.1,4.3-.4c1.1-.3,2.2-.6,3.4-1.1,1.3-.5,2.3-1.3,3.1-2.3.7-1,1.3-2.2,1.9-3.5l3.7-9h2.7l-.4,14.2c-2.8,1.6-5.9,2.8-9.4,3.6-3.4.9-7.1,1.3-11.1,1.3Z"/>
      <path class="cls-1" d="m844.1,509.6c-3.7,0-6.9-1.1-9.5-3.2-2.6-2.1-3.9-5.2-3.9-9.2s1.5-6.1,4.6-8.7c3.1-2.7,7.9-4.6,14.4-5.9,1.1-.3,2.4-.5,3.9-.7,1.5-.2,2.9-.5,4.4-.7v-7c0-4.5-.6-7.6-1.7-9.3-1.1-1.7-2.9-2.6-5.3-2.6h-.3c-1.5,0-2.7.5-3.6,1.4-.9,1-1.5,2.5-1.7,4.7l-.3,1.3c-.2,2.6-.9,4.5-2.1,5.8-1.2,1.2-2.7,1.8-4.4,1.8s-3-.5-4.1-1.5c-1.1-1-1.6-2.3-1.6-4,0-2.7.9-5,2.8-6.8,1.8-1.8,4.3-3.2,7.3-4.1,3.1-.9,6.4-1.4,9.9-1.4,5.8,0,10.3,1.4,13.4,4.2,3.1,2.8,4.6,7.4,4.6,13.8v22c0,2.8,1.3,4.2,4,4.2h2.3l1,1.1c-1.2,1.5-2.5,2.7-3.9,3.5-1.4.8-3.4,1.2-5.9,1.2s-5.1-.7-6.8-2-2.8-3.1-3.3-5.4c-2.1,2.2-4.2,4-6.2,5.4-2,1.4-4.7,2.1-8,2.1Zm5.7-6.3c1.3,0,2.6-.3,3.7-.9,1.2-.6,2.7-1.6,4.4-3v-15.8c-1.7.3-3.4.6-5.2,1-2.8.7-5.1,1.9-6.8,3.6-1.7,1.8-2.6,4.2-2.6,7.2s.6,4.6,1.8,5.9c1.2,1.3,2.8,1.9,4.7,1.9Z"/>
      <path class="cls-1" d="m880.2,508.2v-2l2.2-.6c1-.3,1.7-.8,2.1-1.4.3-.6.5-1.5.6-2.5v-25c0-1.5,0-3.3,0-5.3,0-1.1-.2-2-.5-2.6-.3-.6-1.1-1.1-2.2-1.3l-2.1-.5v-1.8l16-5.7,1.2,1.1.7,6.6c2.3-2.1,4.9-3.9,7.7-5.4,2.8-1.5,5.7-2.3,8.7-2.3s5.8.7,7.7,2c1.8,1.3,3.3,3.3,4.2,6,2.5-2.5,5.3-4.5,8.3-5.9,3-1.4,6-2.1,9-2.1,4.5,0,7.8,1.1,10.1,3.3,2.2,2.2,3.4,5.8,3.4,10.5v28.5c0,2.1.9,3.4,2.8,3.9l1.9.5v2h-22.2v-2l1.8-.5c1.8-.6,2.7-1.9,2.7-4v-28.9c0-2.8-.5-4.7-1.5-5.8-1-1-2.7-1.5-5-1.5s-3.4.4-5,1.1c-1.6.7-3.3,1.8-5.2,3.3.4,2,.6,4.2.6,6.8v25c0,1.1.3,2,.6,2.6.4.6,1.1,1.1,2.1,1.3l1.7.5v2h-22.3v-2l2.1-.6c1-.3,1.8-.8,2.1-1.4.4-.6.5-1.5.5-2.5v-28.8c0-2.7-.5-4.6-1.5-5.7-1-1.1-2.7-1.7-5-1.7s-6.3,1.4-9.8,4.3v31.9c0,2.2.9,3.5,2.8,3.9l1.7.5v2h-22.6Z"/>
      <path class="cls-1" d="m965.7,508.2v-1.9l1.5-.4c1.3-.4,2.2-1,2.7-1.8.5-.8.7-1.8.8-3.2v-23.8c0-1.7,0-3.5,0-5.4,0-1.3-.2-2.3-.7-3.1-.5-.8-1.4-1.3-2.7-1.5l-1.4-.3v-1.8l17.2-5.7,1.2,1.1-.3,14v26.6c0,1.3.2,2.4.7,3.2s1.4,1.4,2.6,1.8l1.1.3v1.9h-22.6Zm11.3-54.2c-2.2,0-4-.7-5.5-2.1-1.5-1.4-2.3-3.1-2.3-5.2s.8-3.9,2.3-5.3c1.5-1.3,3.4-2,5.5-2s4,.7,5.5,2c1.5,1.3,2.3,3.1,2.3,5.3s-.8,3.8-2.3,5.2c-1.5,1.4-3.4,2.1-5.5,2.1Z"/>
      <path class="cls-1" d="m992.8,508.2v-1.9l1.5-.4c2.2-.7,3.3-2.4,3.3-4.9s0-4.5,0-6.8c0-2.3,0-4.5,0-6.8v-37.4c0-1.4-.2-2.4-.7-3.1-.5-.7-1.3-1.2-2.7-1.5l-1.5-.4v-1.9l17.2-4.1,1.3.9-.4,13.9v47.2c0,1.3.3,2.4.8,3.2.5.8,1.4,1.4,2.6,1.7l1.4.4v1.9h-23Z"/>
      <path class="cls-1" d="m1020.4,508.2v-1.9l1.5-.4c2.2-.7,3.3-2.4,3.3-4.9s0-4.5,0-6.8c0-2.3,0-4.5,0-6.8v-37.4c0-1.4-.2-2.4-.7-3.1-.5-.7-1.3-1.2-2.7-1.5l-1.5-.4v-1.9l17.2-4.1,1.3.9-.4,13.9v47.2c0,1.3.3,2.4.8,3.2.5.8,1.4,1.4,2.6,1.7l1.4.4v1.9h-23Z"/>
      <path class="cls-1" d="m1072.4,459.5c4.1,0,7.7.9,10.6,2.6,3,1.7,5.2,4.1,6.8,7,1.6,3,2.4,6.4,2.4,10.3s0,1.7,0,2.4c0,.8-.2,1.5-.4,2.1h-29.7c0,6.8,1.3,11.6,3.8,14.6,2.5,3,6.1,4.4,10.8,4.4s5.9-.5,8-1.6c2-1.1,3.9-2.6,5.6-4.6l1.6,1.5c-2,3.6-4.6,6.4-8,8.4-3.4,2-7.4,3-12.1,3s-8.8-1-12.3-3c-3.5-2-6.3-4.8-8.3-8.5-2-3.7-3-8.2-3-13.4s1.2-10,3.5-13.7c2.3-3.7,5.4-6.6,9.1-8.6,3.7-2,7.6-3,11.7-3Zm-.5,2.9c-1.9,0-3.6.5-5,1.6-1.4,1.1-2.5,3-3.4,5.7-.8,2.7-1.3,6.6-1.4,11.5h17.6c.7-6.6.5-11.4-.8-14.4-1.2-3-3.6-4.4-7.1-4.4Z"/>
    </g>
  </g>
</svg>